SeanSans-CompressedExtrabold.ufo
<glyph name="exclam" format="1">
  <advance width="248"/>
  <unicode hex="0021"/>
  <outline>
    <contour>
      <point x="190" y="229" type="line"/>
      <point x="198" y="722" type="line"/>
      <point x="52" y="722" type="line"/>
      <point x="60" y="229" type="line"/>
    </contour>
    <contour>
      <point x="188" y="55" type="curve"/>
      <point x="188" y="98"/>
      <point x="161" y="119"/>
      <point x="123" y="119" type="curve"/>
      <point x="85" y="119"/>
      <point x="60" y="96"/>
      <point x="60" y="55" type="curve"/>
      <point x="189" y="55"/>
      <point x="60" y="55"/>
      <point x="188" y="55" type="curve"/>
      <point x="188" y="12"/>
      <point x="162" y="-8"/>
      <point x="123" y="-8" type="curve"/>
      <point x="84" y="-8"/>
      <point x="60" y="13"/>
      <point x="60" y="55" type="curve"/>
      <point x="189" y="55"/>
      <point x="60" y="55"/>
    </contour>
  </outline>
</glyph>
<glyph name="quotedbl" format="1">
  <advance width="380"/>
  <unicode hex="0022"/>
  <outline>
    <contour>
      <point x="157" y="628" type="line"/>
      <point x="167" y="840" type="line"/>
      <point x="43" y="840" type="line"/>
      <point x="52" y="628" type="line"/>
    </contour>
    <contour>
      <point x="328" y="628" type="line"/>
      <point x="337" y="840" type="line"/>
      <point x="214" y="840" type="line"/>
      <point x="223" y="628" type="line"/>
    </contour>
  </outline>
</glyph>
<glyph name="numbersign" format="1">
  <advance width="511"/>
  <unicode hex="0023"/>
  <outline>
    <contour>
      <point x="35" y="221" type="curve"/>
      <point x="413" y="221" type="curve"/>
      <point x="435" y="320" type="curve"/>
      <point x="57" y="320" type="curve"/>
    </contour>
    <contour>
      <point x="78" y="438" type="curve"/>
      <point x="456" y="438" type="curve"/>
      <point x="479" y="536" type="curve"/>
      <point x="98" y="536" type="curve"/>
    </contour>
    <contour>
      <point x="339" y="39" type="curve"/>
      <point x="482" y="722" type="curve"/>
      <point x="357" y="722" type="curve"/>
      <point x="214" y="39" type="curve"/>
    </contour>
    <contour>
      <point x="152" y="46" type="curve"/>
      <point x="294" y="722" type="curve"/>
      <point x="169" y="722" type="curve"/>
      <point x="32" y="46" type="curve"/>
    </contour>
  </outline>
</glyph>
<glyph name="dollar" format="1">
  <advance width="437"/>
  <unicode hex="0024"/>
  <outline>
    <contour>
      <point x="266" y="-43" type="curve"/>
      <point x="266" y="-12"/>
      <point x="266" y="61"/>
      <point x="266" y="92" type="curve"/>
      <point x="141" y="92"/>
      <point x="266" y="92"/>
      <point x="141" y="92" type="curve"/>
      <point x="141" y="61"/>
      <point x="141" y="-12"/>
      <point x="141" y="-43" type="curve"/>
      <point x="266" y="-43"/>
      <point x="141" y="-43"/>
    </contour>
    <contour>
      <point x="274" y="638" type="curve"/>
      <point x="274" y="668"/>
      <point x="274" y="742"/>
      <point x="274" y="773" type="curve"/>
      <point x="149" y="773"/>
      <point x="274" y="773"/>
      <point x="149" y="773" type="curve"/>
      <point x="149" y="742"/>
      <point x="149" y="668"/>
      <point x="149" y="638" type="curve"/>
      <point x="274" y="638"/>
      <point x="149" y="638"/>
    </contour>
    <contour>
      <point x="44" y="92" type="curve"/>
      <point x="86" y="64"/>
      <point x="137" y="43"/>
      <point x="198" y="43" type="curve"/>
      <point x="320" y="43"/>
      <point x="407" y="115"/>
      <point x="407" y="218" type="curve"/>
      <point x="407" y="307"/>
      <point x="338" y="368"/>
      <point x="249" y="418" type="curve"/>
      <point x="199" y="447"/>
      <point x="161" y="471"/>
      <point x="161" y="523" type="curve"/>
      <point x="161" y="557"/>
      <point x="177" y="590"/>
      <point x="212" y="590" type="curve"/>
      <point x="251" y="590"/>
      <point x="276" y="574"/>
      <point x="305" y="552" type="curve"/>
      <point x="369" y="635"/>
      <point x="305" y="552"/>
      <point x="369" y="635" type="curve"/>
      <point x="321" y="669"/>
      <point x="279" y="687"/>
      <point x="217" y="687" type="curve"/>
      <point x="108" y="687"/>
      <point x="35" y="619"/>
      <point x="35" y="523" type="curve"/>
      <point x="35" y="434"/>
      <point x="90" y="377"/>
      <point x="176" y="329" type="curve"/>
      <point x="230" y="299"/>
      <point x="282" y="271"/>
      <point x="282" y="213" type="curve"/>
      <point x="282" y="171"/>
      <point x="253" y="140"/>
      <point x="209" y="140" type="curve"/>
      <point x="170" y="140"/>
      <point x="138" y="162"/>
      <point x="115" y="179" type="curve"/>
      <point x="44" y="92"/>
      <point x="115" y="179"/>
    </contour>
  </outline>
</glyph>
<glyph name="percent" format="1">
  <advance width="912"/>
  <unicode hex="0025"/>
  <outline>
    <contour>
      <point x="377" y="-43" type="line"/>
      <point x="658" y="714" type="line"/>
      <point x="543" y="714" type="line"/>
      <point x="262" y="-43" type="line"/>
    </contour>
    <contour>
      <point x="129" y="503" type="curve"/>
      <point x="129" y="571"/>
      <point x="138" y="630"/>
      <point x="196" y="630" type="curve"/>
      <point x="255" y="631"/>
      <point x="265" y="571"/>
      <point x="265" y="502" type="curve"/>
      <point x="265" y="433"/>
      <point x="260" y="371"/>
      <point x="202" y="371" type="curve"/>
      <point x="141" y="371"/>
      <point x="129" y="432"/>
      <point x="129" y="503" type="curve"/>
      <point x="92" y="503"/>
      <point x="65" y="503"/>
      <point x="27" y="503" type="curve"/>
      <point x="27" y="377"/>
      <point x="81" y="284"/>
      <point x="197" y="284" type="curve"/>
      <point x="315" y="284"/>
      <point x="372" y="378"/>
      <point x="372" y="506" type="curve"/>
      <point x="372" y="629"/>
      <point x="316" y="718"/>
      <point x="201" y="717" type="curve"/>
      <point x="85" y="717"/>
      <point x="27" y="627"/>
      <point x="27" y="503" type="curve"/>
      <point x="65" y="503"/>
      <point x="92" y="503"/>
    </contour>
    <contour>
      <point x="643" y="176" type="curve"/>
      <point x="643" y="244"/>
      <point x="652" y="303"/>
      <point x="710" y="303" type="curve"/>
      <point x="768" y="304"/>
      <point x="778" y="244"/>
      <point x="778" y="174" type="curve"/>
      <point x="778" y="105"/>
      <point x="774" y="43"/>
      <point x="716" y="43" type="curve"/>
      <point x="654" y="43"/>
      <point x="643" y="104"/>
      <point x="643" y="176" type="curve"/>
      <point x="605" y="176"/>
      <point x="579" y="176"/>
      <point x="541" y="176" type="curve"/>
      <point x="541" y="50"/>
      <point x="595" y="-43"/>
      <point x="711" y="-43" type="curve"/>
      <point x="829" y="-43"/>
      <point x="885" y="51"/>
      <point x="885" y="179" type="curve"/>
      <point x="885" y="302"/>
      <point x="830" y="391"/>
      <point x="715" y="390" type="curve"/>
      <point x="598" y="390"/>
      <point x="541" y="300"/>
      <point x="541" y="176" type="curve"/>
      <point x="579" y="176"/>
      <point x="605" y="176"/>
    </contour>
  </outline>
</glyph>
<glyph name="ampersand" format="1">
  <advance width="548"/>
  <unicode hex="0026"/>
  <outline>
    <contour>
      <point x="518" y="34" type="line"/>
      <point x="449" y="135"/>
      <point x="370" y="269"/>
      <point x="296" y="374" type="curve"/>
      <point x="258" y="431"/>
      <point x="205" y="483"/>
      <point x="205" y="553" type="curve"/>
      <point x="205" y="589"/>
      <point x="206" y="629"/>
      <point x="236" y="629" type="curve"/>
      <point x="266" y="629"/>
      <point x="267" y="592"/>
      <point x="267" y="555" type="curve"/>
      <point x="268" y="496"/>
      <point x="241" y="452"/>
      <point x="194" y="416" type="curve"/>
      <point x="114" y="353"/>
      <point x="45" y="297"/>
      <point x="45" y="198" type="curve"/>
      <point x="45" y="81"/>
      <point x="117" y="-5"/>
      <point x="230" y="-5" type="curve"/>
      <point x="394" y="-5"/>
      <point x="461" y="142"/>
      <point x="498" y="313" type="curve"/>
      <point x="390" y="338"/>
      <point x="498" y="313"/>
      <point x="390" y="338" type="curve"/>
      <point x="364" y="217"/>
      <point x="347" y="94"/>
      <point x="236" y="94" type="curve"/>
      <point x="189" y="94"/>
      <point x="170" y="143"/>
      <point x="170" y="198" type="curve"/>
      <point x="170" y="257"/>
      <point x="199" y="299"/>
      <point x="247" y="337" type="curve"/>
      <point x="326" y="399"/>
      <point x="392" y="456"/>
      <point x="393" y="555" type="curve"/>
      <point x="393" y="655"/>
      <point x="335" y="727"/>
      <point x="240" y="727" type="curve"/>
      <point x="145" y="727"/>
      <point x="90" y="653"/>
      <point x="90" y="553" type="curve"/>
      <point x="90" y="458"/>
      <point x="151" y="392"/>
      <point x="206" y="314" type="curve"/>
      <point x="274" y="215"/>
      <point x="359" y="73"/>
      <point x="422" y="-21" type="curve"/>
    </contour>
  </outline>
</glyph>
<glyph name="parenleft" format="1">
  <advance width="297"/>
  <unicode hex="0028"/>
  <outline>
    <contour>
      <point x="296" y="-209" type="curve"/>
      <point x="177" y="-35"/>
      <point x="156" y="118"/>
      <point x="156" y="326" type="curve"/>
      <point x="156" y="535"/>
      <point x="179" y="688"/>
      <point x="295" y="864" type="curve"/>
      <point x="220" y="927"/>
      <point x="295" y="864"/>
      <point x="220" y="927" type="curve"/>
      <point x="85" y="730"/>
      <point x="35" y="564"/>
      <point x="35" y="326" type="curve"/>
      <point x="35" y="87"/>
      <point x="86" y="-78"/>
      <point x="221" y="-278" type="curve"/>
      <point x="296" y="-209"/>
      <point x="221" y="-278"/>
    </contour>
  </outline>
</glyph>
<glyph name="parenright" format="1">
  <advance width="305"/>
  <unicode hex="0029"/>
  <outline>
    <contour>
      <point x="73" y="-291" type="curve"/>
      <point x="210" y="-85"/>
      <point x="269" y="83"/>
      <point x="269" y="329" type="curve"/>
      <point x="269" y="569"/>
      <point x="217" y="733"/>
      <point x="76" y="930" type="curve"/>
      <point x="2" y="861"/>
      <point x="76" y="930"/>
      <point x="2" y="861" type="curve"/>
      <point x="122" y="687"/>
      <point x="147" y="534"/>
      <point x="147" y="324" type="curve"/>
      <point x="147" y="110"/>
      <point x="114" y="-45"/>
      <point x="-1" y="-228" type="curve"/>
      <point x="73" y="-291"/>
      <point x="-1" y="-228"/>
    </contour>
  </outline>
</glyph>
<glyph name="asterisk" format="1">
  <advance width="527"/>
  <unicode hex="002A"/>
  <outline>
    <contour>
      <point x="301" y="540" type="line"/>
      <point x="307" y="752" type="line"/>
      <point x="220" y="752" type="line"/>
      <point x="226" y="540" type="line"/>
    </contour>
    <contour>
      <point x="285" y="498" type="line"/>
      <point x="486" y="563" type="line"/>
      <point x="456" y="645" type="line"/>
      <point x="260" y="568" type="line"/>
    </contour>
    <contour>
      <point x="240" y="498" type="line"/>
      <point x="370" y="330" type="line"/>
      <point x="437" y="386" type="line"/>
      <point x="298" y="545" type="line"/>
    </contour>
    <contour>
      <point x="228" y="546" type="line"/>
      <point x="88" y="387" type="line"/>
      <point x="156" y="331" type="line"/>
      <point x="286" y="499" type="line"/>
    </contour>
    <contour>
      <point x="267" y="568" type="line"/>
      <point x="69" y="646" type="line"/>
      <point x="39" y="564" type="line"/>
      <point x="241" y="498" type="line"/>
    </contour>
  </outline>
</glyph>
<glyph name="plus" format="1">
  <advance width="570"/>
  <unicode hex="002B"/>
  <outline>
    <contour>
      <point x="34" y="261" type="curve"/>
      <point x="536" y="261" type="line"/>
      <point x="536" y="369"/>
      <point x="536" y="261"/>
      <point x="536" y="369" type="curve"/>
      <point x="34" y="369" type="line"/>
      <point x="34" y="261"/>
      <point x="34" y="369"/>
    </contour>
    <contour>
      <point x="343" y="58" type="curve"/>
      <point x="343" y="578" type="line"/>
      <point x="218" y="578"/>
      <point x="351" y="578"/>
      <point x="226" y="578" type="curve"/>
      <point x="226" y="58" type="line"/>
      <point x="351" y="58"/>
      <point x="218" y="58"/>
    </contour>
  </outline>
</glyph>
<glyph name="comma" format="1">
  <advance width="198"/>
  <unicode hex="002C"/>
  <outline>
    <contour>
      <point x="14" y="-116" type="line"/>
      <point x="98" y="-113"/>
      <point x="153" y="-49"/>
      <point x="153" y="49" type="curve"/>
      <point x="153" y="130"/>
      <point x="124" y="170"/>
      <point x="84" y="170" type="curve"/>
      <point x="45" y="170"/>
      <point x="20" y="148"/>
      <point x="20" y="106" type="curve"/>
      <point x="20" y="73"/>
      <point x="36" y="46"/>
      <point x="69" y="45" type="curve"/>
      <point x="69" y="22"/>
      <point x="69" y="-33"/>
      <point x="12" y="-46" type="curve"/>
    </contour>
  </outline>
</glyph>
<glyph name="hyphen" format="1">
  <advance width="303"/>
  <unicode hex="002D"/>
  <outline>
    <contour>
      <point x="55" y="228" type="curve"/>
      <point x="119" y="228"/>
      <point x="184" y="228"/>
      <point x="248" y="228" type="curve"/>
      <point x="248" y="335"/>
      <point x="248" y="228"/>
      <point x="248" y="335" type="curve"/>
      <point x="184" y="335"/>
      <point x="119" y="335"/>
      <point x="55" y="335" type="curve"/>
      <point x="55" y="228"/>
      <point x="55" y="335"/>
    </contour>
  </outline>
</glyph>
<glyph name="period" format="1">
  <advance width="223"/>
  <unicode hex="002E"/>
  <outline>
    <contour>
      <point x="176" y="55" type="curve"/>
      <point x="176" y="98"/>
      <point x="148" y="119"/>
      <point x="111" y="119" type="curve"/>
      <point x="73" y="119"/>
      <point x="48" y="96"/>
      <point x="48" y="55" type="curve"/>
      <point x="176" y="55"/>
      <point x="47" y="55"/>
      <point x="176" y="55" type="curve"/>
      <point x="176" y="12"/>
      <point x="149" y="-8"/>
      <point x="111" y="-8" type="curve"/>
      <point x="72" y="-8"/>
      <point x="48" y="13"/>
      <point x="48" y="55" type="curve"/>
      <point x="176" y="55"/>
      <point x="47" y="55"/>
    </contour>
  </outline>
</glyph>
<glyph name="slash" format="1">
  <advance width="444"/>
  <unicode hex="002F"/>
  <outline>
    <contour>
      <point x="145" y="-21" type="curve"/>
      <point x="238" y="250"/>
      <point x="332" y="520"/>
      <point x="425" y="791" type="curve"/>
      <point x="300" y="791"/>
      <point x="425" y="791"/>
      <point x="300" y="791" type="curve"/>
      <point x="207" y="520"/>
      <point x="113" y="250"/>
      <point x="20" y="-21" type="curve"/>
      <point x="145" y="-21"/>
      <point x="20" y="-21"/>
    </contour>
  </outline>
</glyph>
<glyph name="zero" format="1">
  <advance width="541"/>
  <unicode hex="0030"/>
  <outline>
    <contour>
      <point x="166" y="360" type="curve"/>
      <point x="166" y="500"/>
      <point x="170" y="625"/>
      <point x="267" y="625" type="curve"/>
      <point x="369" y="625"/>
      <point x="377" y="503"/>
      <point x="377" y="363" type="curve"/>
      <point x="377" y="223"/>
      <point x="373" y="98"/>
      <point x="277" y="98" type="curve"/>
      <point x="174" y="98"/>
      <point x="166" y="220"/>
      <point x="166" y="360" type="curve"/>
      <point x="44" y="360"/>
      <point x="165" y="360"/>
      <point x="44" y="360" type="curve"/>
      <point x="44" y="156"/>
      <point x="98" y="-5"/>
      <point x="270" y="-5" type="curve"/>
      <point x="445" y="-5"/>
      <point x="498" y="156"/>
      <point x="498" y="363" type="curve"/>
      <point x="498" y="566"/>
      <point x="448" y="727"/>
      <point x="278" y="727" type="curve"/>
      <point x="102" y="727"/>
      <point x="44" y="567"/>
      <point x="44" y="360" type="curve"/>
      <point x="165" y="360"/>
      <point x="44" y="360"/>
    </contour>
  </outline>
</glyph>
<glyph name="one" format="1">
  <advance width="332"/>
  <unicode hex="0031"/>
  <outline>
    <contour>
      <point x="86" y="488" type="curve"/>
      <point x="240" y="658"/>
      <point x="86" y="488"/>
      <point x="240" y="658" type="curve"/>
      <point x="149" y="722"/>
      <point x="240" y="658"/>
      <point x="149" y="722" type="curve"/>
      <point x="8" y="563"/>
      <point x="149" y="722"/>
      <point x="8" y="563" type="curve"/>
      <point x="86" y="488"/>
      <point x="8" y="563"/>
    </contour>
    <contour>
      <point x="270" y="0" type="curve"/>
      <point x="270" y="241"/>
      <point x="270" y="481"/>
      <point x="270" y="722" type="curve"/>
      <point x="149" y="722"/>
      <point x="270" y="722"/>
      <point x="149" y="722" type="curve"/>
      <point x="149" y="481"/>
      <point x="149" y="241"/>
      <point x="149" y="0" type="curve"/>
      <point x="270" y="0"/>
      <point x="149" y="0"/>
    </contour>
  </outline>
</glyph>
<glyph name="two" format="1">
  <advance width="441"/>
  <unicode hex="0032"/>
  <outline>
    <contour>
      <point x="37" y="0" type="curve"/>
      <point x="183" y="0"/>
      <point x="316" y="0"/>
      <point x="404" y="0" type="curve"/>
      <point x="404" y="97"/>
      <point x="404" y="0"/>
      <point x="404" y="97" type="curve"/>
      <point x="297" y="97"/>
      <point x="146" y="98"/>
      <point x="38" y="98" type="curve"/>
      <point x="37" y="0"/>
      <point x="38" y="97"/>
    </contour>
    <contour>
      <point x="123" y="526" type="curve"/>
      <point x="147" y="578"/>
      <point x="160" y="625"/>
      <point x="212" y="625" type="curve"/>
      <point x="264" y="625"/>
      <point x="274" y="570"/>
      <point x="274" y="505" type="curve"/>
      <point x="274" y="411"/>
      <point x="235" y="340"/>
      <point x="181" y="275" type="curve"/>
      <point x="133" y="214"/>
      <point x="90" y="160"/>
      <point x="38" y="98" type="curve"/>
      <point x="39" y="0"/>
      <point x="38" y="97"/>
      <point x="39" y="0" type="curve"/>
      <point x="153" y="56"/>
      <point x="208" y="135"/>
      <point x="262" y="204" type="curve"/>
      <point x="341" y="295"/>
      <point x="394" y="382"/>
      <point x="394" y="511" type="curve"/>
      <point x="394" y="639"/>
      <point x="338" y="727"/>
      <point x="217" y="727" type="curve"/>
      <point x="123" y="727"/>
      <point x="65" y="664"/>
      <point x="35" y="576" type="curve"/>
      <point x="123" y="526"/>
      <point x="35" y="576"/>
    </contour>
  </outline>
</glyph>
<glyph name="three" format="1">
  <advance width="427"/>
  <unicode hex="0033"/>
  <outline>
    <contour>
      <point x="32" y="60" type="curve"/>
      <point x="84" y="20"/>
      <point x="120" y="-5"/>
      <point x="180" y="-5" type="curve"/>
      <point x="311" y="-5"/>
      <point x="385" y="74"/>
      <point x="385" y="205" type="curve"/>
      <point x="385" y="323"/>
      <point x="286" y="403"/>
      <point x="121" y="403" type="curve"/>
      <point x="121" y="322"/>
      <point x="121" y="401"/>
      <point x="121" y="321" type="curve"/>
      <point x="211" y="321"/>
      <point x="265" y="267"/>
      <point x="265" y="200" type="curve"/>
      <point x="265" y="143"/>
      <point x="237" y="98"/>
      <point x="186" y="98" type="curve"/>
      <point x="150" y="98"/>
      <point x="129" y="110"/>
      <point x="103" y="132" type="curve"/>
      <point x="32" y="60"/>
      <point x="103" y="132"/>
    </contour>
    <contour>
      <point x="116" y="572" type="curve"/>
      <point x="127" y="594"/>
      <point x="146" y="625"/>
      <point x="178" y="625" type="curve"/>
      <point x="225" y="625"/>
      <point x="244" y="583"/>
      <point x="244" y="529" type="curve"/>
      <point x="244" y="472"/>
      <point x="199" y="423"/>
      <point x="121" y="423" type="curve"/>
      <point x="121" y="342"/>
      <point x="121" y="421"/>
      <point x="121" y="341" type="curve"/>
      <point x="264" y="341"/>
      <point x="362" y="416"/>
      <point x="362" y="532" type="curve"/>
      <point x="362" y="650"/>
      <point x="300" y="727"/>
      <point x="190" y="727" type="curve"/>
      <point x="119" y="727"/>
      <point x="61" y="683"/>
      <point x="33" y="632" type="curve"/>
      <point x="116" y="572"/>
      <point x="33" y="632"/>
    </contour>
  </outline>
</glyph>
<glyph name="four" format="1">
  <advance width="444"/>
  <unicode hex="0034"/>
  <outline>
    <contour>
      <point x="63" y="254" type="line"/>
      <point x="325" y="704" type="line"/>
      <point x="220" y="700" type="line"/>
      <point x="11" y="339" type="line"/>
    </contour>
    <contour>
      <point x="412" y="339" type="line"/>
      <point x="11" y="339" type="line"/>
      <point x="12" y="232" type="line"/>
      <point x="412" y="232" type="line"/>
    </contour>
    <contour>
      <point x="345" y="0" type="line"/>
      <point x="345" y="700" type="line"/>
      <point x="223" y="700" type="line"/>
      <point x="223" y="0" type="line"/>
    </contour>
  </outline>
</glyph>
<glyph name="five" format="1">
  <advance width="420"/>
  <unicode hex="0035"/>
  <outline>
    <contour>
      <point x="50" y="722" type="curve"/>
      <point x="50" y="624"/>
      <point x="50" y="517"/>
      <point x="50" y="383" type="curve"/>
      <point x="170" y="343"/>
      <point x="50" y="383"/>
      <point x="169" y="343" type="curve"/>
      <point x="169" y="435"/>
      <point x="169" y="533"/>
      <point x="169" y="625" type="curve"/>
      <point x="50" y="722"/>
      <point x="169" y="625"/>
    </contour>
    <contour>
      <point x="169" y="343" type="curve"/>
      <point x="174" y="350"/>
      <point x="184" y="360"/>
      <point x="206" y="360" type="curve"/>
      <point x="257" y="360"/>
      <point x="264" y="301"/>
      <point x="264" y="237" type="curve"/>
      <point x="264" y="168"/>
      <point x="246" y="97"/>
      <point x="189" y="97" type="curve"/>
      <point x="153" y="97"/>
      <point x="130" y="108"/>
      <point x="104" y="131" type="curve"/>
      <point x="40" y="43"/>
      <point x="104" y="131"/>
      <point x="40" y="43" type="curve"/>
      <point x="76" y="13"/>
      <point x="137" y="-5"/>
      <point x="199" y="-5" type="curve"/>
      <point x="313" y="-5"/>
      <point x="384" y="104"/>
      <point x="384" y="239" type="curve"/>
      <point x="384" y="363"/>
      <point x="334" y="465"/>
      <point x="226" y="465" type="curve"/>
      <point x="178" y="465"/>
      <point x="140" y="449"/>
      <point x="87" y="383" type="curve"/>
      <point x="173" y="353"/>
      <point x="83" y="373"/>
    </contour>
    <contour>
      <point x="360" y="722" type="curve"/>
      <point x="272" y="722"/>
      <point x="142" y="722"/>
      <point x="50" y="722" type="curve"/>
      <point x="169" y="625"/>
      <point x="50" y="722"/>
      <point x="169" y="625" type="curve"/>
      <point x="221" y="625"/>
      <point x="311" y="625"/>
      <point x="360" y="625" type="curve"/>
      <point x="360" y="722"/>
      <point x="360" y="625"/>
    </contour>
  </outline>
</glyph>
<glyph name="six" format="1">
  <advance width="466"/>
  <unicode hex="0036"/>
  <outline>
    <contour>
      <point x="142" y="210" type="curve"/>
      <point x="152" y="278"/>
      <point x="179" y="342"/>
      <point x="239" y="342" type="curve"/>
      <point x="296" y="342"/>
      <point x="307" y="287"/>
      <point x="307" y="223" type="curve"/>
      <point x="307" y="163"/>
      <point x="295" y="106"/>
      <point x="242" y="106" type="curve"/>
      <point x="176" y="106"/>
      <point x="159" y="175"/>
      <point x="159" y="257" type="curve"/>
      <point x="159" y="440"/>
      <point x="230" y="570"/>
      <point x="405" y="639" type="curve"/>
      <point x="370" y="729"/>
      <point x="405" y="639"/>
      <point x="370" y="729" type="curve"/>
      <point x="146" y="645"/>
      <point x="39" y="488"/>
      <point x="39" y="252" type="curve"/>
      <point x="39" y="101"/>
      <point x="103" y="-11"/>
      <point x="241" y="-11" type="curve"/>
      <point x="368" y="-11"/>
      <point x="432" y="87"/>
      <point x="432" y="223" type="curve"/>
      <point x="432" y="353"/>
      <point x="375" y="445"/>
      <point x="264" y="445" type="curve"/>
      <point x="142" y="445"/>
      <point x="82" y="316"/>
      <point x="87" y="232" type="curve"/>
      <point x="141" y="210"/>
      <point x="87" y="232"/>
    </contour>
  </outline>
</glyph>
<glyph name="seven" format="1">
  <advance width="415"/>
  <unicode hex="0037"/>
  <outline>
    <contour>
      <point x="49" y="625" type="curve"/>
      <point x="399" y="625" type="curve"/>
      <point x="399" y="722" type="curve"/>
      <point x="49" y="722" type="curve"/>
    </contour>
    <contour>
      <point x="317" y="722" type="curve"/>
      <point x="24" y="0" type="curve"/>
      <point x="155" y="0" type="curve"/>
      <point x="399" y="625" type="curve"/>
    </contour>
  </outline>
</glyph>
<glyph name="eight" format="1">
  <advance width="466"/>
  <unicode hex="0038"/>
  <outline>
    <contour>
      <point x="56" y="540" type="curve"/>
      <point x="56" y="442"/>
      <point x="113" y="396"/>
      <point x="196" y="342" type="curve"/>
      <point x="259" y="299"/>
      <point x="301" y="259"/>
      <point x="301" y="191" type="curve"/>
      <point x="301" y="139"/>
      <point x="283" y="98"/>
      <point x="234" y="98" type="curve"/>
      <point x="183" y="98"/>
      <point x="165" y="138"/>
      <point x="165" y="191" type="curve"/>
      <point x="165" y="261"/>
      <point x="207" y="297"/>
      <point x="271" y="341" type="curve"/>
      <point x="351" y="395"/>
      <point x="410" y="442"/>
      <point x="410" y="538" type="curve"/>
      <point x="410" y="655"/>
      <point x="349" y="727"/>
      <point x="234" y="727" type="curve"/>
      <point x="121" y="727"/>
      <point x="56" y="654"/>
      <point x="56" y="540" type="curve"/>
      <point x="177" y="540"/>
      <point x="56" y="540"/>
      <point x="177" y="540" type="curve"/>
      <point x="177" y="585"/>
      <point x="188" y="625"/>
      <point x="231" y="625" type="curve"/>
      <point x="274" y="625"/>
      <point x="289" y="587"/>
      <point x="289" y="538" type="curve"/>
      <point x="289" y="480"/>
      <point x="250" y="447"/>
      <point x="196" y="412" type="curve"/>
      <point x="104" y="351"/>
      <point x="44" y="299"/>
      <point x="44" y="191" type="curve"/>
      <point x="44" y="70"/>
      <point x="109" y="-5"/>
      <point x="228" y="-5" type="curve"/>
      <point x="350" y="-5"/>
      <point x="422" y="69"/>
      <point x="422" y="191" type="curve"/>
      <point x="422" y="298"/>
      <point x="361" y="353"/>
      <point x="272" y="413" type="curve"/>
      <point x="217" y="450"/>
      <point x="177" y="479"/>
      <point x="177" y="540" type="curve"/>
      <point x="56" y="540"/>
      <point x="177" y="540"/>
    </contour>
  </outline>
</glyph>
<glyph name="nine" format="1">
  <advance width="464"/>
  <unicode hex="0039"/>
  <outline>
    <contour>
      <point x="333" y="474" type="curve"/>
      <point x="314" y="410"/>
      <point x="287" y="380"/>
      <point x="228" y="380" type="curve"/>
      <point x="171" y="380"/>
      <point x="151" y="438"/>
      <point x="151" y="505" type="curve"/>
      <point x="151" y="563"/>
      <point x="169" y="616"/>
      <point x="218" y="616" type="curve"/>
      <point x="288" y="616"/>
      <point x="305" y="546"/>
      <point x="305" y="465" type="curve"/>
      <point x="305" y="282"/>
      <point x="237" y="149"/>
      <point x="71" y="79" type="curve"/>
      <point x="123" y="-16"/>
      <point x="71" y="79"/>
      <point x="123" y="-16" type="curve"/>
      <point x="310" y="64"/>
      <point x="424" y="234"/>
      <point x="424" y="470" type="curve"/>
      <point x="424" y="621"/>
      <point x="361" y="733"/>
      <point x="222" y="733" type="curve"/>
      <point x="95" y="733"/>
      <point x="32" y="635"/>
      <point x="32" y="499" type="curve"/>
      <point x="32" y="369"/>
      <point x="94" y="277"/>
      <point x="216" y="277" type="curve"/>
      <point x="321" y="277"/>
      <point x="371" y="384"/>
      <point x="393" y="451" type="curve"/>
      <point x="333" y="474"/>
      <point x="393" y="451"/>
    </contour>
  </outline>
</glyph>
<glyph name="colon" format="1">
  <advance width="237"/>
  <unicode hex="003A"/>
  <outline>
    <contour>
      <point x="181" y="367" type="curve"/>
      <point x="181" y="410"/>
      <point x="154" y="431"/>
      <point x="117" y="431" type="curve"/>
      <point x="78" y="431"/>
      <point x="54" y="408"/>
      <point x="54" y="367" type="curve"/>
      <point x="182" y="367"/>
      <point x="53" y="367"/>
      <point x="181" y="367" type="curve"/>
      <point x="181" y="324"/>
      <point x="155" y="304"/>
      <point x="117" y="304" type="curve"/>
      <point x="78" y="304"/>
      <point x="54" y="325"/>
      <point x="54" y="367" type="curve"/>
      <point x="182" y="367"/>
      <point x="53" y="367"/>
    </contour>
    <contour>
      <point x="182" y="59" type="curve"/>
      <point x="182" y="102"/>
      <point x="154" y="123"/>
      <point x="117" y="123" type="curve"/>
      <point x="79" y="123"/>
      <point x="54" y="100"/>
      <point x="54" y="59" type="curve"/>
      <point x="182" y="59"/>
      <point x="53" y="59"/>
      <point x="182" y="59" type="curve"/>
      <point x="182" y="16"/>
      <point x="155" y="-4"/>
      <point x="117" y="-4" type="curve"/>
      <point x="78" y="-4"/>
      <point x="54" y="17"/>
      <point x="54" y="59" type="curve"/>
      <point x="182" y="59"/>
      <point x="53" y="59"/>
    </contour>
  </outline>
</glyph>
<glyph name="semicolon" format="1">
  <advance width="214"/>
  <unicode hex="003B"/>
  <outline>
    <contour>
      <point x="11" y="-207" type="line"/>
      <point x="104" y="-204"/>
      <point x="164" y="-141"/>
      <point x="164" y="-42" type="curve"/>
      <point x="164" y="39"/>
      <point x="132" y="78"/>
      <point x="88" y="78" type="curve"/>
      <point x="45" y="78"/>
      <point x="17" y="56"/>
      <point x="17" y="14" type="curve"/>
      <point x="17" y="-18"/>
      <point x="35" y="-46"/>
      <point x="72" y="-46" type="curve"/>
      <point x="73" y="-70"/>
      <point x="72" y="-124"/>
      <point x="9" y="-138" type="curve"/>
    </contour>
    <contour>
      <point x="152" y="383" type="curve"/>
      <point x="152" y="426"/>
      <point x="124" y="447"/>
      <point x="87" y="447" type="curve"/>
      <point x="49" y="447"/>
      <point x="24" y="424"/>
      <point x="24" y="383" type="curve"/>
      <point x="152" y="383"/>
      <point x="23" y="383"/>
      <point x="152" y="383" type="curve"/>
      <point x="152" y="340"/>
      <point x="125" y="320"/>
      <point x="87" y="320" type="curve"/>
      <point x="48" y="320"/>
      <point x="24" y="341"/>
      <point x="24" y="383" type="curve"/>
      <point x="152" y="383"/>
      <point x="23" y="383"/>
    </contour>
  </outline>
</glyph>
<glyph name="less" format="1">
  <advance width="479"/>
  <unicode hex="003C"/>
  <outline>
    <contour>
      <point x="427" y="624" type="curve"/>
      <point x="294" y="534"/>
      <point x="160" y="444"/>
      <point x="27" y="354" type="curve"/>
      <point x="27" y="246"/>
      <point x="27" y="354"/>
      <point x="27" y="246" type="curve"/>
      <point x="160" y="336"/>
      <point x="294" y="426"/>
      <point x="427" y="516" type="curve"/>
      <point x="427" y="624"/>
      <point x="427" y="516"/>
    </contour>
    <contour>
      <point x="434" y="90" type="curve"/>
      <point x="298" y="178"/>
      <point x="162" y="266"/>
      <point x="27" y="354" type="curve"/>
      <point x="27" y="246"/>
      <point x="27" y="354"/>
      <point x="27" y="246" type="curve"/>
      <point x="162" y="158"/>
      <point x="298" y="70"/>
      <point x="434" y="-18" type="curve"/>
      <point x="434" y="90"/>
      <point x="434" y="-18"/>
    </contour>
  </outline>
</glyph>
<glyph name="equal" format="1">
  <advance width="518"/>
  <unicode hex="003D"/>
  <outline>
    <contour>
      <point x="54" y="166" type="curve"/>
      <point x="191" y="166"/>
      <point x="329" y="166"/>
      <point x="467" y="166" type="curve"/>
      <point x="467" y="269"/>
      <point x="467" y="166"/>
      <point x="467" y="269" type="curve"/>
      <point x="329" y="269"/>
      <point x="191" y="269"/>
      <point x="54" y="269" type="curve"/>
      <point x="54" y="166"/>
      <point x="54" y="269"/>
    </contour>
    <contour>
      <point x="54" y="388" type="curve"/>
      <point x="191" y="388"/>
      <point x="329" y="388"/>
      <point x="467" y="388" type="curve"/>
      <point x="467" y="491"/>
      <point x="467" y="388"/>
      <point x="467" y="491" type="curve"/>
      <point x="329" y="491"/>
      <point x="191" y="491"/>
      <point x="54" y="491" type="curve"/>
      <point x="54" y="388"/>
      <point x="54" y="491"/>
    </contour>
  </outline>
</glyph>
<glyph name="greater" format="1">
  <advance width="481"/>
  <unicode hex="003E"/>
  <outline>
    <contour>
      <point x="52" y="-18" type="curve"/>
      <point x="185" y="72"/>
      <point x="320" y="162"/>
      <point x="453" y="252" type="curve"/>
      <point x="453" y="360"/>
      <point x="453" y="252"/>
      <point x="453" y="360" type="curve"/>
      <point x="320" y="270"/>
      <point x="185" y="180"/>
      <point x="52" y="90" type="curve"/>
      <point x="52" y="-18"/>
      <point x="52" y="90"/>
    </contour>
    <contour>
      <point x="45" y="516" type="curve"/>
      <point x="181" y="428"/>
      <point x="317" y="340"/>
      <point x="453" y="252" type="curve"/>
      <point x="453" y="360"/>
      <point x="453" y="252"/>
      <point x="453" y="360" type="curve"/>
      <point x="317" y="448"/>
      <point x="181" y="536"/>
      <point x="45" y="624" type="curve"/>
      <point x="45" y="516"/>
      <point x="45" y="624"/>
    </contour>
  </outline>
</glyph>
<glyph name="question" format="1">
  <advance width="437"/>
  <unicode hex="003F"/>
  <outline>
    <contour>
      <point x="163" y="373" type="curve"/>
      <point x="163" y="336"/>
      <point x="163" y="258"/>
      <point x="163" y="221" type="curve"/>
      <point x="275" y="221"/>
      <point x="163" y="221"/>
      <point x="275" y="221" type="curve"/>
      <point x="275" y="258"/>
      <point x="275" y="336"/>
      <point x="275" y="373" type="curve"/>
      <point x="163" y="373"/>
      <point x="275" y="373"/>
    </contour>
    <contour>
      <point x="106" y="589" type="line"/>
      <point x="134" y="623"/>
      <point x="157" y="641"/>
      <point x="197" y="641" type="curve"/>
      <point x="260" y="641"/>
      <point x="287" y="586"/>
      <point x="287" y="518" type="curve"/>
      <point x="287" y="436"/>
      <point x="250" y="373"/>
      <point x="176" y="373" type="curve"/>
      <point x="176" y="337"/>
      <point x="175" y="316"/>
      <point x="175" y="280" type="curve"/>
      <point x="319" y="280"/>
      <point x="406" y="375"/>
      <point x="406" y="518" type="curve"/>
      <point x="406" y="656"/>
      <point x="327" y="746"/>
      <point x="202" y="746" type="curve"/>
      <point x="130" y="746"/>
      <point x="76" y="721"/>
      <point x="39" y="670" type="curve"/>
    </contour>
    <contour>
      <point x="284" y="61" type="curve"/>
      <point x="284" y="104"/>
      <point x="256" y="125"/>
      <point x="219" y="125" type="curve"/>
      <point x="181" y="125"/>
      <point x="156" y="102"/>
      <point x="156" y="61" type="curve"/>
      <point x="284" y="61"/>
      <point x="156" y="61"/>
      <point x="284" y="61" type="curve"/>
      <point x="284" y="18"/>
      <point x="257" y="-2"/>
      <point x="219" y="-2" type="curve"/>
      <point x="180" y="-2"/>
      <point x="156" y="19"/>
      <point x="156" y="61" type="curve"/>
      <point x="284" y="61"/>
      <point x="156" y="61"/>
    </contour>
  </outline>
</glyph>
<glyph name="at" format="1">
  <advance width="643"/>
  <unicode hex="0040"/>
  <outline>
    <contour>
      <point x="413" y="-19" type="curve"/>
      <point x="388" y="-39"/>
      <point x="369" y="-47"/>
      <point x="336" y="-47" type="curve"/>
      <point x="211" y="-47"/>
      <point x="147" y="67"/>
      <point x="147" y="210" type="curve"/>
      <point x="147" y="346"/>
      <point x="205" y="456"/>
      <point x="325" y="456" type="curve"/>
      <point x="441" y="456"/>
      <point x="498" y="346"/>
      <point x="498" y="212" type="curve"/>
      <point x="498" y="160"/>
      <point x="500" y="115"/>
      <point x="482" y="115" type="curve"/>
      <point x="467" y="115"/>
      <point x="470" y="159"/>
      <point x="470" y="214" type="curve"/>
      <point x="470" y="323"/>
      <point x="423" y="405"/>
      <point x="323" y="405" type="curve"/>
      <point x="214" y="405"/>
      <point x="178" y="325"/>
      <point x="178" y="211" type="curve"/>
      <point x="178" y="94"/>
      <point x="210" y="10"/>
      <point x="314" y="10" type="curve"/>
      <point x="410" y="10"/>
      <point x="443" y="90"/>
      <point x="453" y="196" type="curve"/>
      <point x="373" y="215"/>
      <point x="453" y="196"/>
      <point x="373" y="215" type="curve"/>
      <point x="365" y="163"/>
      <point x="374" y="107"/>
      <point x="327" y="107" type="curve"/>
      <point x="291" y="107"/>
      <point x="287" y="158"/>
      <point x="287" y="216" type="curve"/>
      <point x="287" y="262"/>
      <point x="284" y="307"/>
      <point x="319" y="307" type="curve"/>
      <point x="363" y="307"/>
      <point x="357" y="260"/>
      <point x="357" y="209" type="curve"/>
      <point x="357" y="105"/>
      <point x="381" y="22"/>
      <point x="473" y="22" type="curve"/>
      <point x="570" y="22"/>
      <point x="601" y="106"/>
      <point x="601" y="217" type="curve"/>
      <point x="601" y="414"/>
      <point x="509" y="558"/>
      <point x="327" y="558" type="curve"/>
      <point x="134" y="558"/>
      <point x="39" y="411"/>
      <point x="39" y="205" type="curve"/>
      <point x="39" y="0"/>
      <point x="140" y="-145"/>
      <point x="331" y="-145" type="curve"/>
      <point x="387" y="-145"/>
      <point x="414" y="-137"/>
      <point x="463" y="-103" type="curve"/>
      <point x="413" y="-19"/>
      <point x="463" y="-103"/>
    </contour>
  </outline>
</glyph>
<glyph name="B" format="1">
  <advance width="498"/>
  <unicode hex="0042"/>
  <outline>
    <contour>
      <point x="130" y="625" type="curve"/>
      <point x="173" y="625"/>
      <point x="196" y="625"/>
      <point x="238" y="625" type="curve"/>
      <point x="290" y="625"/>
      <point x="307" y="587"/>
      <point x="307" y="540" type="curve"/>
      <point x="307" y="493"/>
      <point x="293" y="454"/>
      <point x="247" y="454" type="curve"/>
      <point x="202" y="454"/>
      <point x="175" y="454"/>
      <point x="130" y="454" type="curve"/>
      <point x="130" y="426"/>
      <point x="130" y="383"/>
      <point x="130" y="355" type="curve"/>
      <point x="161" y="355"/>
      <point x="179" y="355"/>
      <point x="210" y="355" type="curve"/>
      <point x="322" y="355"/>
      <point x="430" y="411"/>
      <point x="430" y="534" type="curve"/>
      <point x="430" y="650"/>
      <point x="364" y="722"/>
      <point x="248" y="722" type="curve"/>
      <point x="202" y="722"/>
      <point x="177" y="722"/>
      <point x="130" y="722" type="curve"/>
      <point x="130" y="695"/>
      <point x="130" y="652"/>
    </contour>
    <contour>
      <point x="203" y="0" type="curve"/>
      <point x="203" y="241"/>
      <point x="203" y="481"/>
      <point x="203" y="722" type="curve"/>
      <point x="72" y="722"/>
      <point x="203" y="722"/>
      <point x="72" y="722" type="curve"/>
      <point x="72" y="481"/>
      <point x="73" y="241"/>
      <point x="72" y="0" type="curve"/>
      <point x="203" y="0"/>
      <point x="72" y="0"/>
    </contour>
    <contour>
      <point x="130" y="355" type="curve"/>
      <point x="175" y="355"/>
      <point x="202" y="355"/>
      <point x="247" y="355" type="curve"/>
      <point x="317" y="355"/>
      <point x="338" y="296"/>
      <point x="338" y="225" type="curve"/>
      <point x="338" y="153"/>
      <point x="312" y="97"/>
      <point x="244" y="97" type="curve"/>
      <point x="199" y="97"/>
      <point x="175" y="97"/>
      <point x="130" y="97" type="curve"/>
      <point x="130" y="70"/>
      <point x="130" y="27"/>
      <point x="130" y="0" type="curve"/>
      <point x="179" y="0"/>
      <point x="205" y="0"/>
      <point x="254" y="0" type="curve"/>
      <point x="386" y="0"/>
      <point x="463" y="86"/>
      <point x="463" y="221" type="curve"/>
      <point x="463" y="370"/>
      <point x="359" y="454"/>
      <point x="210" y="454" type="curve"/>
      <point x="179" y="454"/>
      <point x="161" y="454"/>
      <point x="130" y="454" type="curve"/>
      <point x="130" y="426"/>
      <point x="130" y="383"/>
    </contour>
  </outline>
</glyph>
<glyph name="C" format="1">
  <advance width="509"/>
  <unicode hex="0043"/>
  <outline>
    <contour>
      <point x="486" y="654" type="curve"/>
      <point x="436" y="697"/>
      <point x="374" y="727"/>
      <point x="302" y="727" type="curve"/>
      <point x="113" y="727"/>
      <point x="41" y="564"/>
      <point x="41" y="345" type="curve"/>
      <point x="41" y="145"/>
      <point x="112" y="-5"/>
      <point x="291" y="-5" type="curve"/>
      <point x="383" y="-5"/>
      <point x="447" y="31"/>
      <point x="499" y="100" type="curve"/>
      <point x="422" y="171"/>
      <point x="499" y="100"/>
      <point x="422" y="171" type="curve"/>
      <point x="387" y="128"/>
      <point x="354" y="97"/>
      <point x="297" y="97" type="curve"/>
      <point x="184" y="97"/>
      <point x="166" y="213"/>
      <point x="166" y="349" type="curve"/>
      <point x="166" y="498"/>
      <point x="180" y="625"/>
      <point x="298" y="625" type="curve"/>
      <point x="345" y="625"/>
      <point x="386" y="605"/>
      <point x="414" y="577" type="curve"/>
      <point x="486" y="654"/>
      <point x="414" y="577"/>
    </contour>
    <contour>
      <point x="296" y="786" type="move" name="top"/>
    </contour>
    <contour>
      <point x="329" y="3" type="move" name="bottom"/>
    </contour>
  </outline>
</glyph>
<glyph name="D" format="1">
  <advance width="571"/>
  <unicode hex="0044"/>
  <outline>
    <contour>
      <point x="72" y="722" type="curve"/>
      <point x="72" y="481"/>
      <point x="72" y="241"/>
      <point x="72" y="0" type="curve"/>
      <point x="198" y="0"/>
      <point x="72" y="0"/>
      <point x="198" y="0" type="curve"/>
      <point x="198" y="241"/>
      <point x="198" y="481"/>
      <point x="198" y="722" type="curve"/>
      <point x="72" y="722"/>
      <point x="198" y="722"/>
    </contour>
    <contour>
      <point x="136" y="0" type="curve"/>
      <point x="178" y="0"/>
      <point x="218" y="0"/>
      <point x="260" y="0" type="curve"/>
      <point x="454" y="0"/>
      <point x="530" y="143"/>
      <point x="530" y="354" type="curve"/>
      <point x="530" y="572"/>
      <point x="457" y="722"/>
      <point x="258" y="722" type="curve"/>
      <point x="218" y="722"/>
      <point x="178" y="722"/>
      <point x="136" y="722" type="curve"/>
      <point x="136" y="627"/>
      <point x="136" y="720"/>
      <point x="136" y="625" type="curve"/>
      <point x="176" y="625"/>
      <point x="213" y="625"/>
      <point x="253" y="625" type="curve"/>
      <point x="384" y="625"/>
      <point x="405" y="505"/>
      <point x="405" y="353" type="curve"/>
      <point x="405" y="211"/>
      <point x="389" y="97"/>
      <point x="272" y="97" type="curve"/>
      <point x="226" y="97"/>
      <point x="183" y="97"/>
      <point x="136" y="97" type="curve"/>
      <point x="136" y="2"/>
      <point x="136" y="95"/>
    </contour>
    <contour>
      <point x="231" y="786" type="move" name="top"/>
    </contour>
  </outline>
</glyph>
<glyph name="F" format="1">
  <advance width="420"/>
  <unicode hex="0046"/>
  <outline>
    <contour>
      <point x="137" y="323" type="curve"/>
      <point x="208" y="323"/>
      <point x="278" y="323"/>
      <point x="350" y="323" type="curve"/>
      <point x="350" y="422"/>
      <point x="350" y="323"/>
      <point x="350" y="422" type="curve"/>
      <point x="278" y="422"/>
      <point x="208" y="422"/>
      <point x="137" y="422" type="curve"/>
      <point x="137" y="323"/>
      <point x="137" y="422"/>
    </contour>
    <contour>
      <point x="197" y="0" type="curve"/>
      <point x="197" y="722" type="line"/>
      <point x="72" y="722"/>
      <point x="197" y="722"/>
      <point x="72" y="722" type="curve"/>
      <point x="72" y="481"/>
      <point x="72" y="241"/>
      <point x="72" y="0" type="curve"/>
      <point x="197" y="0"/>
      <point x="72" y="0"/>
    </contour>
    <contour>
      <point x="127" y="625" type="curve"/>
      <point x="217" y="625"/>
      <point x="307" y="625"/>
      <point x="398" y="625" type="curve"/>
      <point x="398" y="722"/>
      <point x="398" y="625"/>
      <point x="398" y="722" type="curve"/>
      <point x="307" y="722"/>
      <point x="217" y="722"/>
      <point x="127" y="722" type="curve"/>
      <point x="127" y="625"/>
      <point x="127" y="722"/>
    </contour>
  </outline>
</glyph>
<glyph name="G" format="1">
  <advance width="577"/>
  <unicode hex="0047"/>
  <outline>
    <contour>
      <point x="499" y="363" type="curve"/>
      <point x="451" y="363"/>
      <point x="402" y="363"/>
      <point x="354" y="363" type="curve"/>
      <point x="354" y="265"/>
      <point x="354" y="363"/>
      <point x="354" y="265" type="curve"/>
      <point x="402" y="265"/>
      <point x="451" y="265"/>
      <point x="499" y="265" type="curve"/>
      <point x="499" y="363"/>
      <point x="499" y="265"/>
    </contour>
    <contour>
      <point x="531" y="79" type="curve"/>
      <point x="531" y="173"/>
      <point x="531" y="268"/>
      <point x="531" y="363" type="curve"/>
      <point x="417" y="363"/>
      <point x="531" y="363"/>
      <point x="417" y="363" type="curve"/>
      <point x="417" y="268"/>
      <point x="417" y="173"/>
      <point x="417" y="79" type="curve"/>
      <point x="531" y="79"/>
      <point x="417" y="79"/>
    </contour>
    <contour>
      <point x="521" y="644" type="curve"/>
      <point x="458" y="701"/>
      <point x="394" y="727"/>
      <point x="311" y="727" type="curve"/>
      <point x="120" y="727"/>
      <point x="40" y="573"/>
      <point x="40" y="361" type="curve"/>
      <point x="40" y="148"/>
      <point x="125" y="-5"/>
      <point x="318" y="-5" type="curve"/>
      <point x="406" y="-5"/>
      <point x="461" y="24"/>
      <point x="531" y="79" type="curve"/>
      <point x="469" y="153"/>
      <point x="531" y="79"/>
      <point x="469" y="153" type="curve"/>
      <point x="422" y="115"/>
      <point x="379" y="98"/>
      <point x="318" y="98" type="curve"/>
      <point x="192" y="98"/>
      <point x="165" y="221"/>
      <point x="165" y="370" type="curve"/>
      <point x="165" y="509"/>
      <point x="194" y="625"/>
      <point x="311" y="625" type="curve"/>
      <point x="369" y="625"/>
      <point x="414" y="602"/>
      <point x="455" y="562" type="curve"/>
      <point x="521" y="644"/>
      <point x="455" y="562"/>
    </contour>
    <contour>
      <point x="306" y="786" type="move" name="top"/>
    </contour>
    <contour>
      <point x="349" y="-14" type="move" name="bottom"/>
    </contour>
  </outline>
</glyph>
<glyph name="H" format="1">
  <advance width="593"/>
  <unicode hex="0048"/>
  <outline>
    <contour>
      <point x="197" y="0" type="curve"/>
      <point x="197" y="722" type="line"/>
      <point x="72" y="722"/>
      <point x="197" y="722"/>
      <point x="72" y="722" type="curve"/>
      <point x="72" y="481"/>
      <point x="72" y="241"/>
      <point x="72" y="0" type="curve"/>
      <point x="197" y="0"/>
      <point x="72" y="0"/>
    </contour>
    <contour>
      <point x="457" y="412" type="curve"/>
      <point x="349" y="412"/>
      <point x="242" y="412"/>
      <point x="134" y="412" type="curve"/>
      <point x="134" y="313"/>
      <point x="134" y="412"/>
      <point x="134" y="313" type="curve"/>
      <point x="242" y="313"/>
      <point x="349" y="313"/>
      <point x="457" y="313" type="curve"/>
      <point x="457" y="412"/>
      <point x="457" y="313"/>
    </contour>
    <contour>
      <point x="520" y="0" type="curve"/>
      <point x="520" y="213"/>
      <point x="520" y="509"/>
      <point x="520" y="722" type="curve"/>
      <point x="395" y="722"/>
      <point x="520" y="722"/>
      <point x="395" y="722" type="curve"/>
      <point x="395" y="0" type="line"/>
      <point x="520" y="0"/>
      <point x="395" y="0"/>
    </contour>
  </outline>
</glyph>
<glyph name="J" format="1">
  <advance width="347"/>
  <unicode hex="004A"/>
  <outline>
    <contour>
      <point x="0" y="44" type="curve"/>
      <point x="24" y="22"/>
      <point x="58" y="-4"/>
      <point x="104" y="-4" type="curve"/>
      <point x="231" y="-4"/>
      <point x="280" y="87"/>
      <point x="280" y="242" type="curve"/>
      <point x="280" y="404"/>
      <point x="280" y="559"/>
      <point x="280" y="722" type="curve"/>
      <point x="157" y="722"/>
      <point x="277" y="722"/>
      <point x="155" y="722" type="curve"/>
      <point x="155" y="559"/>
      <point x="155" y="404"/>
      <point x="155" y="242" type="curve"/>
      <point x="155" y="165"/>
      <point x="163" y="96"/>
      <point x="104" y="96" type="curve"/>
      <point x="83" y="96"/>
      <point x="72" y="110"/>
      <point x="58" y="122" type="curve"/>
      <point x="2" y="46"/>
      <point x="56" y="120"/>
    </contour>
  </outline>
</glyph>
<glyph name="K" format="1">
  <advance width="556"/>
  <unicode hex="004B"/>
  <outline>
    <contour>
      <point x="394" y="722" type="curve"/>
      <point x="188" y="380" type="line"/>
      <point x="317" y="380"/>
      <point x="202" y="380"/>
      <point x="331" y="380" type="curve"/>
      <point x="533" y="722" type="line"/>
      <point x="460" y="722"/>
      <point x="467" y="722"/>
    </contour>
    <contour>
      <point x="198" y="0" type="curve"/>
      <point x="198" y="722" type="line"/>
      <point x="72" y="722"/>
      <point x="198" y="722"/>
      <point x="72" y="722" type="curve"/>
      <point x="72" y="481"/>
      <point x="72" y="241"/>
      <point x="72" y="0" type="curve"/>
      <point x="198" y="0"/>
      <point x="72" y="0"/>
    </contour>
    <contour>
      <point x="547" y="0" type="curve"/>
      <point x="331" y="380" type="line"/>
      <point x="202" y="380"/>
      <point x="317" y="380"/>
      <point x="188" y="380" type="curve"/>
      <point x="409" y="0" type="line"/>
      <point x="495" y="0"/>
      <point x="461" y="0"/>
    </contour>
    <contour>
      <point x="296" y="-13" type="move" name="bottom"/>
    </contour>
  </outline>
</glyph>
<glyph name="L" format="1">
  <advance width="424"/>
  <unicode hex="004C"/>
  <outline>
    <contour>
      <point x="198" y="0" type="curve"/>
      <point x="198" y="241"/>
      <point x="198" y="481"/>
      <point x="198" y="722" type="curve"/>
      <point x="72" y="722"/>
      <point x="198" y="722"/>
      <point x="72" y="722" type="curve"/>
      <point x="72" y="481"/>
      <point x="72" y="241"/>
      <point x="72" y="0" type="curve"/>
      <point x="198" y="0"/>
      <point x="72" y="0"/>
    </contour>
    <contour>
      <point x="134" y="0" type="curve"/>
      <point x="227" y="0"/>
      <point x="320" y="0"/>
      <point x="412" y="0" type="curve"/>
      <point x="412" y="97"/>
      <point x="412" y="0"/>
      <point x="412" y="97" type="curve"/>
      <point x="320" y="97"/>
      <point x="227" y="97"/>
      <point x="134" y="97" type="curve"/>
      <point x="134" y="0"/>
      <point x="134" y="97"/>
    </contour>
    <contour>
      <point x="135" y="786" type="move" name="top"/>
    </contour>
    <contour>
      <point x="264" y="-9" type="move" name="bottom"/>
    </contour>
  </outline>
</glyph>
<glyph name="M" format="1">
  <advance width="675"/>
  <unicode hex="004D"/>
  <outline>
    <contour>
      <point x="627" y="0" type="curve"/>
      <point x="613" y="241"/>
      <point x="595" y="481"/>
      <point x="582" y="722" type="curve"/>
      <point x="468" y="722"/>
      <point x="582" y="722"/>
      <point x="468" y="722" type="curve"/>
      <point x="481" y="481"/>
      <point x="489" y="241"/>
      <point x="503" y="0" type="curve"/>
      <point x="627" y="0"/>
      <point x="503" y="0"/>
    </contour>
    <contour>
      <point x="154" y="0" type="curve"/>
      <point x="167" y="241"/>
      <point x="179" y="481"/>
      <point x="191" y="722" type="curve"/>
      <point x="89" y="722"/>
      <point x="191" y="722"/>
      <point x="89" y="722" type="curve"/>
      <point x="76" y="481"/>
      <point x="63" y="241"/>
      <point x="50" y="0" type="curve"/>
      <point x="154" y="0"/>
      <point x="50" y="0"/>
    </contour>
    <contour>
      <point x="378" y="0" type="curve"/>
      <point x="317" y="241"/>
      <point x="254" y="481"/>
      <point x="193" y="722" type="curve"/>
      <point x="91" y="722"/>
      <point x="193" y="722"/>
      <point x="91" y="722" type="curve"/>
      <point x="152" y="481"/>
      <point x="214" y="241"/>
      <point x="275" y="0" type="curve"/>
      <point x="378" y="0"/>
      <point x="275" y="0"/>
    </contour>
    <contour>
      <point x="384" y="0" type="curve"/>
      <point x="445" y="241"/>
      <point x="506" y="481"/>
      <point x="565" y="722" type="curve"/>
      <point x="463" y="722"/>
      <point x="565" y="722"/>
      <point x="463" y="722" type="curve"/>
      <point x="403" y="481"/>
      <point x="341" y="241"/>
      <point x="281" y="0" type="curve"/>
      <point x="385" y="0"/>
      <point x="280" y="0"/>
    </contour>
  </outline>
</glyph>
<glyph name="N" format="1">
  <advance width="623"/>
  <unicode hex="004E"/>
  <outline>
    <contour>
      <point x="552" y="0" type="curve"/>
      <point x="434" y="241"/>
      <point x="315" y="481"/>
      <point x="198" y="722" type="curve"/>
      <point x="72" y="722"/>
      <point x="198" y="722"/>
      <point x="72" y="722" type="curve"/>
      <point x="190" y="481"/>
      <point x="308" y="241"/>
      <point x="426" y="0" type="curve"/>
      <point x="552" y="0"/>
      <point x="426" y="0"/>
    </contour>
    <contour>
      <point x="425" y="722" type="curve"/>
      <point x="425" y="481"/>
      <point x="425" y="241"/>
      <point x="425" y="0" type="curve"/>
      <point x="550" y="0"/>
      <point x="425" y="0"/>
      <point x="550" y="0" type="curve"/>
      <point x="550" y="241"/>
      <point x="550" y="481"/>
      <point x="550" y="722" type="curve"/>
      <point x="425" y="722"/>
      <point x="550" y="722"/>
    </contour>
    <contour>
      <point x="198" y="0" type="curve"/>
      <point x="198" y="241"/>
      <point x="198" y="481"/>
      <point x="198" y="722" type="curve"/>
      <point x="73" y="722"/>
      <point x="198" y="722"/>
      <point x="73" y="722" type="curve"/>
      <point x="73" y="481"/>
      <point x="73" y="241"/>
      <point x="73" y="0" type="curve"/>
      <point x="198" y="0"/>
      <point x="73" y="0"/>
    </contour>
    <contour>
      <point x="313" y="786" type="move" name="top"/>
    </contour>
    <contour>
      <point x="376" y="-13" type="move" name="bottom"/>
    </contour>
  </outline>
</glyph>
<glyph name="P" format="1">
  <advance width="463"/>
  <unicode hex="0050"/>
  <outline>
    <contour>
      <point x="117" y="303" type="curve"/>
      <point x="161" y="273"/>
      <point x="206" y="257"/>
      <point x="262" y="257" type="curve"/>
      <point x="371" y="259"/>
      <point x="436" y="346"/>
      <point x="436" y="477" type="curve"/>
      <point x="436" y="617"/>
      <point x="361" y="722"/>
      <point x="229" y="722" type="curve"/>
      <point x="199" y="722"/>
      <point x="168" y="722"/>
      <point x="138" y="722" type="curve"/>
      <point x="138" y="625"/>
      <point x="138" y="722"/>
      <point x="138" y="625" type="curve"/>
      <point x="163" y="625"/>
      <point x="187" y="625"/>
      <point x="213" y="625" type="curve"/>
      <point x="282" y="625"/>
      <point x="311" y="558"/>
      <point x="311" y="481" type="curve"/>
      <point x="311" y="412"/>
      <point x="299" y="350"/>
      <point x="244" y="350" type="curve"/>
      <point x="208" y="350"/>
      <point x="186" y="362"/>
      <point x="156" y="383" type="curve"/>
      <point x="118" y="306"/>
      <point x="156" y="383"/>
    </contour>
    <contour>
      <point x="198" y="0" type="curve"/>
      <point x="198" y="241"/>
      <point x="198" y="481"/>
      <point x="198" y="722" type="curve"/>
      <point x="72" y="722"/>
      <point x="198" y="722"/>
      <point x="72" y="722" type="curve"/>
      <point x="72" y="481"/>
      <point x="72" y="241"/>
      <point x="72" y="0" type="curve"/>
      <point x="198" y="0"/>
      <point x="72" y="0"/>
    </contour>
  </outline>
</glyph>
<glyph name="Q" format="1">
  <advance width="591"/>
  <unicode hex="0051"/>
  <outline>
    <contour>
      <point x="248" y="24" type="curve"/>
      <point x="310" y="-137"/>
      <point x="404" y="-215"/>
      <point x="564" y="-215" type="curve"/>
      <point x="564" y="-112"/>
      <point x="564" y="-215"/>
      <point x="564" y="-112" type="curve"/>
      <point x="453" y="-112"/>
      <point x="399" y="-42"/>
      <point x="355" y="73" type="curve"/>
      <point x="248" y="24"/>
      <point x="355" y="73"/>
    </contour>
    <contour>
      <point x="166" y="360" type="curve"/>
      <point x="166" y="496"/>
      <point x="178" y="619"/>
      <point x="292" y="619" type="curve"/>
      <point x="406" y="619"/>
      <point x="426" y="498"/>
      <point x="426" y="360" type="curve"/>
      <point x="426" y="224"/>
      <point x="414" y="97"/>
      <point x="300" y="97" type="curve"/>
      <point x="184" y="98"/>
      <point x="166" y="222"/>
      <point x="166" y="360" type="curve"/>
      <point x="41" y="360"/>
      <point x="166" y="360"/>
      <point x="41" y="360" type="curve"/>
      <point x="41" y="158"/>
      <point x="114" y="-5"/>
      <point x="294" y="-5" type="curve"/>
      <point x="478" y="-5"/>
      <point x="551" y="161"/>
      <point x="551" y="366" type="curve"/>
      <point x="551" y="567"/>
      <point x="482" y="731"/>
      <point x="302" y="731" type="curve"/>
      <point x="118" y="731"/>
      <point x="41" y="565"/>
      <point x="41" y="360" type="curve"/>
      <point x="166" y="360"/>
      <point x="41" y="360"/>
    </contour>
  </outline>
</glyph>
<glyph name="S" format="1">
  <advance width="427"/>
  <unicode hex="0053"/>
  <outline>
    <contour>
      <point x="42" y="54" type="curve"/>
      <point x="91" y="13"/>
      <point x="135" y="-5"/>
      <point x="199" y="-5" type="curve"/>
      <point x="318" y="-5"/>
      <point x="401" y="71"/>
      <point x="401" y="191" type="curve"/>
      <point x="401" y="295"/>
      <point x="338" y="358"/>
      <point x="249" y="415" type="curve"/>
      <point x="198" y="449"/>
      <point x="159" y="492"/>
      <point x="159" y="542" type="curve"/>
      <point x="156" y="583"/>
      <point x="175" y="624"/>
      <point x="211" y="624" type="curve"/>
      <point x="249" y="624"/>
      <point x="278" y="600"/>
      <point x="300" y="583" type="curve"/>
      <point x="357" y="660"/>
      <point x="301" y="585"/>
      <point x="358" y="661" type="curve"/>
      <point x="312" y="701"/>
      <point x="272" y="717"/>
      <point x="213" y="717" type="curve"/>
      <point x="104" y="717"/>
      <point x="34" y="646"/>
      <point x="34" y="538" type="curve"/>
      <point x="34" y="439"/>
      <point x="91" y="373"/>
      <point x="173" y="321" type="curve"/>
      <point x="229" y="285"/>
      <point x="276" y="241"/>
      <point x="276" y="191" type="curve"/>
      <point x="276" y="150"/>
      <point x="250" y="98"/>
      <point x="206" y="98" type="curve"/>
      <point x="165" y="98"/>
      <point x="144" y="120"/>
      <point x="113" y="147" type="curve"/>
      <point x="44" y="56"/>
      <point x="112" y="145"/>
    </contour>
    <contour>
      <point x="213" y="786" type="move" name="top"/>
    </contour>
    <contour>
      <point x="255" y="-6" type="move" name="bottom"/>
    </contour>
  </outline>
</glyph>
<glyph name="T" format="1">
  <advance width="432"/>
  <unicode hex="0054"/>
  <outline>
    <contour>
      <point x="279" y="0" type="curve"/>
      <point x="279" y="237"/>
      <point x="279" y="473"/>
      <point x="279" y="710" type="curve"/>
      <point x="153" y="710"/>
      <point x="279" y="710"/>
      <point x="153" y="710" type="curve"/>
      <point x="152" y="473"/>
      <point x="153" y="237"/>
      <point x="153" y="0" type="curve"/>
      <point x="279" y="0"/>
      <point x="153" y="0"/>
    </contour>
    <contour>
      <point x="12" y="618" type="curve"/>
      <point x="147" y="618"/>
      <point x="284" y="618"/>
      <point x="420" y="618" type="curve"/>
      <point x="420" y="726"/>
      <point x="420" y="614"/>
      <point x="420" y="722" type="curve"/>
      <point x="284" y="722"/>
      <point x="147" y="722"/>
      <point x="12" y="722" type="curve"/>
      <point x="12" y="614"/>
      <point x="12" y="726"/>
    </contour>
    <contour>
      <point x="216" y="786" type="move" name="top"/>
    </contour>
    <contour>
      <point x="274" y="-12" type="move" name="bottom"/>
    </contour>
  </outline>
</glyph>
<glyph name="V" format="1">
  <advance width="512"/>
  <unicode hex="0056"/>
  <outline>
    <contour>
      <point x="378" y="722" type="curve"/>
      <point x="321" y="480"/>
      <point x="265" y="242"/>
      <point x="210" y="0" type="curve"/>
      <point x="338" y="0"/>
      <point x="194" y="0"/>
      <point x="322" y="0" type="curve"/>
      <point x="383" y="241"/>
      <point x="444" y="481"/>
      <point x="505" y="722" type="curve"/>
      <point x="378" y="722"/>
      <point x="505" y="722"/>
    </contour>
    <contour>
      <point x="5" y="722" type="curve"/>
      <point x="66" y="481"/>
      <point x="128" y="241"/>
      <point x="190" y="0" type="curve"/>
      <point x="318" y="0"/>
      <point x="177" y="0"/>
      <point x="305" y="0" type="curve"/>
      <point x="249" y="242"/>
      <point x="192" y="482"/>
      <point x="133" y="722" type="curve"/>
      <point x="5" y="722"/>
      <point x="133" y="722"/>
    </contour>
  </outline>
</glyph>
<glyph name="W" format="1">
  <advance width="649"/>
  <unicode hex="0057"/>
  <outline>
    <contour>
      <point x="246" y="0" type="curve"/>
      <point x="291" y="241"/>
      <point x="335" y="481"/>
      <point x="379" y="722" type="curve"/>
      <point x="277" y="722"/>
      <point x="379" y="722"/>
      <point x="277" y="722" type="curve"/>
      <point x="236" y="482"/>
      <point x="197" y="243"/>
      <point x="156" y="0" type="curve"/>
      <point x="254" y="0"/>
      <point x="148" y="0"/>
    </contour>
    <contour>
      <point x="280" y="722" type="curve"/>
      <point x="320" y="481"/>
      <point x="360" y="241"/>
      <point x="401" y="0" type="curve"/>
      <point x="499" y="0"/>
      <point x="389" y="0"/>
      <point x="487" y="0" type="curve"/>
      <point x="451" y="245"/>
      <point x="418" y="481"/>
      <point x="383" y="722" type="curve"/>
      <point x="281" y="722"/>
      <point x="382" y="722"/>
    </contour>
    <contour>
      <point x="23" y="722" type="curve"/>
      <point x="63" y="481"/>
      <point x="104" y="241"/>
      <point x="143" y="0" type="curve"/>
      <point x="242" y="0"/>
      <point x="145" y="0"/>
      <point x="244" y="0" type="curve"/>
      <point x="205" y="241"/>
      <point x="165" y="481"/>
      <point x="128" y="722" type="curve"/>
      <point x="23" y="722"/>
      <point x="128" y="722"/>
    </contour>
    <contour>
      <point x="524" y="722" type="curve"/>
      <point x="485" y="481"/>
      <point x="443" y="241"/>
      <point x="402" y="0" type="curve"/>
      <point x="501" y="0"/>
      <point x="404" y="0"/>
      <point x="503" y="0" type="curve"/>
      <point x="545" y="241"/>
      <point x="587" y="481"/>
      <point x="629" y="722" type="curve"/>
      <point x="524" y="722"/>
      <point x="629" y="722"/>
    </contour>
  </outline>
</glyph>
<glyph name="X" format="1">
  <advance width="465"/>
  <unicode hex="0058"/>
  <outline>
    <contour>
      <point x="332" y="722" type="curve"/>
      <point x="221" y="479"/>
      <point x="116" y="243"/>
      <point x="4" y="0" type="curve"/>
      <point x="128" y="0"/>
      <point x="-2" y="0"/>
      <point x="121" y="0" type="curve"/>
      <point x="232" y="243"/>
      <point x="337" y="479"/>
      <point x="448" y="722" type="curve"/>
      <point x="326" y="722"/>
      <point x="454" y="722"/>
    </contour>
    <contour>
      <point x="16" y="722" type="curve"/>
      <point x="126" y="479"/>
      <point x="231" y="243"/>
      <point x="341" y="0" type="curve"/>
      <point x="463" y="0"/>
      <point x="337" y="0"/>
      <point x="459" y="0" type="curve"/>
      <point x="349" y="242"/>
      <point x="243" y="480"/>
      <point x="133" y="722" type="curve"/>
      <point x="11" y="722"/>
      <point x="138" y="722"/>
    </contour>
  </outline>
</glyph>
<glyph name="Y" format="1">
  <advance width="456"/>
  <unicode hex="0059"/>
  <outline>
    <contour>
      <point x="10" y="722" type="curve"/>
      <point x="64" y="592"/>
      <point x="106" y="471"/>
      <point x="158" y="337" type="curve"/>
      <point x="285" y="337"/>
      <point x="136" y="337"/>
      <point x="263" y="337" type="curve"/>
      <point x="221" y="470"/>
      <point x="181" y="591"/>
      <point x="135" y="722" type="curve"/>
      <point x="4" y="722"/>
      <point x="142" y="722"/>
    </contour>
    <contour>
      <point x="327" y="722" type="curve"/>
      <point x="276" y="589"/>
      <point x="233" y="469"/>
      <point x="181" y="337" type="curve"/>
      <point x="308" y="337"/>
      <point x="169" y="337"/>
      <point x="296" y="337" type="curve"/>
      <point x="351" y="470"/>
      <point x="398" y="592"/>
      <point x="454" y="722" type="curve"/>
      <point x="322" y="722"/>
      <point x="458" y="722"/>
    </contour>
    <contour>
      <point x="295" y="0" type="curve"/>
      <point x="295" y="115"/>
      <point x="295" y="222"/>
      <point x="295" y="337" type="curve"/>
      <point x="159" y="337"/>
      <point x="295" y="337"/>
      <point x="159" y="337" type="curve"/>
      <point x="159" y="222"/>
      <point x="159" y="115"/>
      <point x="159" y="0" type="curve"/>
      <point x="295" y="0"/>
      <point x="159" y="0"/>
    </contour>
    <contour>
      <point x="232" y="786" type="move" name="top"/>
    </contour>
  </outline>
</glyph>
<glyph name="bracketleft" format="1">
  <advance width="257"/>
  <unicode hex="005B"/>
  <outline>
    <contour>
      <point x="219" y="769" type="curve"/>
      <point x="186" y="769"/>
      <point x="152" y="769"/>
      <point x="119" y="769" type="curve"/>
      <point x="106" y="769"/>
      <point x="73" y="769"/>
      <point x="60" y="769" type="curve"/>
      <point x="60" y="754"/>
      <point x="60" y="736"/>
      <point x="60" y="721" type="curve"/>
      <point x="60" y="458"/>
      <point x="60" y="196"/>
      <point x="60" y="-68" type="curve"/>
      <point x="60" y="-83"/>
      <point x="60" y="-93"/>
      <point x="60" y="-115" type="curve"/>
      <point x="73" y="-115"/>
      <point x="104" y="-115"/>
      <point x="118" y="-115" type="curve"/>
      <point x="151" y="-115"/>
      <point x="186" y="-115"/>
      <point x="219" y="-115" type="curve"/>
      <point x="219" y="-6"/>
      <point x="219" y="-115"/>
      <point x="219" y="-6" type="curve"/>
      <point x="186" y="-6"/>
      <point x="151" y="-6"/>
      <point x="118" y="-6" type="curve"/>
      <point x="185" y="-6"/>
      <point x="118" y="-6"/>
      <point x="185" y="-6" type="curve"/>
      <point x="185" y="-68"/>
      <point x="185" y="-6"/>
      <point x="185" y="-68" type="curve"/>
      <point x="185" y="196"/>
      <point x="185" y="458"/>
      <point x="185" y="721" type="curve"/>
      <point x="185" y="662"/>
      <point x="185" y="721"/>
      <point x="185" y="662" type="curve"/>
      <point x="119" y="662"/>
      <point x="185" y="662"/>
      <point x="119" y="662" type="curve"/>
      <point x="152" y="662"/>
      <point x="186" y="662"/>
      <point x="219" y="662" type="curve"/>
      <point x="219" y="769"/>
      <point x="219" y="662"/>
    </contour>
  </outline>
</glyph>
<glyph name="backslash" format="1">
  <advance width="430"/>
  <unicode hex="005C"/>
  <outline>
    <contour>
      <point x="409" y="-68" type="curve"/>
      <point x="323" y="236"/>
      <point x="237" y="540"/>
      <point x="151" y="844" type="curve"/>
      <point x="21" y="844"/>
      <point x="151" y="844"/>
      <point x="21" y="844" type="curve"/>
      <point x="107" y="540"/>
      <point x="193" y="236"/>
      <point x="279" y="-68" type="curve"/>
      <point x="409" y="-68"/>
      <point x="279" y="-68"/>
    </contour>
  </outline>
</glyph>
<glyph name="bracketright" format="1">
  <advance width="258"/>
  <unicode hex="005D"/>
  <outline>
    <contour>
      <point x="39" y="662" type="curve"/>
      <point x="73" y="662"/>
      <point x="106" y="662"/>
      <point x="139" y="662" type="curve"/>
      <point x="129" y="673"/>
      <point x="111" y="673"/>
      <point x="101" y="685" type="curve"/>
      <point x="92" y="697"/>
      <point x="82" y="709"/>
      <point x="73" y="721" type="curve"/>
      <point x="73" y="458"/>
      <point x="72" y="196"/>
      <point x="73" y="-68" type="curve"/>
      <point x="82" y="-55"/>
      <point x="94" y="-45"/>
      <point x="105" y="-33" type="curve"/>
      <point x="114" y="-21"/>
      <point x="131" y="-19"/>
      <point x="140" y="-6" type="curve"/>
      <point x="107" y="-6"/>
      <point x="73" y="-6"/>
      <point x="39" y="-6" type="curve"/>
      <point x="38" y="-115"/>
      <point x="39" y="-6"/>
      <point x="38" y="-115" type="curve"/>
      <point x="73" y="-115"/>
      <point x="107" y="-115"/>
      <point x="140" y="-115" type="curve"/>
      <point x="198" y="-115"/>
      <point x="140" y="-115"/>
      <point x="198" y="-115" type="curve"/>
      <point x="198" y="-68"/>
      <point x="198" y="-115"/>
      <point x="198" y="-68" type="curve"/>
      <point x="197" y="196"/>
      <point x="198" y="458"/>
      <point x="198" y="721" type="curve"/>
      <point x="198" y="769"/>
      <point x="198" y="721"/>
      <point x="198" y="769" type="curve"/>
      <point x="139" y="769"/>
      <point x="198" y="769"/>
      <point x="139" y="769" type="curve"/>
      <point x="106" y="769"/>
      <point x="73" y="769"/>
      <point x="39" y="769" type="curve"/>
      <point x="39" y="662"/>
      <point x="39" y="769"/>
    </contour>
  </outline>
</glyph>
<glyph name="asciicircum" format="1">
  <advance width="420"/>
  <unicode hex="005E"/>
  <outline>
    <contour>
      <point x="158" y="455" type="curve"/>
      <point x="195" y="558"/>
      <point x="234" y="660"/>
      <point x="273" y="762" type="curve"/>
      <point x="148" y="762"/>
      <point x="273" y="762"/>
      <point x="148" y="762" type="curve"/>
      <point x="109" y="660"/>
      <point x="70" y="558"/>
      <point x="32" y="455" type="curve"/>
      <point x="158" y="455"/>
      <point x="32" y="455"/>
    </contour>
    <contour>
      <point x="388" y="455" type="curve"/>
      <point x="350" y="555"/>
      <point x="310" y="660"/>
      <point x="273" y="762" type="curve"/>
      <point x="148" y="762"/>
      <point x="273" y="762"/>
      <point x="148" y="762" type="curve"/>
      <point x="185" y="660"/>
      <point x="225" y="555"/>
      <point x="263" y="455" type="curve"/>
      <point x="388" y="455"/>
      <point x="263" y="455"/>
    </contour>
  </outline>
</glyph>
<glyph name="grave" format="1">
  <advance width="346"/>
  <unicode hex="0060"/>
  <outline>
    <contour>
      <point x="245" y="599" type="line"/>
      <point x="174" y="765" type="line"/>
      <point x="23" y="765" type="line"/>
      <point x="129" y="599" type="line"/>
    </contour>
    <contour>
      <point x="188" y="598" type="move" name="_top"/>
    </contour>
  </outline>
</glyph>
<glyph name="b" format="1">
  <advance width="499"/>
  <unicode hex="0062"/>
  <outline>
    <contour>
      <point x="158" y="362" type="curve"/>
      <point x="174" y="389"/>
      <point x="211" y="436"/>
      <point x="260" y="436" type="curve"/>
      <point x="332" y="436"/>
      <point x="339" y="350"/>
      <point x="339" y="262" type="curve"/>
      <point x="340" y="178"/>
      <point x="329" y="97"/>
      <point x="262" y="97" type="curve"/>
      <point x="222" y="97"/>
      <point x="193" y="119"/>
      <point x="166" y="156" type="curve"/>
      <point x="97" y="109"/>
      <point x="175" y="160"/>
      <point x="105" y="114" type="curve"/>
      <point x="142" y="47"/>
      <point x="190" y="-5"/>
      <point x="273" y="-5" type="curve"/>
      <point x="400" y="-5"/>
      <point x="463" y="118"/>
      <point x="464" y="268" type="curve"/>
      <point x="464" y="416"/>
      <point x="403" y="538"/>
      <point x="277" y="538" type="curve"/>
      <point x="189" y="538"/>
      <point x="134" y="463"/>
      <point x="106" y="401" type="curve"/>
      <point x="163" y="356"/>
      <point x="101" y="407"/>
    </contour>
    <contour>
      <point x="185" y="0" type="curve"/>
      <point x="185" y="262"/>
      <point x="185" y="538"/>
      <point x="185" y="800" type="curve"/>
      <point x="48" y="800"/>
      <point x="198" y="800"/>
      <point x="60" y="800" type="curve"/>
      <point x="60" y="538"/>
      <point x="60" y="262"/>
      <point x="60" y="0" type="curve"/>
      <point x="198" y="0"/>
      <point x="48" y="0"/>
    </contour>
  </outline>
</glyph>
<glyph name="c" format="1">
  <advance width="413"/>
  <unicode hex="0063"/>
  <outline>
    <contour>
      <point x="385" y="470" type="curve"/>
      <point x="348" y="507"/>
      <point x="298" y="538"/>
      <point x="243" y="538" type="curve"/>
      <point x="100" y="538"/>
      <point x="36" y="429"/>
      <point x="36" y="267" type="curve"/>
      <point x="36" y="106"/>
      <point x="97" y="-5"/>
      <point x="242" y="-5" type="curve"/>
      <point x="305" y="-5"/>
      <point x="364" y="26"/>
      <point x="397" y="98" type="curve"/>
      <point x="311" y="153"/>
      <point x="397" y="98"/>
      <point x="311" y="153" type="curve"/>
      <point x="296" y="128"/>
      <point x="277" y="97"/>
      <point x="248" y="97" type="curve"/>
      <point x="172" y="97"/>
      <point x="161" y="174"/>
      <point x="161" y="267" type="curve"/>
      <point x="161" y="359"/>
      <point x="170" y="436"/>
      <point x="243" y="436" type="curve"/>
      <point x="269" y="436"/>
      <point x="293" y="420"/>
      <point x="308" y="402" type="curve"/>
      <point x="385" y="470"/>
      <point x="308" y="402"/>
    </contour>
    <contour>
      <point x="237" y="618" type="move" name="top"/>
    </contour>
    <contour>
      <point x="278" y="4" type="move" name="bottom"/>
    </contour>
  </outline>
</glyph>
<glyph name="d" format="1">
  <advance width="508"/>
  <unicode hex="0064"/>
  <outline>
    <contour>
      <point x="383" y="457" type="curve"/>
      <point x="346" y="508"/>
      <point x="297" y="533"/>
      <point x="231" y="533" type="curve"/>
      <point x="91" y="533"/>
      <point x="36" y="407"/>
      <point x="36" y="262" type="curve"/>
      <point x="36" y="121"/>
      <point x="96" y="0"/>
      <point x="227" y="0" type="curve"/>
      <point x="300" y="0"/>
      <point x="352" y="37"/>
      <point x="382" y="108" type="curve"/>
      <point x="341" y="179"/>
      <point x="384" y="108"/>
      <point x="342" y="179" type="curve"/>
      <point x="324" y="135"/>
      <point x="299" y="97"/>
      <point x="253" y="97" type="curve"/>
      <point x="177" y="97"/>
      <point x="161" y="181"/>
      <point x="161" y="268" type="curve"/>
      <point x="161" y="354"/>
      <point x="181" y="436"/>
      <point x="257" y="436" type="curve"/>
      <point x="296" y="436"/>
      <point x="321" y="414"/>
      <point x="341" y="382" type="curve"/>
      <point x="382" y="458"/>
      <point x="342" y="380"/>
    </contour>
    <contour>
      <point x="447" y="0" type="curve"/>
      <point x="447" y="267"/>
      <point x="447" y="533"/>
      <point x="447" y="800" type="curve"/>
      <point x="317" y="800"/>
      <point x="447" y="800"/>
      <point x="317" y="800" type="curve"/>
      <point x="317" y="533"/>
      <point x="317" y="267"/>
      <point x="317" y="0" type="curve"/>
      <point x="447" y="0"/>
      <point x="317" y="0"/>
    </contour>
  </outline>
</glyph>
<glyph name="e" format="1">
  <advance width="444"/>
  <unicode hex="0065"/>
  <outline>
    <contour>
      <point x="99" y="233" type="curve"/>
      <point x="185" y="233"/>
      <point x="271" y="233"/>
      <point x="357" y="233" type="curve"/>
      <point x="410" y="233"/>
      <point x="357" y="233"/>
      <point x="410" y="233" type="curve"/>
      <point x="410" y="276"/>
      <point x="410" y="233"/>
      <point x="410" y="276" type="curve"/>
      <point x="410" y="283"/>
      <point x="410" y="289"/>
      <point x="410" y="296" type="curve"/>
      <point x="410" y="438"/>
      <point x="358" y="538"/>
      <point x="231" y="538" type="curve"/>
      <point x="94" y="538"/>
      <point x="36" y="432"/>
      <point x="36" y="278" type="curve"/>
      <point x="36" y="113"/>
      <point x="97" y="-5"/>
      <point x="244" y="-5" type="curve"/>
      <point x="307" y="-5"/>
      <point x="347" y="24"/>
      <point x="393" y="75" type="curve"/>
      <point x="314" y="142"/>
      <point x="393" y="75"/>
      <point x="314" y="142" type="curve"/>
      <point x="295" y="115"/>
      <point x="277" y="98"/>
      <point x="245" y="98" type="curve"/>
      <point x="164" y="98"/>
      <point x="160" y="181"/>
      <point x="160" y="278" type="curve"/>
      <point x="160" y="362"/>
      <point x="157" y="436"/>
      <point x="225" y="436" type="curve"/>
      <point x="284" y="436"/>
      <point x="291" y="375"/>
      <point x="291" y="303" type="curve"/>
      <point x="291" y="293"/>
      <point x="291" y="284"/>
      <point x="291" y="274" type="curve"/>
      <point x="302" y="285"/>
      <point x="313" y="294"/>
      <point x="323" y="305" type="curve"/>
      <point x="332" y="315"/>
      <point x="348" y="314"/>
      <point x="357" y="326" type="curve"/>
      <point x="271" y="326"/>
      <point x="185" y="326"/>
      <point x="99" y="326" type="curve"/>
      <point x="99" y="228"/>
      <point x="99" y="330"/>
    </contour>
    <contour>
      <point x="235" y="618" type="move" name="top"/>
    </contour>
    <contour>
      <point x="296" y="10" type="move" name="bottom"/>
    </contour>
  </outline>
</glyph>
<glyph name="f" format="1">
  <advance width="320"/>
  <unicode hex="0066"/>
  <outline>
    <contour>
      <point x="23" y="436" type="curve"/>
      <point x="300" y="436" type="line"/>
      <point x="300" y="533"/>
      <point x="300" y="436"/>
      <point x="300" y="533" type="curve"/>
      <point x="23" y="533" type="line"/>
      <point x="23" y="436"/>
      <point x="23" y="533"/>
    </contour>
    <contour>
      <point x="209" y="0" type="curve"/>
      <point x="209" y="609" type="line"/>
      <point x="210" y="661"/>
      <point x="203" y="712"/>
      <point x="247" y="712" type="curve"/>
      <point x="263" y="712"/>
      <point x="276" y="702"/>
      <point x="289" y="693" type="curve"/>
      <point x="340" y="771"/>
      <point x="289" y="693"/>
      <point x="340" y="771" type="curve"/>
      <point x="314" y="791"/>
      <point x="281" y="806"/>
      <point x="247" y="806" type="curve"/>
      <point x="140" y="806"/>
      <point x="84" y="722"/>
      <point x="85" y="609" type="curve"/>
      <point x="85" y="0" type="line"/>
      <point x="209" y="0"/>
      <point x="85" y="0"/>
    </contour>
  </outline>
</glyph>
<glyph name="g" format="1">
  <advance width="442"/>
  <unicode hex="0067"/>
  <outline>
    <contour>
      <point x="317" y="434" type="curve"/>
      <point x="410" y="491" type="line"/>
      <point x="408" y="494"/>
      <point x="360" y="576"/>
      <point x="358" y="579" type="curve"/>
      <point x="247" y="514" type="line"/>
      <point x="317" y="434"/>
      <point x="247" y="514"/>
    </contour>
    <contour>
      <point x="171" y="339" type="curve"/>
      <point x="171" y="389"/>
      <point x="182" y="440"/>
      <point x="224" y="440" type="curve"/>
      <point x="267" y="440"/>
      <point x="274" y="389"/>
      <point x="274" y="338" type="curve"/>
      <point x="274" y="292"/>
      <point x="266" y="244"/>
      <point x="223" y="244" type="curve"/>
      <point x="185" y="244"/>
      <point x="171" y="291"/>
      <point x="171" y="339" type="curve"/>
      <point x="46" y="334"/>
      <point x="171" y="339"/>
      <point x="46" y="334" type="curve"/>
      <point x="46" y="226"/>
      <point x="112" y="147"/>
      <point x="219" y="147" type="curve"/>
      <point x="329" y="147"/>
      <point x="399" y="228"/>
      <point x="399" y="342" type="curve"/>
      <point x="399" y="453"/>
      <point x="332" y="537"/>
      <point x="224" y="537" type="curve"/>
      <point x="112" y="537"/>
      <point x="46" y="450"/>
      <point x="46" y="334" type="curve"/>
      <point x="171" y="339"/>
      <point x="46" y="334"/>
    </contour>
    <contour>
      <point x="129" y="243" type="curve"/>
      <point x="80" y="209"/>
      <point x="49" y="170"/>
      <point x="49" y="111" type="curve"/>
      <point x="49" y="25"/>
      <point x="118" y="-21"/>
      <point x="209" y="-31" type="curve"/>
      <point x="269" y="-38"/>
      <point x="318" y="-61"/>
      <point x="318" y="-123" type="curve"/>
      <point x="318" y="-178"/>
      <point x="277" y="-208"/>
      <point x="222" y="-208" type="curve"/>
      <point x="170" y="-208"/>
      <point x="139" y="-165"/>
      <point x="139" y="-109" type="curve"/>
      <point x="139" y="-62"/>
      <point x="149" y="-17"/>
      <point x="188" y="4" type="curve"/>
      <point x="125" y="63"/>
      <point x="188" y="4"/>
      <point x="125" y="63" type="curve"/>
      <point x="55" y="26"/>
      <point x="14" y="-32"/>
      <point x="14" y="-113" type="curve"/>
      <point x="14" y="-230"/>
      <point x="98" y="-305"/>
      <point x="217" y="-305" type="curve"/>
      <point x="340" y="-305"/>
      <point x="433" y="-231"/>
      <point x="431" y="-113" type="curve"/>
      <point x="431" y="-5"/>
      <point x="343" y="50"/>
      <point x="232" y="62" type="curve"/>
      <point x="198" y="65"/>
      <point x="174" y="86"/>
      <point x="174" y="121" type="curve"/>
      <point x="174" y="146"/>
      <point x="178" y="161"/>
      <point x="195" y="179" type="curve"/>
      <point x="129" y="243"/>
      <point x="195" y="179"/>
    </contour>
    <contour>
      <point x="224" y="618" type="move" name="top"/>
    </contour>
  </outline>
</glyph>
<glyph name="h" format="1">
  <advance width="486"/>
  <unicode hex="0068"/>
  <outline>
    <contour>
      <point x="157" y="312" type="curve"/>
      <point x="172" y="368"/>
      <point x="198" y="436"/>
      <point x="253" y="436" type="curve"/>
      <point x="311" y="436"/>
      <point x="306" y="379"/>
      <point x="306" y="315" type="curve"/>
      <point x="306" y="210"/>
      <point x="306" y="105"/>
      <point x="306" y="0" type="curve"/>
      <point x="431" y="0"/>
      <point x="306" y="0"/>
      <point x="431" y="0" type="curve"/>
      <point x="431" y="107"/>
      <point x="431" y="215"/>
      <point x="431" y="323" type="curve"/>
      <point x="431" y="441"/>
      <point x="407" y="533"/>
      <point x="292" y="533" type="curve"/>
      <point x="208" y="533"/>
      <point x="145" y="453"/>
      <point x="130" y="363" type="curve"/>
      <point x="157" y="314"/>
      <point x="130" y="362"/>
    </contour>
    <contour>
      <point x="185" y="0" type="curve"/>
      <point x="185" y="267"/>
      <point x="185" y="533"/>
      <point x="185" y="800" type="curve"/>
      <point x="60" y="800"/>
      <point x="185" y="800"/>
      <point x="60" y="800" type="curve"/>
      <point x="60" y="533"/>
      <point x="60" y="267"/>
      <point x="60" y="0" type="curve"/>
      <point x="185" y="0"/>
      <point x="60" y="0"/>
    </contour>
  </outline>
</glyph>
<glyph name="i" format="1">
  <advance width="237"/>
  <unicode hex="0069"/>
  <outline>
    <contour>
      <point x="185" y="0" type="curve"/>
      <point x="185" y="178"/>
      <point x="185" y="355"/>
      <point x="185" y="533" type="curve"/>
      <point x="54" y="533"/>
      <point x="185" y="533"/>
      <point x="54" y="533" type="curve"/>
      <point x="54" y="355"/>
      <point x="54" y="178"/>
      <point x="54" y="0" type="curve"/>
      <point x="185" y="0"/>
      <point x="54" y="0"/>
    </contour>
    <contour>
      <point x="179" y="678" type="curve"/>
      <point x="179" y="721"/>
      <point x="152" y="743"/>
      <point x="114" y="743" type="curve"/>
      <point x="76" y="743"/>
      <point x="51" y="719"/>
      <point x="51" y="678" type="curve"/>
      <point x="180" y="678"/>
      <point x="51" y="678"/>
      <point x="179" y="678" type="curve"/>
      <point x="179" y="635"/>
      <point x="153" y="615"/>
      <point x="115" y="615" type="curve"/>
      <point x="75" y="615"/>
      <point x="51" y="636"/>
      <point x="51" y="678" type="curve"/>
      <point x="180" y="678"/>
      <point x="51" y="678"/>
    </contour>
    <contour>
      <point x="115" y="619" type="move" name="top"/>
    </contour>
    <contour>
      <point x="176" y="2" type="move" name="bottom"/>
    </contour>
  </outline>
</glyph>
<glyph name="j" format="1">
  <advance width="216"/>
  <unicode hex="006A"/>
  <outline>
    <contour>
      <point x="-15" y="-304" type="curve"/>
      <point x="-7" y="-305"/>
      <point x="2" y="-305"/>
      <point x="10" y="-305" type="curve"/>
      <point x="110" y="-305"/>
      <point x="172" y="-226"/>
      <point x="172" y="-123" type="curve"/>
      <point x="172" y="96"/>
      <point x="172" y="315"/>
      <point x="172" y="534" type="curve"/>
      <point x="47" y="534"/>
      <point x="172" y="534"/>
      <point x="47" y="534" type="curve"/>
      <point x="47" y="315"/>
      <point x="47" y="96"/>
      <point x="47" y="-123" type="curve"/>
      <point x="47" y="-164"/>
      <point x="50" y="-211"/>
      <point x="15" y="-211" type="curve"/>
      <point x="11" y="-211"/>
      <point x="10" y="-211"/>
      <point x="3" y="-210" type="curve"/>
      <point x="-14" y="-303"/>
      <point x="3" y="-211"/>
    </contour>
    <contour>
      <point x="171" y="670" type="curve"/>
      <point x="171" y="713"/>
      <point x="144" y="735"/>
      <point x="106" y="735" type="curve"/>
      <point x="68" y="735"/>
      <point x="43" y="711"/>
      <point x="43" y="670" type="curve"/>
      <point x="172" y="670"/>
      <point x="43" y="670"/>
      <point x="171" y="670" type="curve"/>
      <point x="171" y="627"/>
      <point x="145" y="607"/>
      <point x="107" y="607" type="curve"/>
      <point x="67" y="607"/>
      <point x="43" y="628"/>
      <point x="43" y="670" type="curve"/>
      <point x="172" y="670"/>
      <point x="43" y="670"/>
    </contour>
  </outline>
</glyph>
<glyph name="k" format="1">
  <advance width="491"/>
  <unicode hex="006B"/>
  <outline>
    <contour>
      <point x="185" y="0" type="curve"/>
      <point x="185" y="800" type="line"/>
      <point x="60" y="800"/>
      <point x="185" y="800"/>
      <point x="60" y="800" type="curve"/>
      <point x="60" y="533"/>
      <point x="60" y="267"/>
      <point x="60" y="0" type="curve"/>
      <point x="185" y="0"/>
      <point x="60" y="0"/>
    </contour>
    <contour>
      <point x="321" y="533" type="curve"/>
      <point x="167" y="275" type="line"/>
      <point x="281" y="275"/>
      <point x="186" y="275"/>
      <point x="299" y="275" type="curve"/>
      <point x="459" y="533" type="line"/>
      <point x="370" y="533"/>
      <point x="410" y="533"/>
    </contour>
    <contour>
      <point x="475" y="0" type="curve"/>
      <point x="300" y="275" type="line"/>
      <point x="186" y="275"/>
      <point x="281" y="275"/>
      <point x="167" y="275" type="curve"/>
      <point x="339" y="0" type="line"/>
      <point x="417" y="0"/>
      <point x="397" y="0"/>
    </contour>
    <contour>
      <point x="316" y="-12" type="move" name="bottom"/>
    </contour>
  </outline>
</glyph>
<glyph name="m" format="1">
  <advance width="680"/>
  <unicode hex="006D"/>
  <outline>
    <contour>
      <point x="376" y="284" type="curve"/>
      <point x="390" y="353"/>
      <point x="401" y="436"/>
      <point x="456" y="436" type="curve"/>
      <point x="514" y="436"/>
      <point x="498" y="382"/>
      <point x="498" y="313" type="curve"/>
      <point x="498" y="208"/>
      <point x="498" y="105"/>
      <point x="498" y="0" type="curve"/>
      <point x="623" y="0"/>
      <point x="498" y="0"/>
      <point x="623" y="0" type="curve"/>
      <point x="623" y="107"/>
      <point x="623" y="215"/>
      <point x="623" y="323" type="curve"/>
      <point x="623" y="448"/>
      <point x="623" y="538"/>
      <point x="504" y="538" type="curve"/>
      <point x="417" y="538"/>
      <point x="367" y="453"/>
      <point x="349" y="343" type="curve"/>
      <point x="381" y="287"/>
      <point x="345" y="340"/>
    </contour>
    <contour>
      <point x="157" y="283" type="curve"/>
      <point x="169" y="352"/>
      <point x="180" y="436"/>
      <point x="237" y="436" type="curve"/>
      <point x="294" y="436"/>
      <point x="279" y="382"/>
      <point x="279" y="313" type="curve"/>
      <point x="279" y="208"/>
      <point x="279" y="105"/>
      <point x="279" y="0" type="curve"/>
      <point x="404" y="0"/>
      <point x="279" y="0"/>
      <point x="404" y="0" type="curve"/>
      <point x="404" y="107"/>
      <point x="404" y="215"/>
      <point x="404" y="323" type="curve"/>
      <point x="404" y="448"/>
      <point x="404" y="538"/>
      <point x="285" y="538" type="curve"/>
      <point x="197" y="538"/>
      <point x="147" y="452"/>
      <point x="131" y="342" type="curve"/>
      <point x="162" y="286"/>
      <point x="126" y="339"/>
    </contour>
    <contour>
      <point x="185" y="0" type="curve"/>
      <point x="185" y="178"/>
      <point x="185" y="355"/>
      <point x="185" y="533" type="curve"/>
      <point x="60" y="533"/>
      <point x="185" y="533"/>
      <point x="60" y="533" type="curve"/>
      <point x="60" y="355"/>
      <point x="60" y="178"/>
      <point x="60" y="0" type="curve"/>
      <point x="185" y="0"/>
      <point x="60" y="0"/>
    </contour>
  </outline>
</glyph>
<glyph name="p" format="1">
  <advance width="504"/>
  <unicode hex="0070"/>
  <outline>
    <contour>
      <point x="162" y="312" type="curve"/>
      <point x="169" y="368"/>
      <point x="209" y="436"/>
      <point x="253" y="436" type="curve"/>
      <point x="341" y="436"/>
      <point x="343" y="350"/>
      <point x="343" y="263" type="curve"/>
      <point x="344" y="176"/>
      <point x="339" y="93"/>
      <point x="258" y="92" type="curve"/>
      <point x="216" y="92"/>
      <point x="189" y="116"/>
      <point x="166" y="152" type="curve"/>
      <point x="120" y="93"/>
      <point x="171" y="160"/>
      <point x="125" y="101" type="curve"/>
      <point x="167" y="34"/>
      <point x="214" y="-5"/>
      <point x="287" y="-5" type="curve"/>
      <point x="428" y="-5"/>
      <point x="468" y="125"/>
      <point x="468" y="268" type="curve"/>
      <point x="468" y="409"/>
      <point x="428" y="539"/>
      <point x="285" y="539" type="curve"/>
      <point x="212" y="539"/>
      <point x="156" y="463"/>
      <point x="131" y="394" type="curve"/>
      <point x="164" y="305"/>
      <point x="129" y="402"/>
    </contour>
    <contour>
      <point x="185" y="-300" type="curve"/>
      <point x="185" y="-22"/>
      <point x="185" y="255"/>
      <point x="185" y="533" type="curve"/>
      <point x="60" y="533"/>
      <point x="185" y="533"/>
      <point x="60" y="533" type="curve"/>
      <point x="60" y="255"/>
      <point x="60" y="-22"/>
      <point x="60" y="-300" type="curve"/>
      <point x="185" y="-300"/>
      <point x="60" y="-300"/>
    </contour>
  </outline>
</glyph>
<glyph name="q" format="1">
  <advance width="506"/>
  <unicode hex="0071"/>
  <outline>
    <contour>
      <point x="378" y="403" type="curve"/>
      <point x="351" y="483"/>
      <point x="289" y="538"/>
      <point x="219" y="538" type="curve"/>
      <point x="74" y="538"/>
      <point x="35" y="409"/>
      <point x="36" y="265" type="curve"/>
      <point x="36" y="120"/>
      <point x="81" y="-5"/>
      <point x="224" y="-5" type="curve"/>
      <point x="289" y="-5"/>
      <point x="345" y="54"/>
      <point x="372" y="119" type="curve"/>
      <point x="333" y="178"/>
      <point x="380" y="114"/>
      <point x="341" y="173" type="curve"/>
      <point x="321" y="131"/>
      <point x="288" y="92"/>
      <point x="245" y="92" type="curve"/>
      <point x="167" y="92"/>
      <point x="161" y="181"/>
      <point x="161" y="271" type="curve"/>
      <point x="161" y="354"/>
      <point x="170" y="437"/>
      <point x="243" y="437" type="curve"/>
      <point x="280" y="437"/>
      <point x="310" y="418"/>
      <point x="345" y="351" type="curve"/>
      <point x="372" y="414"/>
      <point x="351" y="340"/>
    </contour>
    <contour>
      <point x="445" y="-300" type="curve"/>
      <point x="445" y="-26"/>
      <point x="445" y="259"/>
      <point x="445" y="533" type="curve"/>
      <point x="302" y="533"/>
      <point x="459" y="533"/>
      <point x="315" y="533" type="curve"/>
      <point x="315" y="259"/>
      <point x="315" y="-26"/>
      <point x="315" y="-300" type="curve"/>
      <point x="459" y="-300"/>
      <point x="302" y="-300"/>
    </contour>
  </outline>
</glyph>
<glyph name="r" format="1">
  <advance width="307"/>
  <unicode hex="0072"/>
  <outline>
    <contour>
      <point x="185" y="0" type="curve"/>
      <point x="185" y="174"/>
      <point x="185" y="359"/>
      <point x="185" y="533" type="curve"/>
      <point x="48" y="533"/>
      <point x="198" y="533"/>
      <point x="60" y="533" type="curve"/>
      <point x="60" y="359"/>
      <point x="60" y="174"/>
      <point x="60" y="0" type="curve"/>
      <point x="198" y="0"/>
      <point x="48" y="0"/>
    </contour>
    <contour>
      <point x="160" y="301" type="curve"/>
      <point x="183" y="411"/>
      <point x="238" y="439"/>
      <point x="297" y="439" type="curve"/>
      <point x="297" y="550"/>
      <point x="297" y="427"/>
      <point x="297" y="538" type="curve"/>
      <point x="209" y="538"/>
      <point x="140" y="449"/>
      <point x="114" y="344" type="curve"/>
      <point x="161" y="294"/>
      <point x="114" y="351"/>
    </contour>
    <contour>
      <point x="124" y="618" type="move" name="top"/>
    </contour>
    <contour>
      <point x="187" y="-15" type="move" name="bottom"/>
    </contour>
  </outline>
</glyph>
<glyph name="t" format="1">
  <advance width="309"/>
  <unicode hex="0074"/>
  <outline>
    <contour>
      <point x="28" y="433" type="curve"/>
      <point x="293" y="433" type="line"/>
      <point x="293" y="532"/>
      <point x="293" y="433"/>
      <point x="293" y="532" type="curve"/>
      <point x="28" y="532" type="line"/>
      <point x="28" y="433"/>
      <point x="28" y="532"/>
    </contour>
    <contour>
      <point x="248" y="114" type="curve"/>
      <point x="238" y="103"/>
      <point x="231" y="97"/>
      <point x="219" y="97" type="curve"/>
      <point x="187" y="97"/>
      <point x="192" y="132"/>
      <point x="192" y="171" type="curve"/>
      <point x="192" y="678" type="line"/>
      <point x="50" y="589"/>
      <point x="209" y="686"/>
      <point x="67" y="596" type="curve"/>
      <point x="67" y="166" type="line"/>
      <point x="67" y="62"/>
      <point x="106" y="-6"/>
      <point x="199" y="-6" type="curve"/>
      <point x="238" y="-6"/>
      <point x="265" y="7"/>
      <point x="302" y="31" type="curve"/>
      <point x="248" y="114"/>
      <point x="302" y="31"/>
    </contour>
    <contour>
      <point x="248" y="-7" type="move" name="bottom"/>
    </contour>
  </outline>
</glyph>
<glyph name="v" format="1">
  <advance width="454"/>
  <unicode hex="0076"/>
  <outline>
    <contour>
      <point x="14" y="533" type="curve"/>
      <point x="60" y="355"/>
      <point x="106" y="178"/>
      <point x="151" y="0" type="curve"/>
      <point x="266" y="0"/>
      <point x="151" y="0"/>
      <point x="266" y="0" type="curve"/>
      <point x="221" y="177"/>
      <point x="186" y="356"/>
      <point x="141" y="533" type="curve"/>
      <point x="14" y="533"/>
      <point x="141" y="533"/>
    </contour>
    <contour>
      <point x="318" y="533" type="curve"/>
      <point x="184" y="0" type="line"/>
      <point x="300" y="0"/>
      <point x="184" y="0"/>
      <point x="300" y="0" type="curve"/>
      <point x="348" y="178"/>
      <point x="396" y="355"/>
      <point x="444" y="533" type="curve"/>
      <point x="318" y="533"/>
      <point x="444" y="533"/>
    </contour>
  </outline>
</glyph>
<glyph name="w" format="1">
  <advance width="634"/>
  <unicode hex="0077"/>
  <outline>
    <contour>
      <point x="239" y="0" type="curve"/>
      <point x="284" y="178"/>
      <point x="328" y="355"/>
      <point x="372" y="533" type="curve"/>
      <point x="267" y="533"/>
      <point x="372" y="533"/>
      <point x="267" y="533" type="curve"/>
      <point x="223" y="355"/>
      <point x="179" y="178"/>
      <point x="136" y="0" type="curve"/>
      <point x="239" y="0"/>
      <point x="136" y="0"/>
    </contour>
    <contour>
      <point x="516" y="533" type="curve"/>
      <point x="475" y="355"/>
      <point x="433" y="178"/>
      <point x="393" y="0" type="curve"/>
      <point x="495" y="0"/>
      <point x="393" y="0"/>
      <point x="495" y="0" type="curve"/>
      <point x="537" y="178"/>
      <point x="580" y="355"/>
      <point x="621" y="533" type="curve"/>
      <point x="516" y="533"/>
      <point x="621" y="533"/>
    </contour>
    <contour>
      <point x="272" y="533" type="curve"/>
      <point x="311" y="355"/>
      <point x="352" y="178"/>
      <point x="392" y="0" type="curve"/>
      <point x="495" y="0"/>
      <point x="392" y="0"/>
      <point x="495" y="0" type="curve"/>
      <point x="456" y="178"/>
      <point x="415" y="355"/>
      <point x="376" y="533" type="curve"/>
      <point x="272" y="533"/>
      <point x="376" y="533"/>
    </contour>
    <contour>
      <point x="15" y="533" type="curve"/>
      <point x="55" y="355"/>
      <point x="95" y="178"/>
      <point x="136" y="0" type="curve"/>
      <point x="238" y="0"/>
      <point x="136" y="0"/>
      <point x="238" y="0" type="curve"/>
      <point x="198" y="178"/>
      <point x="159" y="355"/>
      <point x="119" y="533" type="curve"/>
      <point x="15" y="533"/>
      <point x="119" y="533"/>
    </contour>
  </outline>
</glyph>
<glyph name="x" format="1">
  <advance width="449"/>
  <unicode hex="0078"/>
  <outline>
    <contour>
      <point x="439" y="0" type="curve"/>
      <point x="428" y="23"/>
      <point x="147" y="510"/>
      <point x="136" y="533" type="curve"/>
      <point x="19" y="533"/>
      <point x="124" y="533"/>
      <point x="7" y="533" type="curve"/>
      <point x="18" y="510"/>
      <point x="301" y="23"/>
      <point x="312" y="0" type="curve"/>
      <point x="439" y="0"/>
      <point x="312" y="0"/>
    </contour>
    <contour>
      <point x="317" y="533" type="curve"/>
      <point x="306" y="510"/>
      <point x="22" y="23"/>
      <point x="11" y="0" type="curve"/>
      <point x="135" y="0"/>
      <point x="11" y="0"/>
      <point x="135" y="0" type="curve"/>
      <point x="146" y="23"/>
      <point x="430" y="510"/>
      <point x="441" y="533" type="curve"/>
      <point x="334" y="533"/>
      <point x="425" y="533"/>
    </contour>
  </outline>
</glyph>
<glyph name="y" format="1">
  <advance width="483"/>
  <unicode hex="0079"/>
  <outline>
    <contour>
      <point x="300" y="-22" type="curve"/>
      <point x="242" y="160"/>
      <point x="195" y="350"/>
      <point x="137" y="533" type="curve"/>
      <point x="9" y="533"/>
      <point x="137" y="533"/>
      <point x="9" y="533" type="curve"/>
      <point x="72" y="352"/>
      <point x="120" y="160"/>
      <point x="183" y="-21" type="curve"/>
      <point x="300" y="-21"/>
      <point x="183" y="-22"/>
    </contour>
    <contour>
      <point x="208" y="-300" type="curve"/>
      <point x="305" y="-28"/>
      <point x="384" y="261"/>
      <point x="481" y="533" type="curve"/>
      <point x="354" y="533"/>
      <point x="481" y="533"/>
      <point x="354" y="533" type="curve"/>
      <point x="256" y="261"/>
      <point x="177" y="-28"/>
      <point x="80" y="-300" type="curve"/>
      <point x="208" y="-300"/>
      <point x="80" y="-300"/>
    </contour>
    <contour>
      <point x="244" y="618" type="move" name="top"/>
    </contour>
  </outline>
</glyph>
<glyph name="braceleft" format="1">
  <advance width="225"/>
  <unicode hex="007B"/>
  <outline>
    <contour>
      <point x="184" y="-13" type="curve"/>
      <point x="154" y="-13"/>
      <point x="165" y="25"/>
      <point x="165" y="60" type="curve"/>
      <point x="165" y="113"/>
      <point x="165" y="165"/>
      <point x="165" y="217" type="curve"/>
      <point x="165" y="315"/>
      <point x="122" y="392"/>
      <point x="32" y="392" type="curve"/>
      <point x="32" y="289"/>
      <point x="32" y="392"/>
      <point x="32" y="289" type="curve"/>
      <point x="57" y="289"/>
      <point x="51" y="257"/>
      <point x="51" y="227" type="curve"/>
      <point x="51" y="173"/>
      <point x="51" y="119"/>
      <point x="51" y="66" type="curve"/>
      <point x="51" y="-35"/>
      <point x="93" y="-110"/>
      <point x="184" y="-110" type="curve"/>
      <point x="184" y="-13"/>
      <point x="184" y="-110"/>
    </contour>
    <contour>
      <point x="184" y="791" type="curve"/>
      <point x="93" y="791"/>
      <point x="51" y="718"/>
      <point x="51" y="619" type="curve"/>
      <point x="51" y="563"/>
      <point x="51" y="508"/>
      <point x="51" y="452" type="curve"/>
      <point x="51" y="422"/>
      <point x="56" y="392"/>
      <point x="32" y="392" type="curve"/>
      <point x="32" y="289"/>
      <point x="32" y="392"/>
      <point x="32" y="289" type="curve"/>
      <point x="123" y="289"/>
      <point x="165" y="366"/>
      <point x="165" y="467" type="curve"/>
      <point x="165" y="517"/>
      <point x="165" y="568"/>
      <point x="165" y="619" type="curve"/>
      <point x="165" y="655"/>
      <point x="153" y="693"/>
      <point x="184" y="693" type="curve"/>
      <point x="184" y="791"/>
      <point x="184" y="693"/>
    </contour>
  </outline>
</glyph>
<glyph name="braceright" format="1">
  <advance width="225"/>
  <unicode hex="007D"/>
  <outline>
    <contour>
      <point x="39" y="-110" type="curve"/>
      <point x="130" y="-110"/>
      <point x="173" y="-35"/>
      <point x="173" y="66" type="curve"/>
      <point x="173" y="119"/>
      <point x="173" y="173"/>
      <point x="173" y="227" type="curve"/>
      <point x="173" y="257"/>
      <point x="166" y="289"/>
      <point x="191" y="289" type="curve"/>
      <point x="191" y="392"/>
      <point x="191" y="289"/>
      <point x="191" y="392" type="curve"/>
      <point x="101" y="392"/>
      <point x="59" y="315"/>
      <point x="59" y="217" type="curve"/>
      <point x="59" y="165"/>
      <point x="59" y="113"/>
      <point x="59" y="60" type="curve"/>
      <point x="59" y="25"/>
      <point x="69" y="-13"/>
      <point x="39" y="-13" type="curve"/>
      <point x="39" y="-110"/>
      <point x="39" y="-13"/>
    </contour>
    <contour>
      <point x="39" y="693" type="curve"/>
      <point x="70" y="693"/>
      <point x="59" y="655"/>
      <point x="59" y="619" type="curve"/>
      <point x="59" y="568"/>
      <point x="59" y="517"/>
      <point x="59" y="467" type="curve"/>
      <point x="59" y="366"/>
      <point x="100" y="289"/>
      <point x="191" y="289" type="curve"/>
      <point x="191" y="392"/>
      <point x="191" y="289"/>
      <point x="191" y="392" type="curve"/>
      <point x="167" y="392"/>
      <point x="173" y="422"/>
      <point x="173" y="452" type="curve"/>
      <point x="173" y="508"/>
      <point x="173" y="563"/>
      <point x="173" y="619" type="curve"/>
      <point x="173" y="718"/>
      <point x="130" y="791"/>
      <point x="39" y="791" type="curve"/>
      <point x="39" y="693"/>
      <point x="39" y="791"/>
    </contour>
  </outline>
</glyph>
<glyph name="asciitilde" format="1">
  <advance width="522"/>
  <unicode hex="007E"/>
  <outline>
    <contour>
      <point x="375" y="375" type="curve"/>
      <point x="366" y="339"/>
      <point x="354" y="301"/>
      <point x="335" y="301" type="curve"/>
      <point x="320" y="301"/>
      <point x="312" y="310"/>
      <point x="304" y="323" type="curve"/>
      <point x="269" y="364"/>
      <point x="242" y="386"/>
      <point x="188" y="386" type="curve"/>
      <point x="100" y="386"/>
      <point x="64" y="329"/>
      <point x="46" y="238" type="curve"/>
      <point x="89" y="226"/>
      <point x="108" y="219"/>
      <point x="149" y="206" type="curve"/>
      <point x="156" y="244"/>
      <point x="166" y="281"/>
      <point x="187" y="281" type="curve"/>
      <point x="204" y="281"/>
      <point x="212" y="272"/>
      <point x="223" y="259" type="curve"/>
      <point x="259" y="218"/>
      <point x="286" y="197"/>
      <point x="339" y="196" type="curve"/>
      <point x="425" y="196"/>
      <point x="452" y="258"/>
      <point x="475" y="346" type="curve"/>
      <point x="434" y="357"/>
      <point x="415" y="363"/>
    </contour>
  </outline>
</glyph>
<glyph name="exclamdown" format="1">
  <advance width="246"/>
  <unicode hex="00A1"/>
  <outline>
    <contour>
      <point x="60" y="299" type="line"/>
      <point x="50" y="-194" type="line"/>
      <point x="196" y="-195" type="line"/>
      <point x="190" y="298" type="line"/>
    </contour>
    <contour>
      <point x="63" y="473" type="curve"/>
      <point x="63" y="431"/>
      <point x="89" y="409"/>
      <point x="127" y="408" type="curve"/>
      <point x="165" y="408"/>
      <point x="191" y="432"/>
      <point x="191" y="472" type="curve"/>
      <point x="62" y="473"/>
      <point x="191" y="472"/>
      <point x="63" y="473" type="curve"/>
      <point x="63" y="517"/>
      <point x="89" y="537"/>
      <point x="128" y="536" type="curve"/>
      <point x="167" y="536"/>
      <point x="191" y="514"/>
      <point x="191" y="472" type="curve"/>
      <point x="62" y="473"/>
      <point x="191" y="472"/>
    </contour>
  </outline>
</glyph>
<glyph name="cent" format="1">
  <advance width="484"/>
  <unicode hex="00A2"/>
  <outline>
    <contour>
      <point x="325" y="-53" type="curve"/>
      <point x="325" y="-13"/>
      <point x="325" y="27"/>
      <point x="325" y="67" type="curve"/>
      <point x="200" y="67"/>
      <point x="325" y="67"/>
      <point x="200" y="67" type="curve"/>
      <point x="200" y="27"/>
      <point x="200" y="-13"/>
      <point x="200" y="-53" type="curve"/>
      <point x="325" y="-53"/>
      <point x="200" y="-53"/>
    </contour>
    <contour>
      <point x="214" y="778" type="curve"/>
      <point x="214" y="742"/>
      <point x="214" y="706"/>
      <point x="214" y="670" type="curve"/>
      <point x="339" y="670"/>
      <point x="214" y="670"/>
      <point x="339" y="670" type="curve"/>
      <point x="339" y="706"/>
      <point x="339" y="742"/>
      <point x="339" y="778" type="curve"/>
      <point x="214" y="778"/>
      <point x="339" y="778"/>
    </contour>
    <contour>
      <point x="453" y="608" type="curve"/>
      <point x="400" y="665"/>
      <point x="353" y="686"/>
      <point x="284" y="686" type="curve"/>
      <point x="116" y="686"/>
      <point x="35" y="547"/>
      <point x="35" y="363" type="curve"/>
      <point x="35" y="187"/>
      <point x="99" y="46"/>
      <point x="257" y="46" type="curve"/>
      <point x="340" y="46"/>
      <point x="397" y="74"/>
      <point x="449" y="148" type="curve"/>
      <point x="371" y="218"/>
      <point x="449" y="148"/>
      <point x="371" y="218" type="curve"/>
      <point x="342" y="181"/>
      <point x="317" y="149"/>
      <point x="268" y="149" type="curve"/>
      <point x="178" y="149"/>
      <point x="160" y="253"/>
      <point x="160" y="369" type="curve"/>
      <point x="160" y="482"/>
      <point x="188" y="583"/>
      <point x="273" y="583" type="curve"/>
      <point x="319" y="583"/>
      <point x="349" y="564"/>
      <point x="379" y="529" type="curve"/>
      <point x="453" y="608"/>
      <point x="379" y="529"/>
    </contour>
  </outline>
</glyph>
<glyph name="sterling" format="1">
  <advance width="371"/>
  <unicode hex="00A3"/>
  <outline>
    <contour>
      <point x="314" y="98" type="curve"/>
      <point x="226" y="98"/>
      <point x="128" y="98"/>
      <point x="41" y="98" type="curve"/>
      <point x="41" y="0"/>
      <point x="41" y="98"/>
      <point x="41" y="0" type="curve"/>
      <point x="128" y="0"/>
      <point x="225" y="0"/>
      <point x="314" y="0" type="curve"/>
      <point x="314" y="98"/>
      <point x="314" y="0"/>
    </contour>
    <contour>
      <point x="275" y="424" type="curve"/>
      <point x="204" y="424"/>
      <point x="123" y="424"/>
      <point x="52" y="424" type="curve"/>
      <point x="52" y="327"/>
      <point x="52" y="424"/>
      <point x="52" y="327" type="curve"/>
      <point x="123" y="327"/>
      <point x="204" y="327"/>
      <point x="275" y="327" type="curve"/>
      <point x="275" y="424"/>
      <point x="275" y="327"/>
    </contour>
    <contour>
      <point x="341" y="662" type="curve"/>
      <point x="306" y="707"/>
      <point x="273" y="721"/>
      <point x="227" y="721" type="curve"/>
      <point x="75" y="721"/>
      <point x="59" y="557"/>
      <point x="88" y="364" type="curve"/>
      <point x="107" y="229"/>
      <point x="115" y="98"/>
      <point x="41" y="98" type="curve"/>
      <point x="41" y="0"/>
      <point x="41" y="98"/>
      <point x="41" y="0" type="curve"/>
      <point x="208" y="0"/>
      <point x="226" y="178"/>
      <point x="196" y="385" type="curve"/>
      <point x="178" y="507"/>
      <point x="161" y="627"/>
      <point x="221" y="627" type="curve"/>
      <point x="246" y="627"/>
      <point x="259" y="610"/>
      <point x="277" y="591" type="curve"/>
      <point x="341" y="662"/>
      <point x="277" y="591"/>
    </contour>
  </outline>
</glyph>
<glyph name="currency" format="1">
  <advance width="551"/>
  <unicode hex="00A4"/>
  <outline>
    <contour>
      <point x="233" y="316" type="curve"/>
      <point x="233" y="361"/>
      <point x="235" y="408"/>
      <point x="273" y="408" type="curve"/>
      <point x="313" y="408"/>
      <point x="315" y="366"/>
      <point x="315" y="317" type="curve"/>
      <point x="315" y="270"/>
      <point x="313" y="218"/>
      <point x="274" y="218" type="curve"/>
      <point x="233" y="218"/>
      <point x="233" y="266"/>
      <point x="233" y="316" type="curve"/>
      <point x="108" y="316"/>
      <point x="241" y="316"/>
      <point x="116" y="316" type="curve"/>
      <point x="116" y="203"/>
      <point x="171" y="121"/>
      <point x="276" y="121" type="curve"/>
      <point x="381" y="121"/>
      <point x="435" y="206"/>
      <point x="435" y="319" type="curve"/>
      <point x="435" y="426"/>
      <point x="384" y="506"/>
      <point x="283" y="506" type="curve"/>
      <point x="176" y="506"/>
      <point x="116" y="427"/>
      <point x="116" y="316" type="curve"/>
      <point x="241" y="316"/>
      <point x="108" y="316"/>
    </contour>
    <contour>
      <point x="349" y="356" type="line"/>
      <point x="505" y="499" type="line"/>
      <point x="418" y="587" type="line"/>
      <point x="275" y="431" type="line"/>
    </contour>
    <contour>
      <point x="281" y="205" type="line"/>
      <point x="424" y="49" type="line"/>
      <point x="511" y="136" type="line"/>
      <point x="356" y="279" type="line"/>
    </contour>
    <contour>
      <point x="197" y="278" type="line"/>
      <point x="41" y="134" type="line"/>
      <point x="128" y="47" type="line"/>
      <point x="271" y="203" type="line"/>
    </contour>
    <contour>
      <point x="280" y="432" type="line"/>
      <point x="136" y="587" type="line"/>
      <point x="49" y="500" type="line"/>
      <point x="205" y="357" type="line"/>
    </contour>
  </outline>
</glyph>
<glyph name="yen" format="1">
  <advance width="492"/>
  <unicode hex="00A5"/>
  <outline>
    <contour>
      <point x="389" y="409" type="curve"/>
      <point x="342" y="409"/>
      <point x="296" y="409"/>
      <point x="250" y="409" type="curve"/>
      <point x="250" y="301"/>
      <point x="250" y="409"/>
      <point x="250" y="301" type="curve"/>
      <point x="296" y="301"/>
      <point x="342" y="301"/>
      <point x="389" y="301" type="curve"/>
      <point x="389" y="409"/>
      <point x="389" y="301"/>
    </contour>
    <contour>
      <point x="231" y="409" type="curve"/>
      <point x="185" y="409"/>
      <point x="139" y="409"/>
      <point x="95" y="409" type="curve"/>
      <point x="95" y="301"/>
      <point x="95" y="409"/>
      <point x="95" y="301" type="curve"/>
      <point x="139" y="301"/>
      <point x="185" y="301"/>
      <point x="231" y="301" type="curve"/>
      <point x="231" y="409"/>
      <point x="231" y="301"/>
    </contour>
    <contour>
      <point x="389" y="272" type="curve"/>
      <point x="290" y="272"/>
      <point x="192" y="272"/>
      <point x="95" y="272" type="curve"/>
      <point x="95" y="165"/>
      <point x="95" y="272"/>
      <point x="95" y="165" type="curve"/>
      <point x="192" y="165"/>
      <point x="290" y="165"/>
      <point x="389" y="165" type="curve"/>
      <point x="389" y="272"/>
      <point x="389" y="165"/>
    </contour>
    <contour>
      <point x="26" y="722" type="curve"/>
      <point x="79" y="592"/>
      <point x="122" y="471"/>
      <point x="173" y="337" type="curve"/>
      <point x="300" y="337"/>
      <point x="151" y="337"/>
      <point x="278" y="337" type="curve"/>
      <point x="237" y="470"/>
      <point x="197" y="591"/>
      <point x="151" y="722" type="curve"/>
      <point x="19" y="722"/>
      <point x="158" y="722"/>
    </contour>
    <contour>
      <point x="343" y="722" type="curve"/>
      <point x="291" y="589"/>
      <point x="249" y="469"/>
      <point x="196" y="337" type="curve"/>
      <point x="323" y="337"/>
      <point x="184" y="337"/>
      <point x="311" y="337" type="curve"/>
      <point x="366" y="470"/>
      <point x="414" y="592"/>
      <point x="469" y="722" type="curve"/>
      <point x="338" y="722"/>
      <point x="474" y="722"/>
    </contour>
    <contour>
      <point x="311" y="0" type="curve"/>
      <point x="311" y="115"/>
      <point x="311" y="222"/>
      <point x="311" y="337" type="curve"/>
      <point x="174" y="337"/>
      <point x="311" y="337"/>
      <point x="174" y="337" type="curve"/>
      <point x="174" y="222"/>
      <point x="174" y="115"/>
      <point x="174" y="0" type="curve"/>
      <point x="311" y="0"/>
      <point x="174" y="0"/>
    </contour>
  </outline>
</glyph>
<glyph name="section" format="1">
  <advance width="411"/>
  <unicode hex="00A7"/>
  <outline>
    <contour>
      <point x="329" y="699" type="curve"/>
      <point x="289" y="733"/>
      <point x="258" y="749"/>
      <point x="210" y="749" type="curve"/>
      <point x="116" y="749"/>
      <point x="59" y="688"/>
      <point x="59" y="599" type="curve"/>
      <point x="59" y="520"/>
      <point x="96" y="467"/>
      <point x="168" y="434" type="curve"/>
      <point x="209" y="414"/>
      <point x="252" y="402"/>
      <point x="252" y="362" type="curve"/>
      <point x="252" y="318"/>
      <point x="234" y="285"/>
      <point x="192" y="274" type="curve"/>
      <point x="267" y="196"/>
      <point x="192" y="274"/>
      <point x="267" y="196" type="curve"/>
      <point x="343" y="219"/>
      <point x="377" y="280"/>
      <point x="377" y="361" type="curve"/>
      <point x="376" y="448"/>
      <point x="313" y="492"/>
      <point x="230" y="527" type="curve"/>
      <point x="200" y="541"/>
      <point x="175" y="565"/>
      <point x="175" y="599" type="curve"/>
      <point x="175" y="623"/>
      <point x="186" y="651"/>
      <point x="213" y="651" type="curve"/>
      <point x="242" y="651"/>
      <point x="251" y="639"/>
      <point x="268" y="622" type="curve"/>
      <point x="329" y="699"/>
      <point x="268" y="622"/>
    </contour>
    <contour>
      <point x="147" y="526" type="curve"/>
      <point x="74" y="496"/>
      <point x="36" y="444"/>
      <point x="36" y="366" type="curve"/>
      <point x="36" y="282"/>
      <point x="86" y="231"/>
      <point x="166" y="198" type="curve"/>
      <point x="201" y="181"/>
      <point x="238" y="170"/>
      <point x="238" y="129" type="curve"/>
      <point x="238" y="100"/>
      <point x="227" y="71"/>
      <point x="205" y="71" type="curve"/>
      <point x="173" y="71"/>
      <point x="159" y="87"/>
      <point x="138" y="110" type="curve"/>
      <point x="67" y="42"/>
      <point x="138" y="110"/>
      <point x="67" y="42" type="curve"/>
      <point x="108" y="-8"/>
      <point x="147" y="-27"/>
      <point x="203" y="-27" type="curve"/>
      <point x="297" y="-27"/>
      <point x="358" y="33"/>
      <point x="358" y="128" type="curve"/>
      <point x="357" y="207"/>
      <point x="318" y="260"/>
      <point x="245" y="291" type="curve"/>
      <point x="203" y="310"/>
      <point x="161" y="323"/>
      <point x="161" y="364" type="curve"/>
      <point x="161" y="405"/>
      <point x="174" y="438"/>
      <point x="209" y="452" type="curve"/>
      <point x="147" y="526"/>
      <point x="209" y="452"/>
    </contour>
  </outline>
</glyph>
<glyph name="dieresis" format="1">
  <advance width="365"/>
  <unicode hex="00A8"/>
  <outline>
    <contour>
      <point x="158" y="683" type="curve"/>
      <point x="158" y="726"/>
      <point x="130" y="747"/>
      <point x="93" y="747" type="curve"/>
      <point x="55" y="747"/>
      <point x="30" y="724"/>
      <point x="30" y="683" type="curve"/>
      <point x="158" y="683"/>
      <point x="29" y="683"/>
      <point x="158" y="683" type="curve"/>
      <point x="158" y="640"/>
      <point x="131" y="620"/>
      <point x="93" y="620" type="curve"/>
      <point x="54" y="620"/>
      <point x="30" y="641"/>
      <point x="30" y="683" type="curve"/>
      <point x="158" y="683"/>
      <point x="29" y="683"/>
    </contour>
    <contour>
      <point x="335" y="683" type="curve"/>
      <point x="335" y="726"/>
      <point x="308" y="747"/>
      <point x="271" y="747" type="curve"/>
      <point x="232" y="747"/>
      <point x="208" y="724"/>
      <point x="208" y="683" type="curve"/>
      <point x="336" y="683"/>
      <point x="207" y="683"/>
      <point x="335" y="683" type="curve"/>
      <point x="335" y="640"/>
      <point x="309" y="620"/>
      <point x="271" y="620" type="curve"/>
      <point x="232" y="620"/>
      <point x="208" y="641"/>
      <point x="208" y="683" type="curve"/>
      <point x="336" y="683"/>
      <point x="207" y="683"/>
    </contour>
    <contour>
      <point x="182" y="626" type="move" name="_top"/>
    </contour>
  </outline>
</glyph>
<glyph name="copyright" format="1">
  <advance width="581"/>
  <unicode hex="00A9"/>
  <outline>
    <contour>
      <point x="138" y="323" type="curve"/>
      <point x="138" y="451"/>
      <point x="181" y="566"/>
      <point x="292" y="566" type="curve"/>
      <point x="400" y="566"/>
      <point x="442" y="449"/>
      <point x="442" y="321" type="curve"/>
      <point x="442" y="198"/>
      <point x="403" y="83"/>
      <point x="298" y="83" type="curve"/>
      <point x="188" y="83"/>
      <point x="138" y="197"/>
      <point x="138" y="323" type="curve"/>
      <point x="36" y="323"/>
      <point x="141" y="323"/>
      <point x="39" y="323" type="curve"/>
      <point x="39" y="148"/>
      <point x="130" y="4"/>
      <point x="293" y="4" type="curve"/>
      <point x="453" y="4"/>
      <point x="538" y="150"/>
      <point x="538" y="325" type="curve"/>
      <point x="538" y="500"/>
      <point x="452" y="645"/>
      <point x="292" y="645" type="curve"/>
      <point x="129" y="645"/>
      <point x="39" y="500"/>
      <point x="39" y="323" type="curve"/>
      <point x="141" y="323"/>
      <point x="36" y="323"/>
    </contour>
    <contour>
      <point x="411" y="435" type="curve"/>
      <point x="379" y="492"/>
      <point x="343" y="510"/>
      <point x="298" y="510" type="curve"/>
      <point x="197" y="510"/>
      <point x="155" y="430"/>
      <point x="155" y="322" type="curve"/>
      <point x="155" y="218"/>
      <point x="191" y="139"/>
      <point x="286" y="139" type="curve"/>
      <point x="336" y="139"/>
      <point x="372" y="150"/>
      <point x="406" y="208" type="curve"/>
      <point x="339" y="250"/>
      <point x="406" y="208"/>
      <point x="339" y="250" type="curve"/>
      <point x="326" y="232"/>
      <point x="314" y="219"/>
      <point x="290" y="219" type="curve"/>
      <point x="246" y="219"/>
      <point x="247" y="271"/>
      <point x="247" y="326" type="curve"/>
      <point x="247" y="381"/>
      <point x="249" y="432"/>
      <point x="294" y="432" type="curve"/>
      <point x="313" y="432"/>
      <point x="325" y="425"/>
      <point x="333" y="406" type="curve"/>
      <point x="419" y="438"/>
      <point x="325" y="403"/>
    </contour>
  </outline>
</glyph>
<glyph name="ordfeminine" format="1">
  <advance width="318"/>
  <unicode hex="00AA"/>
  <outline>
    <contour>
      <point x="264" y="425" type="curve"/>
      <point x="264" y="505"/>
      <point x="264" y="583"/>
      <point x="264" y="664" type="curve"/>
      <point x="264" y="733"/>
      <point x="221" y="767"/>
      <point x="155" y="767" type="curve"/>
      <point x="108" y="767"/>
      <point x="76" y="746"/>
      <point x="53" y="719" type="curve"/>
      <point x="82" y="667"/>
      <point x="53" y="718"/>
      <point x="82" y="666" type="curve"/>
      <point x="97" y="682"/>
      <point x="114" y="701"/>
      <point x="145" y="701" type="curve"/>
      <point x="171" y="701"/>
      <point x="183" y="682"/>
      <point x="183" y="654" type="curve"/>
      <point x="183" y="576"/>
      <point x="183" y="502"/>
      <point x="183" y="425" type="curve"/>
      <point x="262" y="425"/>
      <point x="185" y="425"/>
    </contour>
    <contour>
      <point x="222" y="645" type="curve"/>
      <point x="190" y="640"/>
      <point x="170" y="638"/>
      <point x="139" y="632" type="curve"/>
      <point x="76" y="622"/>
      <point x="36" y="590"/>
      <point x="36" y="528" type="curve"/>
      <point x="36" y="464"/>
      <point x="67" y="422"/>
      <point x="129" y="422" type="curve"/>
      <point x="189" y="422"/>
      <point x="211" y="478"/>
      <point x="244" y="520" type="curve"/>
      <point x="204" y="554"/>
      <point x="243" y="521"/>
      <point x="203" y="555" type="curve"/>
      <point x="192" y="518"/>
      <point x="183" y="486"/>
      <point x="150" y="486" type="curve"/>
      <point x="122" y="486"/>
      <point x="114" y="504"/>
      <point x="114" y="532" type="curve"/>
      <point x="114" y="553"/>
      <point x="127" y="572"/>
      <point x="142" y="576" type="curve"/>
      <point x="177" y="582"/>
      <point x="190" y="585"/>
      <point x="225" y="592" type="curve"/>
      <point x="222" y="644"/>
      <point x="225" y="593"/>
    </contour>
  </outline>
</glyph>
<glyph name="guillemotleft" format="1">
  <advance width="399"/>
  <unicode hex="00AB"/>
  <outline>
    <contour>
      <point x="181" y="478" type="curve"/>
      <point x="148" y="448"/>
      <point x="70" y="380"/>
      <point x="37" y="350" type="curve"/>
      <point x="37" y="241"/>
      <point x="37" y="330"/>
      <point x="37" y="221" type="curve"/>
      <point x="70" y="252"/>
      <point x="148" y="331"/>
      <point x="181" y="361" type="curve"/>
      <point x="181" y="468"/>
      <point x="181" y="371"/>
    </contour>
    <contour>
      <point x="181" y="213" type="curve"/>
      <point x="149" y="243"/>
      <point x="70" y="319"/>
      <point x="37" y="350" type="curve"/>
      <point x="37" y="241"/>
      <point x="37" y="330"/>
      <point x="37" y="221" type="curve"/>
      <point x="70" y="191"/>
      <point x="149" y="125"/>
      <point x="181" y="96" type="curve"/>
      <point x="181" y="203"/>
      <point x="181" y="106"/>
    </contour>
    <contour>
      <point x="340" y="478" type="curve"/>
      <point x="308" y="448"/>
      <point x="230" y="380"/>
      <point x="196" y="350" type="curve"/>
      <point x="196" y="241"/>
      <point x="196" y="330"/>
      <point x="196" y="221" type="curve"/>
      <point x="230" y="252"/>
      <point x="308" y="331"/>
      <point x="340" y="361" type="curve"/>
      <point x="340" y="468"/>
      <point x="340" y="371"/>
    </contour>
    <contour>
      <point x="341" y="213" type="curve"/>
      <point x="308" y="243"/>
      <point x="230" y="319"/>
      <point x="196" y="350" type="curve"/>
      <point x="196" y="241"/>
      <point x="196" y="330"/>
      <point x="196" y="221" type="curve"/>
      <point x="230" y="191"/>
      <point x="308" y="125"/>
      <point x="341" y="96" type="curve"/>
      <point x="341" y="203"/>
      <point x="341" y="106"/>
    </contour>
  </outline>
</glyph>
<glyph name="logicalnot" format="1">
  <advance width="468"/>
  <unicode hex="00AC"/>
  <outline>
    <contour>
      <point x="58" y="261" type="curve"/>
      <point x="407" y="261" type="line"/>
      <point x="407" y="369"/>
      <point x="407" y="261"/>
      <point x="407" y="369" type="curve"/>
      <point x="58" y="369" type="line"/>
      <point x="58" y="261"/>
      <point x="58" y="369"/>
    </contour>
    <contour>
      <point x="407" y="140" type="curve"/>
      <point x="407" y="369" type="line"/>
      <point x="282" y="369"/>
      <point x="407" y="369"/>
      <point x="282" y="369" type="curve"/>
      <point x="282" y="140" type="line"/>
      <point x="407" y="140"/>
      <point x="282" y="140"/>
    </contour>
  </outline>
</glyph>
<glyph name="registered" format="1">
  <advance width="607"/>
  <unicode hex="00AE"/>
  <outline>
    <contour>
      <point x="125" y="321" type="curve"/>
      <point x="125" y="461"/>
      <point x="180" y="572"/>
      <point x="306" y="572" type="curve"/>
      <point x="432" y="572"/>
      <point x="483" y="460"/>
      <point x="483" y="319" type="curve"/>
      <point x="483" y="183"/>
      <point x="434" y="72"/>
      <point x="313" y="72" type="curve"/>
      <point x="185" y="72"/>
      <point x="125" y="181"/>
      <point x="125" y="321" type="curve"/>
      <point x="93" y="321"/>
      <point x="75" y="321"/>
      <point x="43" y="321" type="curve"/>
      <point x="43" y="138"/>
      <point x="134" y="2"/>
      <point x="308" y="2" type="curve"/>
      <point x="480" y="2"/>
      <point x="565" y="140"/>
      <point x="565" y="323" type="curve"/>
      <point x="565" y="506"/>
      <point x="478" y="643"/>
      <point x="306" y="643" type="curve"/>
      <point x="132" y="643"/>
      <point x="43" y="506"/>
      <point x="43" y="321" type="curve"/>
      <point x="75" y="321"/>
      <point x="93" y="321"/>
    </contour>
    <contour>
      <point x="283" y="320" type="curve"/>
      <point x="280" y="319"/>
      <point x="351" y="143"/>
      <point x="348" y="142" type="curve"/>
      <point x="396" y="142"/>
      <point x="383" y="142"/>
      <point x="427" y="142" type="curve"/>
      <point x="431" y="142"/>
      <point x="358" y="312"/>
      <point x="361" y="313" type="curve"/>
      <point x="250" y="313"/>
      <point x="393" y="320"/>
    </contour>
    <contour>
      <point x="295" y="142" type="curve"/>
      <point x="295" y="234"/>
      <point x="295" y="412"/>
      <point x="295" y="504" type="curve"/>
      <point x="236" y="504"/>
      <point x="272" y="506"/>
      <point x="206" y="506" type="curve"/>
      <point x="206" y="414"/>
      <point x="206" y="234"/>
      <point x="206" y="142" type="curve"/>
      <point x="267" y="142"/>
      <point x="222" y="142"/>
    </contour>
    <contour>
      <point x="258" y="273" type="curve"/>
      <point x="270" y="273"/>
      <point x="282" y="273"/>
      <point x="293" y="273" type="curve"/>
      <point x="370" y="273"/>
      <point x="417" y="313"/>
      <point x="417" y="392" type="curve"/>
      <point x="417" y="460"/>
      <point x="378" y="506"/>
      <point x="313" y="506" type="curve"/>
      <point x="311" y="506"/>
      <point x="196" y="506"/>
      <point x="194" y="506" type="curve"/>
      <point x="207" y="467"/>
      <point x="307" y="506"/>
      <point x="206" y="427" type="curve"/>
      <point x="235" y="427"/>
      <point x="265" y="427"/>
      <point x="294" y="427" type="curve"/>
      <point x="317" y="427"/>
      <point x="331" y="412"/>
      <point x="331" y="388" type="curve"/>
      <point x="331" y="368"/>
      <point x="325" y="351"/>
      <point x="308" y="351" type="curve"/>
      <point x="291" y="351"/>
      <point x="274" y="351"/>
      <point x="258" y="351" type="curve"/>
      <point x="258" y="273"/>
      <point x="258" y="351"/>
    </contour>
  </outline>
</glyph>
<glyph name="macron" format="1">
  <advance width="264"/>
  <unicode hex="00AF"/>
  <outline>
    <contour>
      <point x="174" y="688" type="curve"/>
      <point x="125" y="688"/>
      <point x="75" y="688"/>
      <point x="26" y="688" type="curve"/>
      <point x="26" y="591"/>
      <point x="26" y="688"/>
      <point x="26" y="591" type="curve"/>
      <point x="75" y="591"/>
      <point x="125" y="591"/>
      <point x="174" y="591" type="curve"/>
      <point x="174" y="688"/>
      <point x="174" y="591"/>
    </contour>
    <contour>
      <point x="100" y="591" type="move" name="_top"/>
    </contour>
  </outline>
</glyph>
<glyph name="degree" format="1">
  <advance width="360"/>
  <unicode hex="00B0"/>
  <outline>
    <contour>
      <point x="325" y="618" type="curve"/>
      <point x="325" y="717"/>
      <point x="273" y="784"/>
      <point x="177" y="784" type="curve"/>
      <point x="84" y="784"/>
      <point x="35" y="715"/>
      <point x="35" y="618" type="curve"/>
      <point x="63" y="618"/>
      <point x="107" y="618"/>
      <point x="135" y="618" type="curve"/>
      <point x="135" y="660"/>
      <point x="142" y="696"/>
      <point x="177" y="696" type="curve"/>
      <point x="213" y="696"/>
      <point x="221" y="660"/>
      <point x="221" y="618" type="curve"/>
      <point x="221" y="575"/>
      <point x="215" y="540"/>
      <point x="180" y="540" type="curve"/>
      <point x="143" y="540"/>
      <point x="135" y="576"/>
      <point x="135" y="618" type="curve"/>
      <point x="107" y="618"/>
      <point x="63" y="618"/>
      <point x="35" y="618" type="curve"/>
      <point x="35" y="519"/>
      <point x="85" y="451"/>
      <point x="180" y="451" type="curve"/>
      <point x="276" y="451"/>
      <point x="325" y="519"/>
    </contour>
  </outline>
</glyph>
<glyph name="plusminus" format="1">
  <advance width="597"/>
  <unicode hex="00B1"/>
  <outline>
    <contour>
      <point x="48" y="57" type="line"/>
      <point x="550" y="57" type="line"/>
      <point x="550" y="164" type="line"/>
      <point x="48" y="164" type="line"/>
    </contour>
    <contour>
      <point x="48" y="261" type="curve"/>
      <point x="550" y="261" type="line"/>
      <point x="550" y="369"/>
      <point x="550" y="261"/>
      <point x="550" y="369" type="curve"/>
      <point x="48" y="369" type="line"/>
      <point x="48" y="261"/>
      <point x="48" y="369"/>
    </contour>
    <contour>
      <point x="356" y="58" type="curve"/>
      <point x="356" y="578" type="line"/>
      <point x="231" y="578"/>
      <point x="365" y="578"/>
      <point x="240" y="578" type="curve"/>
      <point x="240" y="58" type="line"/>
      <point x="365" y="58"/>
      <point x="231" y="58"/>
    </contour>
  </outline>
</glyph>
<glyph name="twosuperior" format="1">
  <advance width="346"/>
  <unicode hex="00B2"/>
  <outline>
    <contour>
      <point x="38" y="403" type="curve"/>
      <point x="116" y="403"/>
      <point x="228" y="403"/>
      <point x="302" y="403" type="curve"/>
      <point x="302" y="442"/>
      <point x="302" y="428"/>
      <point x="302" y="479" type="curve"/>
      <point x="224" y="479"/>
      <point x="116" y="479"/>
      <point x="38" y="479" type="curve"/>
      <point x="38" y="403"/>
      <point x="38" y="479"/>
    </contour>
    <contour>
      <point x="128" y="698" type="curve"/>
      <point x="132" y="726"/>
      <point x="140" y="754"/>
      <point x="168" y="754" type="curve"/>
      <point x="194" y="754"/>
      <point x="201" y="726"/>
      <point x="201" y="692" type="curve"/>
      <point x="201" y="657"/>
      <point x="183" y="637"/>
      <point x="160" y="610" type="curve"/>
      <point x="120" y="567"/>
      <point x="79" y="522"/>
      <point x="38" y="479" type="curve"/>
      <point x="40" y="403"/>
      <point x="38" y="479"/>
      <point x="39" y="403" type="curve"/>
      <point x="93" y="449"/>
      <point x="178" y="499"/>
      <point x="225" y="550" type="curve"/>
      <point x="264" y="596"/>
      <point x="292" y="634"/>
      <point x="292" y="697" type="curve"/>
      <point x="292" y="775"/>
      <point x="247" y="829"/>
      <point x="170" y="829" type="curve"/>
      <point x="112" y="829"/>
      <point x="71" y="803"/>
      <point x="58" y="720" type="curve"/>
      <point x="128" y="698"/>
      <point x="58" y="720"/>
    </contour>
    <contour>
      <point x="181" y="830" type="move" name="_top"/>
    </contour>
    <contour>
      <point x="160" y="403" type="move" name="_bottom"/>
    </contour>
  </outline>
</glyph>
<glyph name="threesuperior" format="1">
  <advance width="308"/>
  <unicode hex="00B3"/>
  <outline>
    <contour>
      <point x="95" y="720" type="curve"/>
      <point x="104" y="733"/>
      <point x="112" y="748"/>
      <point x="131" y="748" type="curve"/>
      <point x="153" y="748"/>
      <point x="164" y="727"/>
      <point x="164" y="698" type="curve"/>
      <point x="164" y="665"/>
      <point x="138" y="650"/>
      <point x="104" y="646" type="curve"/>
      <point x="104" y="581"/>
      <point x="104" y="646"/>
      <point x="104" y="581" type="curve"/>
      <point x="193" y="584"/>
      <point x="260" y="625"/>
      <point x="260" y="705" type="curve"/>
      <point x="260" y="780"/>
      <point x="214" y="825"/>
      <point x="140" y="825" type="curve"/>
      <point x="96" y="825"/>
      <point x="57" y="803"/>
      <point x="34" y="768" type="curve"/>
      <point x="95" y="720"/>
      <point x="34" y="768"/>
    </contour>
    <contour>
      <point x="34" y="431" type="curve"/>
      <point x="61" y="408"/>
      <point x="90" y="395"/>
      <point x="125" y="395" type="curve"/>
      <point x="214" y="395"/>
      <point x="270" y="440"/>
      <point x="271" y="525" type="curve"/>
      <point x="271" y="605"/>
      <point x="195" y="633"/>
      <point x="104" y="637" type="curve"/>
      <point x="104" y="581"/>
      <point x="104" y="637"/>
      <point x="104" y="581" type="curve"/>
      <point x="145" y="577"/>
      <point x="174" y="556"/>
      <point x="174" y="520" type="curve"/>
      <point x="174" y="492"/>
      <point x="160" y="470"/>
      <point x="133" y="471" type="curve"/>
      <point x="115" y="471"/>
      <point x="97" y="476"/>
      <point x="85" y="488" type="curve"/>
      <point x="34" y="431"/>
      <point x="85" y="488"/>
    </contour>
    <contour>
      <point x="148" y="825" type="move" name="_top"/>
    </contour>
    <contour>
      <point x="150" y="396" type="move" name="_bottom"/>
    </contour>
  </outline>
</glyph>
<glyph name="paragraph" format="1">
  <advance width="640"/>
  <unicode hex="00B6"/>
  <outline>
    <contour>
      <point x="329" y="625" type="curve"/>
      <point x="457" y="625"/>
      <point x="329" y="625"/>
      <point x="457" y="625" type="curve"/>
      <point x="457" y="722"/>
      <point x="457" y="625"/>
      <point x="457" y="722" type="curve"/>
      <point x="414" y="722"/>
      <point x="371" y="722"/>
      <point x="329" y="722" type="curve"/>
      <point x="329" y="625"/>
      <point x="329" y="722"/>
    </contour>
    <contour>
      <point x="308" y="383" type="curve"/>
      <point x="279" y="362"/>
      <point x="256" y="350"/>
      <point x="220" y="350" type="curve"/>
      <point x="166" y="350"/>
      <point x="153" y="410"/>
      <point x="153" y="477" type="curve"/>
      <point x="153" y="555"/>
      <point x="182" y="625"/>
      <point x="252" y="625" type="curve"/>
      <point x="277" y="625"/>
      <point x="302" y="625"/>
      <point x="326" y="625" type="curve"/>
      <point x="326" y="722"/>
      <point x="326" y="625"/>
      <point x="326" y="722" type="curve"/>
      <point x="297" y="722"/>
      <point x="266" y="722"/>
      <point x="235" y="722" type="curve"/>
      <point x="103" y="722"/>
      <point x="28" y="619"/>
      <point x="28" y="481" type="curve"/>
      <point x="28" y="348"/>
      <point x="103" y="259"/>
      <point x="231" y="257" type="curve"/>
      <point x="276" y="257"/>
      <point x="312" y="278"/>
      <point x="347" y="303" type="curve"/>
      <point x="308" y="383"/>
      <point x="346" y="306"/>
    </contour>
    <contour>
      <point x="392" y="0" type="curve"/>
      <point x="392" y="241"/>
      <point x="392" y="481"/>
      <point x="392" y="722" type="curve"/>
      <point x="267" y="722"/>
      <point x="392" y="722"/>
      <point x="267" y="722" type="curve"/>
      <point x="267" y="481"/>
      <point x="267" y="241"/>
      <point x="267" y="0" type="curve"/>
      <point x="392" y="0"/>
      <point x="267" y="0"/>
    </contour>
    <contour>
      <point x="576" y="0" type="curve"/>
      <point x="576" y="241"/>
      <point x="576" y="481"/>
      <point x="576" y="722" type="curve"/>
      <point x="451" y="722"/>
      <point x="576" y="722"/>
      <point x="451" y="722" type="curve"/>
      <point x="451" y="481"/>
      <point x="451" y="241"/>
      <point x="451" y="0" type="curve"/>
      <point x="576" y="0"/>
      <point x="451" y="0"/>
    </contour>
  </outline>
</glyph>
<glyph name="periodcentered" format="1">
  <advance width="213"/>
  <unicode hex="00B7"/>
  <outline>
    <contour>
      <point x="170" y="440" type="curve"/>
      <point x="170" y="483"/>
      <point x="143" y="504"/>
      <point x="105" y="504" type="curve"/>
      <point x="67" y="504"/>
      <point x="42" y="481"/>
      <point x="42" y="440" type="curve"/>
      <point x="171" y="440"/>
      <point x="42" y="440"/>
      <point x="170" y="440" type="curve"/>
      <point x="170" y="397"/>
      <point x="144" y="377"/>
      <point x="105" y="377" type="curve"/>
      <point x="66" y="377"/>
      <point x="42" y="398"/>
      <point x="42" y="440" type="curve"/>
      <point x="171" y="440"/>
      <point x="42" y="440"/>
    </contour>
  </outline>
</glyph>
<glyph name="cedilla" format="1">
  <advance width="269"/>
  <unicode hex="00B8"/>
  <outline>
    <contour>
      <point x="94" y="144" type="curve"/>
      <point x="85" y="122"/>
      <point x="55" y="37"/>
      <point x="46" y="14" type="curve"/>
      <point x="132" y="-64"/>
      <point x="46" y="14"/>
      <point x="132" y="-64" type="curve"/>
      <point x="142" y="-38"/>
      <point x="180" y="50"/>
      <point x="190" y="76" type="curve"/>
      <point x="94" y="144"/>
      <point x="190" y="76"/>
    </contour>
    <contour>
      <point x="132" y="-64" type="curve"/>
      <point x="137" y="-59"/>
      <point x="141" y="-55"/>
      <point x="148" y="-55" type="curve"/>
      <point x="157" y="-55"/>
      <point x="162" y="-61"/>
      <point x="162" y="-73" type="curve"/>
      <point x="162" y="-88"/>
      <point x="149" y="-95"/>
      <point x="133" y="-95" type="curve"/>
      <point x="116" y="-95"/>
      <point x="103" y="-92"/>
      <point x="90" y="-82" type="curve"/>
      <point x="41" y="-152"/>
      <point x="90" y="-82"/>
      <point x="41" y="-152" type="curve"/>
      <point x="67" y="-172"/>
      <point x="93" y="-180"/>
      <point x="126" y="-180" type="curve"/>
      <point x="189" y="-180"/>
      <point x="230" y="-140"/>
      <point x="230" y="-72" type="curve"/>
      <point x="230" y="-7"/>
      <point x="193" y="37"/>
      <point x="131" y="37" type="curve"/>
      <point x="98" y="37"/>
      <point x="74" y="33"/>
      <point x="46" y="14" type="curve"/>
      <point x="132" y="-64"/>
      <point x="46" y="14"/>
    </contour>
    <contour>
      <point x="186" y="76" type="move" name="_bottom"/>
    </contour>
  </outline>
</glyph>
<glyph name="onesuperior" format="1">
  <advance width="247"/>
  <unicode hex="00B9"/>
  <outline>
    <contour>
      <point x="67" y="677" type="line"/>
      <point x="188" y="818" type="line"/>
      <point x="92" y="819" type="line"/>
      <point x="10" y="734" type="line"/>
    </contour>
    <contour>
      <point x="188" y="403" type="curve"/>
      <point x="188" y="819" type="line"/>
      <point x="92" y="819" type="line"/>
      <point x="92" y="403" type="line"/>
      <point x="149" y="403"/>
      <point x="109" y="403"/>
    </contour>
    <contour>
      <point x="129" y="819" type="move" name="_top"/>
    </contour>
    <contour>
      <point x="139" y="403" type="move" name="_bottom"/>
    </contour>
  </outline>
</glyph>
<glyph name="ordmasculine" format="1">
  <advance width="324"/>
  <unicode hex="00BA"/>
  <outline>
    <contour>
      <point x="107" y="593" type="curve"/>
      <point x="107" y="645"/>
      <point x="113" y="698"/>
      <point x="159" y="698" type="curve"/>
      <point x="204" y="698"/>
      <point x="211" y="646"/>
      <point x="211" y="593" type="curve"/>
      <point x="211" y="537"/>
      <point x="207" y="487"/>
      <point x="165" y="487" type="curve"/>
      <point x="111" y="487"/>
      <point x="107" y="537"/>
      <point x="107" y="593" type="curve"/>
      <point x="118" y="593"/>
      <point x="23" y="593"/>
      <point x="34" y="593" type="curve"/>
      <point x="34" y="494"/>
      <point x="72" y="421"/>
      <point x="161" y="421" type="curve"/>
      <point x="250" y="421"/>
      <point x="291" y="493"/>
      <point x="291" y="593" type="curve"/>
      <point x="291" y="692"/>
      <point x="252" y="764"/>
      <point x="163" y="764" type="curve"/>
      <point x="72" y="764"/>
      <point x="34" y="692"/>
      <point x="34" y="593" type="curve"/>
      <point x="23" y="593"/>
      <point x="118" y="593"/>
    </contour>
  </outline>
</glyph>
<glyph name="guillemotright" format="1">
  <advance width="398"/>
  <unicode hex="00BB"/>
  <outline>
    <contour>
      <point x="217" y="478" type="curve"/>
      <point x="250" y="448"/>
      <point x="328" y="380"/>
      <point x="361" y="350" type="curve"/>
      <point x="361" y="241"/>
      <point x="361" y="330"/>
      <point x="361" y="221" type="curve"/>
      <point x="328" y="252"/>
      <point x="250" y="331"/>
      <point x="217" y="361" type="curve"/>
      <point x="217" y="468"/>
      <point x="217" y="371"/>
    </contour>
    <contour>
      <point x="217" y="213" type="curve"/>
      <point x="249" y="243"/>
      <point x="328" y="319"/>
      <point x="361" y="350" type="curve"/>
      <point x="361" y="241"/>
      <point x="361" y="330"/>
      <point x="361" y="221" type="curve"/>
      <point x="328" y="191"/>
      <point x="249" y="125"/>
      <point x="217" y="96" type="curve"/>
      <point x="217" y="203"/>
      <point x="217" y="106"/>
    </contour>
    <contour>
      <point x="57" y="478" type="curve"/>
      <point x="90" y="448"/>
      <point x="168" y="380"/>
      <point x="202" y="350" type="curve"/>
      <point x="202" y="241"/>
      <point x="202" y="330"/>
      <point x="202" y="221" type="curve"/>
      <point x="168" y="252"/>
      <point x="90" y="331"/>
      <point x="57" y="361" type="curve"/>
      <point x="57" y="468"/>
      <point x="57" y="371"/>
    </contour>
    <contour>
      <point x="57" y="213" type="curve"/>
      <point x="90" y="243"/>
      <point x="168" y="319"/>
      <point x="202" y="350" type="curve"/>
      <point x="202" y="241"/>
      <point x="202" y="330"/>
      <point x="202" y="221" type="curve"/>
      <point x="168" y="191"/>
      <point x="90" y="125"/>
      <point x="57" y="96" type="curve"/>
      <point x="57" y="203"/>
      <point x="57" y="106"/>
    </contour>
  </outline>
</glyph>
<glyph name="onequarter" format="1">
  <advance width="773"/>
  <unicode hex="00BC"/>
  <outline>
    <contour>
      <point x="299" y="-43" type="line"/>
      <point x="580" y="714" type="line"/>
      <point x="465" y="714" type="line"/>
      <point x="184" y="-43" type="line"/>
    </contour>
    <contour>
      <point x="80" y="570" type="line"/>
      <point x="201" y="712" type="line"/>
      <point x="105" y="713" type="line"/>
      <point x="23" y="627" type="line"/>
    </contour>
    <contour>
      <point x="201" y="297" type="curve"/>
      <point x="201" y="713" type="line"/>
      <point x="105" y="713" type="line"/>
      <point x="105" y="297" type="line"/>
      <point x="162" y="297"/>
      <point x="122" y="297"/>
    </contour>
    <contour>
      <point x="741" y="144" type="line"/>
      <point x="458" y="144" type="line"/>
      <point x="458" y="68" type="line"/>
      <point x="741" y="68" type="line"/>
    </contour>
    <contour>
      <point x="499" y="72" type="line"/>
      <point x="662" y="373" type="line"/>
      <point x="595" y="389" type="line"/>
      <point x="458" y="144" type="line"/>
    </contour>
    <contour>
      <point x="691" y="-35" type="line"/>
      <point x="691" y="389" type="line"/>
      <point x="595" y="389" type="line"/>
      <point x="595" y="-35" type="line"/>
    </contour>
  </outline>
</glyph>
<glyph name="onehalf" format="1">
  <advance width="864"/>
  <unicode hex="00BD"/>
  <outline>
    <contour>
      <point x="342" y="-43" type="line"/>
      <point x="624" y="714" type="line"/>
      <point x="509" y="714" type="line"/>
      <point x="228" y="-43" type="line"/>
    </contour>
    <contour>
      <point x="80" y="570" type="line"/>
      <point x="201" y="712" type="line"/>
      <point x="105" y="713" type="line"/>
      <point x="23" y="627" type="line"/>
    </contour>
    <contour>
      <point x="201" y="297" type="curve"/>
      <point x="201" y="713" type="line"/>
      <point x="105" y="713" type="line"/>
      <point x="105" y="297" type="line"/>
      <point x="162" y="297"/>
      <point x="122" y="297"/>
    </contour>
    <contour>
      <point x="566" y="-37" type="curve"/>
      <point x="643" y="-37"/>
      <point x="755" y="-37"/>
      <point x="829" y="-37" type="curve"/>
      <point x="829" y="2"/>
      <point x="829" y="-12"/>
      <point x="829" y="39" type="curve"/>
      <point x="751" y="39"/>
      <point x="644" y="39"/>
      <point x="566" y="39" type="curve"/>
      <point x="566" y="-37"/>
      <point x="566" y="39"/>
    </contour>
    <contour>
      <point x="655" y="257" type="curve"/>
      <point x="659" y="285"/>
      <point x="667" y="313"/>
      <point x="695" y="313" type="curve"/>
      <point x="721" y="313"/>
      <point x="728" y="285"/>
      <point x="728" y="252" type="curve"/>
      <point x="728" y="217"/>
      <point x="710" y="196"/>
      <point x="687" y="170" type="curve"/>
      <point x="647" y="126"/>
      <point x="606" y="82"/>
      <point x="566" y="39" type="curve"/>
      <point x="567" y="-38"/>
      <point x="565" y="39"/>
      <point x="566" y="-38" type="curve"/>
      <point x="620" y="9"/>
      <point x="705" y="59"/>
      <point x="752" y="109" type="curve"/>
      <point x="791" y="156"/>
      <point x="819" y="194"/>
      <point x="819" y="257" type="curve"/>
      <point x="819" y="335"/>
      <point x="774" y="389"/>
      <point x="698" y="389" type="curve"/>
      <point x="639" y="389"/>
      <point x="598" y="362"/>
      <point x="585" y="279" type="curve"/>
      <point x="655" y="257"/>
      <point x="585" y="279"/>
    </contour>
  </outline>
</glyph>
<glyph name="threequarters" format="1">
  <advance width="818"/>
  <unicode hex="00BE"/>
  <outline>
    <contour>
      <point x="347" y="-43" type="line"/>
      <point x="628" y="714" type="line"/>
      <point x="514" y="714" type="line"/>
      <point x="233" y="-43" type="line"/>
    </contour>
    <contour>
      <point x="93" y="608" type="curve"/>
      <point x="102" y="621"/>
      <point x="111" y="636"/>
      <point x="129" y="636" type="curve"/>
      <point x="152" y="636"/>
      <point x="163" y="614"/>
      <point x="163" y="585" type="curve"/>
      <point x="163" y="553"/>
      <point x="136" y="537"/>
      <point x="103" y="533" type="curve"/>
      <point x="103" y="468"/>
      <point x="103" y="533"/>
      <point x="103" y="468" type="curve"/>
      <point x="191" y="472"/>
      <point x="259" y="512"/>
      <point x="259" y="593" type="curve"/>
      <point x="259" y="667"/>
      <point x="212" y="713"/>
      <point x="138" y="713" type="curve"/>
      <point x="95" y="713"/>
      <point x="55" y="690"/>
      <point x="33" y="655" type="curve"/>
      <point x="93" y="608"/>
      <point x="33" y="655"/>
    </contour>
    <contour>
      <point x="32" y="318" type="curve"/>
      <point x="59" y="296"/>
      <point x="88" y="282"/>
      <point x="123" y="282" type="curve"/>
      <point x="213" y="282"/>
      <point x="269" y="327"/>
      <point x="269" y="412" type="curve"/>
      <point x="269" y="493"/>
      <point x="194" y="521"/>
      <point x="103" y="525" type="curve"/>
      <point x="103" y="468"/>
      <point x="103" y="525"/>
      <point x="103" y="468" type="curve"/>
      <point x="143" y="464"/>
      <point x="172" y="443"/>
      <point x="172" y="407" type="curve"/>
      <point x="172" y="379"/>
      <point x="158" y="358"/>
      <point x="131" y="359" type="curve"/>
      <point x="113" y="359"/>
      <point x="95" y="363"/>
      <point x="83" y="375" type="curve"/>
      <point x="32" y="318"/>
      <point x="83" y="375"/>
    </contour>
    <contour>
      <point x="792" y="144" type="line"/>
      <point x="509" y="144" type="line"/>
      <point x="509" y="68" type="line"/>
      <point x="792" y="68" type="line"/>
    </contour>
    <contour>
      <point x="549" y="72" type="line"/>
      <point x="712" y="373" type="line"/>
      <point x="646" y="389" type="line"/>
      <point x="509" y="144" type="line"/>
    </contour>
    <contour>
      <point x="742" y="-35" type="line"/>
      <point x="742" y="389" type="line"/>
      <point x="646" y="389" type="line"/>
      <point x="646" y="-35" type="line"/>
    </contour>
  </outline>
</glyph>
<glyph name="questiondown" format="1">
  <advance width="436"/>
  <unicode hex="00BF"/>
  <outline>
    <contour>
      <point x="273" y="373" type="curve"/>
      <point x="273" y="410"/>
      <point x="273" y="488"/>
      <point x="273" y="525" type="curve"/>
      <point x="161" y="525"/>
      <point x="273" y="525"/>
      <point x="161" y="525" type="curve"/>
      <point x="161" y="488"/>
      <point x="161" y="410"/>
      <point x="161" y="373" type="curve"/>
      <point x="273" y="373"/>
      <point x="161" y="373"/>
    </contour>
    <contour>
      <point x="330" y="157" type="line"/>
      <point x="302" y="124"/>
      <point x="279" y="105"/>
      <point x="239" y="105" type="curve"/>
      <point x="176" y="105"/>
      <point x="149" y="160"/>
      <point x="149" y="228" type="curve"/>
      <point x="149" y="310"/>
      <point x="186" y="373"/>
      <point x="260" y="373" type="curve"/>
      <point x="260" y="409"/>
      <point x="261" y="430"/>
      <point x="261" y="466" type="curve"/>
      <point x="117" y="466"/>
      <point x="30" y="371"/>
      <point x="30" y="228" type="curve"/>
      <point x="30" y="90"/>
      <point x="109" y="0"/>
      <point x="234" y="0" type="curve"/>
      <point x="306" y="0"/>
      <point x="360" y="25"/>
      <point x="397" y="76" type="curve"/>
    </contour>
    <contour>
      <point x="152" y="685" type="curve"/>
      <point x="152" y="642"/>
      <point x="180" y="621"/>
      <point x="217" y="621" type="curve"/>
      <point x="255" y="621"/>
      <point x="280" y="644"/>
      <point x="280" y="685" type="curve"/>
      <point x="152" y="685"/>
      <point x="280" y="685"/>
      <point x="152" y="685" type="curve"/>
      <point x="152" y="728"/>
      <point x="179" y="748"/>
      <point x="217" y="748" type="curve"/>
      <point x="256" y="748"/>
      <point x="280" y="727"/>
      <point x="280" y="685" type="curve"/>
      <point x="152" y="685"/>
      <point x="280" y="685"/>
    </contour>
  </outline>
</glyph>
<glyph name="Aacute" format="1">
  <advance width="515"/>
  <unicode hex="00C1"/>
  <outline>
    <contour>
      <point x="355" y="289" type="curve"/>
      <point x="291" y="289"/>
      <point x="227" y="289"/>
      <point x="164" y="289" type="curve"/>
      <point x="112" y="185"/>
      <point x="164" y="289"/>
      <point x="112" y="185" type="curve"/>
      <point x="206" y="185"/>
      <point x="301" y="185"/>
      <point x="395" y="185" type="curve"/>
      <point x="355" y="289"/>
      <point x="395" y="185"/>
    </contour>
    <contour>
      <point x="504" y="0" type="curve"/>
      <point x="445" y="241"/>
      <point x="379" y="481"/>
      <point x="319" y="722" type="curve"/>
      <point x="206" y="722"/>
      <point x="319" y="722"/>
      <point x="206" y="722" type="curve"/>
      <point x="263" y="482"/>
      <point x="315" y="240"/>
      <point x="374" y="0" type="curve"/>
      <point x="504" y="0"/>
      <point x="374" y="0"/>
    </contour>
    <contour>
      <point x="132" y="0" type="curve"/>
      <point x="197" y="240"/>
      <point x="252" y="482"/>
      <point x="318" y="722" type="curve"/>
      <point x="205" y="722"/>
      <point x="318" y="722"/>
      <point x="205" y="722" type="curve"/>
      <point x="138" y="480"/>
      <point x="61" y="242"/>
      <point x="-4" y="0" type="curve"/>
      <point x="132" y="0"/>
      <point x="-4" y="0"/>
    </contour>
    <contour>
      <point x="315" y="785" type="line"/>
      <point x="421" y="951" type="line"/>
      <point x="270" y="951" type="line"/>
      <point x="198" y="785" type="line"/>
    </contour>
  </outline>
</glyph>
<glyph name="Atilde" format="1">
  <advance width="515"/>
  <unicode hex="00C3"/>
  <outline>
    <contour>
      <point x="355" y="289" type="curve"/>
      <point x="291" y="289"/>
      <point x="227" y="289"/>
      <point x="164" y="289" type="curve"/>
      <point x="112" y="185"/>
      <point x="164" y="289"/>
      <point x="112" y="185" type="curve"/>
      <point x="206" y="185"/>
      <point x="301" y="185"/>
      <point x="395" y="185" type="curve"/>
      <point x="355" y="289"/>
      <point x="395" y="185"/>
    </contour>
    <contour>
      <point x="504" y="0" type="curve"/>
      <point x="445" y="241"/>
      <point x="379" y="481"/>
      <point x="319" y="722" type="curve"/>
      <point x="206" y="722"/>
      <point x="319" y="722"/>
      <point x="206" y="722" type="curve"/>
      <point x="263" y="482"/>
      <point x="315" y="240"/>
      <point x="374" y="0" type="curve"/>
      <point x="504" y="0"/>
      <point x="374" y="0"/>
    </contour>
    <contour>
      <point x="132" y="0" type="curve"/>
      <point x="197" y="240"/>
      <point x="252" y="482"/>
      <point x="318" y="722" type="curve"/>
      <point x="205" y="722"/>
      <point x="318" y="722"/>
      <point x="205" y="722" type="curve"/>
      <point x="138" y="480"/>
      <point x="61" y="242"/>
      <point x="-4" y="0" type="curve"/>
      <point x="132" y="0"/>
      <point x="-4" y="0"/>
    </contour>
    <contour>
      <point x="345" y="971" type="curve"/>
      <point x="328" y="934"/>
      <point x="318" y="926"/>
      <point x="304" y="926" type="curve"/>
      <point x="280" y="926"/>
      <point x="269" y="933"/>
      <point x="253" y="948" type="curve"/>
      <point x="231" y="967"/>
      <point x="222" y="977"/>
      <point x="196" y="977" type="curve"/>
      <point x="132" y="977"/>
      <point x="103" y="906"/>
      <point x="86" y="846" type="curve"/>
      <point x="178" y="792"/>
      <point x="85" y="848"/>
      <point x="177" y="792" type="curve"/>
      <point x="196" y="833"/>
      <point x="209" y="842"/>
      <point x="228" y="842" type="curve"/>
      <point x="247" y="842"/>
      <point x="255" y="835"/>
      <point x="267" y="822" type="curve"/>
      <point x="293" y="799"/>
      <point x="306" y="786"/>
      <point x="338" y="786" type="curve"/>
      <point x="402" y="786"/>
      <point x="420" y="852"/>
      <point x="444" y="918" type="curve"/>
      <point x="345" y="971"/>
      <point x="444" y="917"/>
    </contour>
  </outline>
</glyph>
<glyph name="Adieresis" format="1">
  <advance width="515"/>
  <unicode hex="00C4"/>
  <outline>
    <contour>
      <point x="355" y="289" type="curve"/>
      <point x="291" y="289"/>
      <point x="227" y="289"/>
      <point x="164" y="289" type="curve"/>
      <point x="112" y="185"/>
      <point x="164" y="289"/>
      <point x="112" y="185" type="curve"/>
      <point x="206" y="185"/>
      <point x="301" y="185"/>
      <point x="395" y="185" type="curve"/>
      <point x="355" y="289"/>
      <point x="395" y="185"/>
    </contour>
    <contour>
      <point x="504" y="0" type="curve"/>
      <point x="445" y="241"/>
      <point x="379" y="481"/>
      <point x="319" y="722" type="curve"/>
      <point x="206" y="722"/>
      <point x="319" y="722"/>
      <point x="206" y="722" type="curve"/>
      <point x="263" y="482"/>
      <point x="315" y="240"/>
      <point x="374" y="0" type="curve"/>
      <point x="504" y="0"/>
      <point x="374" y="0"/>
    </contour>
    <contour>
      <point x="132" y="0" type="curve"/>
      <point x="197" y="240"/>
      <point x="252" y="482"/>
      <point x="318" y="722" type="curve"/>
      <point x="205" y="722"/>
      <point x="318" y="722"/>
      <point x="205" y="722" type="curve"/>
      <point x="138" y="480"/>
      <point x="61" y="242"/>
      <point x="-4" y="0" type="curve"/>
      <point x="132" y="0"/>
      <point x="-4" y="0"/>
    </contour>
    <contour>
      <point x="234" y="843" type="curve"/>
      <point x="234" y="886"/>
      <point x="207" y="907"/>
      <point x="170" y="907" type="curve"/>
      <point x="131" y="907"/>
      <point x="107" y="884"/>
      <point x="107" y="843" type="curve"/>
      <point x="235" y="843"/>
      <point x="106" y="843"/>
      <point x="234" y="843" type="curve"/>
      <point x="234" y="800"/>
      <point x="208" y="780"/>
      <point x="170" y="780" type="curve"/>
      <point x="131" y="780"/>
      <point x="107" y="801"/>
      <point x="107" y="843" type="curve"/>
      <point x="235" y="843"/>
      <point x="106" y="843"/>
    </contour>
    <contour>
      <point x="412" y="843" type="curve"/>
      <point x="412" y="886"/>
      <point x="385" y="907"/>
      <point x="347" y="907" type="curve"/>
      <point x="309" y="907"/>
      <point x="284" y="884"/>
      <point x="284" y="843" type="curve"/>
      <point x="413" y="843"/>
      <point x="284" y="843"/>
      <point x="412" y="843" type="curve"/>
      <point x="412" y="800"/>
      <point x="386" y="780"/>
      <point x="348" y="780" type="curve"/>
      <point x="308" y="780"/>
      <point x="284" y="801"/>
      <point x="284" y="843" type="curve"/>
      <point x="413" y="843"/>
      <point x="284" y="843"/>
    </contour>
  </outline>
</glyph>
<glyph name="Aring" format="1">
  <advance width="515"/>
  <unicode hex="00C5"/>
  <outline>
    <contour>
      <point x="355" y="289" type="curve"/>
      <point x="291" y="289"/>
      <point x="227" y="289"/>
      <point x="164" y="289" type="curve"/>
      <point x="112" y="185"/>
      <point x="164" y="289"/>
      <point x="112" y="185" type="curve"/>
      <point x="206" y="185"/>
      <point x="301" y="185"/>
      <point x="395" y="185" type="curve"/>
      <point x="355" y="289"/>
      <point x="395" y="185"/>
    </contour>
    <contour>
      <point x="504" y="0" type="curve"/>
      <point x="445" y="241"/>
      <point x="379" y="481"/>
      <point x="319" y="722" type="curve"/>
      <point x="206" y="722"/>
      <point x="319" y="722"/>
      <point x="206" y="722" type="curve"/>
      <point x="263" y="482"/>
      <point x="315" y="240"/>
      <point x="374" y="0" type="curve"/>
      <point x="504" y="0"/>
      <point x="374" y="0"/>
    </contour>
    <contour>
      <point x="132" y="0" type="curve"/>
      <point x="197" y="240"/>
      <point x="252" y="482"/>
      <point x="318" y="722" type="curve"/>
      <point x="205" y="722"/>
      <point x="318" y="722"/>
      <point x="205" y="722" type="curve"/>
      <point x="138" y="480"/>
      <point x="61" y="242"/>
      <point x="-4" y="0" type="curve"/>
      <point x="132" y="0"/>
      <point x="-4" y="0"/>
    </contour>
    <contour>
      <point x="130" y="928" type="curve"/>
      <point x="130" y="843"/>
      <point x="176" y="784"/>
      <point x="257" y="784" type="curve"/>
      <point x="339" y="784"/>
      <point x="385" y="843"/>
      <point x="385" y="928" type="curve"/>
      <point x="385" y="1012"/>
      <point x="338" y="1070"/>
      <point x="255" y="1070" type="curve"/>
      <point x="175" y="1070"/>
      <point x="130" y="1011"/>
      <point x="130" y="928" type="curve"/>
      <point x="241" y="928"/>
      <point x="119" y="928"/>
      <point x="231" y="928" type="curve"/>
      <point x="231" y="951"/>
      <point x="227" y="980"/>
      <point x="255" y="980" type="curve"/>
      <point x="281" y="980"/>
      <point x="280" y="951"/>
      <point x="280" y="928" type="curve"/>
      <point x="280" y="904"/>
      <point x="283" y="875"/>
      <point x="257" y="875" type="curve"/>
      <point x="230" y="875"/>
      <point x="231" y="904"/>
      <point x="231" y="928" type="curve"/>
      <point x="119" y="928"/>
      <point x="241" y="928"/>
    </contour>
  </outline>
</glyph>
<glyph name="AE" format="1">
  <advance width="711"/>
  <unicode hex="00C6"/>
  <outline>
    <contour>
      <point x="356" y="275" type="curve"/>
      <point x="293" y="275"/>
      <point x="223" y="275"/>
      <point x="160" y="275" type="curve"/>
      <point x="108" y="171"/>
      <point x="160" y="275"/>
      <point x="108" y="171" type="curve"/>
      <point x="202" y="171"/>
      <point x="303" y="171"/>
      <point x="397" y="171" type="curve"/>
      <point x="356" y="275"/>
      <point x="397" y="171"/>
    </contour>
    <contour>
      <point x="123" y="0" type="curve"/>
      <point x="457" y="722" type="line"/>
      <point x="343" y="722"/>
      <point x="457" y="722"/>
      <point x="343" y="722" type="curve"/>
      <point x="-13" y="0" type="line"/>
      <point x="123" y="0"/>
      <point x="-13" y="0"/>
    </contour>
    <contour>
      <point x="409" y="323" type="curve"/>
      <point x="480" y="323"/>
      <point x="553" y="323"/>
      <point x="625" y="323" type="curve"/>
      <point x="625" y="422"/>
      <point x="625" y="323"/>
      <point x="625" y="422" type="curve"/>
      <point x="553" y="422"/>
      <point x="480" y="422"/>
      <point x="409" y="422" type="curve"/>
      <point x="409" y="323"/>
      <point x="409" y="422"/>
    </contour>
    <contour>
      <point x="398" y="625" type="curve"/>
      <point x="488" y="625"/>
      <point x="576" y="625"/>
      <point x="666" y="625" type="curve"/>
      <point x="666" y="722"/>
      <point x="666" y="625"/>
      <point x="666" y="722" type="curve"/>
      <point x="576" y="722"/>
      <point x="488" y="722"/>
      <point x="398" y="722" type="curve"/>
      <point x="398" y="625"/>
      <point x="398" y="722"/>
    </contour>
    <contour>
      <point x="468" y="0" type="curve"/>
      <point x="468" y="722" type="line"/>
      <point x="343" y="722"/>
      <point x="468" y="722"/>
      <point x="343" y="722" type="curve"/>
      <point x="343" y="481"/>
      <point x="343" y="241"/>
      <point x="343" y="0" type="curve"/>
      <point x="468" y="0"/>
      <point x="343" y="0"/>
    </contour>
    <contour>
      <point x="398" y="0" type="curve"/>
      <point x="495" y="0"/>
      <point x="592" y="0"/>
      <point x="688" y="0" type="curve"/>
      <point x="688" y="97"/>
      <point x="688" y="0"/>
      <point x="688" y="97" type="curve"/>
      <point x="592" y="97"/>
      <point x="495" y="97"/>
      <point x="398" y="97" type="curve"/>
      <point x="398" y="0"/>
      <point x="398" y="97"/>
    </contour>
  </outline>
</glyph>
<glyph name="Ccedilla" format="1">
  <advance width="509"/>
  <unicode hex="00C7"/>
  <outline>
    <contour>
      <point x="486" y="654" type="curve"/>
      <point x="436" y="697"/>
      <point x="374" y="727"/>
      <point x="302" y="727" type="curve"/>
      <point x="113" y="727"/>
      <point x="41" y="564"/>
      <point x="41" y="345" type="curve"/>
      <point x="41" y="145"/>
      <point x="112" y="-5"/>
      <point x="291" y="-5" type="curve"/>
      <point x="383" y="-5"/>
      <point x="447" y="31"/>
      <point x="499" y="100" type="curve"/>
      <point x="422" y="171"/>
      <point x="499" y="100"/>
      <point x="422" y="171" type="curve"/>
      <point x="387" y="128"/>
      <point x="354" y="97"/>
      <point x="297" y="97" type="curve"/>
      <point x="184" y="97"/>
      <point x="166" y="213"/>
      <point x="166" y="349" type="curve"/>
      <point x="166" y="498"/>
      <point x="180" y="625"/>
      <point x="298" y="625" type="curve"/>
      <point x="345" y="625"/>
      <point x="386" y="605"/>
      <point x="414" y="577" type="curve"/>
      <point x="486" y="654"/>
      <point x="414" y="577"/>
    </contour>
    <contour>
      <point x="237" y="72" type="curve"/>
      <point x="228" y="50"/>
      <point x="198" y="-36"/>
      <point x="189" y="-58" type="curve"/>
      <point x="275" y="-136"/>
      <point x="189" y="-58"/>
      <point x="275" y="-136" type="curve"/>
      <point x="285" y="-110"/>
      <point x="322" y="-23"/>
      <point x="333" y="3" type="curve"/>
      <point x="237" y="72"/>
      <point x="333" y="3"/>
    </contour>
    <contour>
      <point x="275" y="-136" type="curve"/>
      <point x="280" y="-131"/>
      <point x="284" y="-127"/>
      <point x="291" y="-127" type="curve"/>
      <point x="300" y="-127"/>
      <point x="305" y="-133"/>
      <point x="305" y="-145" type="curve"/>
      <point x="305" y="-161"/>
      <point x="292" y="-168"/>
      <point x="276" y="-168" type="curve"/>
      <point x="259" y="-168"/>
      <point x="245" y="-164"/>
      <point x="233" y="-154" type="curve"/>
      <point x="183" y="-225"/>
      <point x="233" y="-154"/>
      <point x="183" y="-225" type="curve"/>
      <point x="209" y="-245"/>
      <point x="236" y="-252"/>
      <point x="269" y="-252" type="curve"/>
      <point x="332" y="-252"/>
      <point x="373" y="-212"/>
      <point x="373" y="-144" type="curve"/>
      <point x="373" y="-79"/>
      <point x="336" y="-35"/>
      <point x="274" y="-35" type="curve"/>
      <point x="241" y="-35"/>
      <point x="217" y="-40"/>
      <point x="189" y="-58" type="curve"/>
      <point x="275" y="-136"/>
      <point x="189" y="-58"/>
    </contour>
  </outline>
</glyph>
<glyph name="Egrave" format="1">
  <advance width="458"/>
  <unicode hex="00C8"/>
  <outline>
    <contour>
      <point x="155" y="323" type="curve"/>
      <point x="226" y="323"/>
      <point x="299" y="323"/>
      <point x="371" y="323" type="curve"/>
      <point x="371" y="422"/>
      <point x="371" y="323"/>
      <point x="371" y="422" type="curve"/>
      <point x="299" y="422"/>
      <point x="226" y="422"/>
      <point x="155" y="422" type="curve"/>
      <point x="155" y="323"/>
      <point x="155" y="422"/>
    </contour>
    <contour>
      <point x="144" y="625" type="curve"/>
      <point x="234" y="625"/>
      <point x="323" y="625"/>
      <point x="412" y="625" type="curve"/>
      <point x="412" y="722"/>
      <point x="412" y="625"/>
      <point x="412" y="722" type="curve"/>
      <point x="323" y="722"/>
      <point x="234" y="722"/>
      <point x="144" y="722" type="curve"/>
      <point x="144" y="625"/>
      <point x="144" y="722"/>
    </contour>
    <contour>
      <point x="214" y="0" type="curve"/>
      <point x="214" y="722" type="line"/>
      <point x="89" y="722"/>
      <point x="214" y="722"/>
      <point x="89" y="722" type="curve"/>
      <point x="89" y="481"/>
      <point x="89" y="241"/>
      <point x="89" y="0" type="curve"/>
      <point x="214" y="0"/>
      <point x="89" y="0"/>
    </contour>
    <contour>
      <point x="144" y="0" type="curve"/>
      <point x="241" y="0"/>
      <point x="338" y="0"/>
      <point x="434" y="0" type="curve"/>
      <point x="434" y="97"/>
      <point x="434" y="0"/>
      <point x="434" y="97" type="curve"/>
      <point x="338" y="97"/>
      <point x="241" y="97"/>
      <point x="144" y="97" type="curve"/>
      <point x="144" y="0"/>
      <point x="144" y="97"/>
    </contour>
    <contour>
      <point x="298" y="787" type="line"/>
      <point x="228" y="953" type="line"/>
      <point x="76" y="953" type="line"/>
      <point x="182" y="787" type="line"/>
    </contour>
  </outline>
</glyph>
<glyph name="Eacute" format="1">
  <advance width="441"/>
  <unicode hex="00C9"/>
  <outline>
    <contour>
      <point x="138" y="323" type="curve"/>
      <point x="209" y="323"/>
      <point x="282" y="323"/>
      <point x="354" y="323" type="curve"/>
      <point x="354" y="422"/>
      <point x="354" y="323"/>
      <point x="354" y="422" type="curve"/>
      <point x="282" y="422"/>
      <point x="209" y="422"/>
      <point x="138" y="422" type="curve"/>
      <point x="138" y="323"/>
      <point x="138" y="422"/>
    </contour>
    <contour>
      <point x="127" y="625" type="curve"/>
      <point x="217" y="625"/>
      <point x="306" y="625"/>
      <point x="395" y="625" type="curve"/>
      <point x="395" y="722"/>
      <point x="395" y="625"/>
      <point x="395" y="722" type="curve"/>
      <point x="306" y="722"/>
      <point x="217" y="722"/>
      <point x="127" y="722" type="curve"/>
      <point x="127" y="625"/>
      <point x="127" y="722"/>
    </contour>
    <contour>
      <point x="197" y="0" type="curve"/>
      <point x="197" y="722" type="line"/>
      <point x="72" y="722"/>
      <point x="197" y="722"/>
      <point x="72" y="722" type="curve"/>
      <point x="72" y="481"/>
      <point x="72" y="241"/>
      <point x="72" y="0" type="curve"/>
      <point x="197" y="0"/>
      <point x="72" y="0"/>
    </contour>
    <contour>
      <point x="127" y="0" type="curve"/>
      <point x="224" y="0"/>
      <point x="321" y="0"/>
      <point x="417" y="0" type="curve"/>
      <point x="417" y="97"/>
      <point x="417" y="0"/>
      <point x="417" y="97" type="curve"/>
      <point x="321" y="97"/>
      <point x="224" y="97"/>
      <point x="127" y="97" type="curve"/>
      <point x="127" y="0"/>
      <point x="127" y="97"/>
    </contour>
    <contour>
      <point x="281" y="785" type="line"/>
      <point x="387" y="951" type="line"/>
      <point x="235" y="951" type="line"/>
      <point x="164" y="785" type="line"/>
    </contour>
  </outline>
</glyph>
<glyph name="Ecircumflex" format="1">
  <advance width="418"/>
  <unicode hex="00CA"/>
  <outline>
    <contour>
      <point x="127" y="323" type="curve"/>
      <point x="199" y="323"/>
      <point x="272" y="323"/>
      <point x="344" y="323" type="curve"/>
      <point x="344" y="422"/>
      <point x="344" y="323"/>
      <point x="344" y="422" type="curve"/>
      <point x="272" y="422"/>
      <point x="199" y="422"/>
      <point x="127" y="422" type="curve"/>
      <point x="127" y="323"/>
      <point x="127" y="422"/>
    </contour>
    <contour>
      <point x="117" y="625" type="curve"/>
      <point x="207" y="625"/>
      <point x="295" y="625"/>
      <point x="385" y="625" type="curve"/>
      <point x="385" y="722"/>
      <point x="385" y="625"/>
      <point x="385" y="722" type="curve"/>
      <point x="295" y="722"/>
      <point x="207" y="722"/>
      <point x="117" y="722" type="curve"/>
      <point x="117" y="625"/>
      <point x="117" y="722"/>
    </contour>
    <contour>
      <point x="187" y="0" type="curve"/>
      <point x="187" y="722" type="line"/>
      <point x="62" y="722"/>
      <point x="187" y="722"/>
      <point x="62" y="722" type="curve"/>
      <point x="62" y="481"/>
      <point x="62" y="241"/>
      <point x="62" y="0" type="curve"/>
      <point x="187" y="0"/>
      <point x="62" y="0"/>
    </contour>
    <contour>
      <point x="117" y="0" type="curve"/>
      <point x="214" y="0"/>
      <point x="310" y="0"/>
      <point x="407" y="0" type="curve"/>
      <point x="407" y="97"/>
      <point x="407" y="0"/>
      <point x="407" y="97" type="curve"/>
      <point x="310" y="97"/>
      <point x="214" y="97"/>
      <point x="117" y="97" type="curve"/>
      <point x="117" y="0"/>
      <point x="117" y="97"/>
    </contour>
    <contour>
      <point x="159" y="786" type="line"/>
      <point x="265" y="952" type="line"/>
      <point x="113" y="952" type="line"/>
      <point x="42" y="786" type="line"/>
    </contour>
    <contour>
      <point x="385" y="786" type="line"/>
      <point x="314" y="952" type="line"/>
      <point x="163" y="952" type="line"/>
      <point x="269" y="786" type="line"/>
    </contour>
  </outline>
</glyph>
<glyph name="Edieresis" format="1">
  <advance width="439"/>
  <unicode hex="00CB"/>
  <outline>
    <contour>
      <point x="136" y="323" type="curve"/>
      <point x="207" y="323"/>
      <point x="280" y="323"/>
      <point x="352" y="323" type="curve"/>
      <point x="352" y="422"/>
      <point x="352" y="323"/>
      <point x="352" y="422" type="curve"/>
      <point x="280" y="422"/>
      <point x="207" y="422"/>
      <point x="136" y="422" type="curve"/>
      <point x="136" y="323"/>
      <point x="136" y="422"/>
    </contour>
    <contour>
      <point x="125" y="625" type="curve"/>
      <point x="215" y="625"/>
      <point x="304" y="625"/>
      <point x="393" y="625" type="curve"/>
      <point x="393" y="722"/>
      <point x="393" y="625"/>
      <point x="393" y="722" type="curve"/>
      <point x="304" y="722"/>
      <point x="215" y="722"/>
      <point x="125" y="722" type="curve"/>
      <point x="125" y="625"/>
      <point x="125" y="722"/>
    </contour>
    <contour>
      <point x="195" y="0" type="curve"/>
      <point x="195" y="722" type="line"/>
      <point x="70" y="722"/>
      <point x="195" y="722"/>
      <point x="70" y="722" type="curve"/>
      <point x="70" y="481"/>
      <point x="70" y="241"/>
      <point x="70" y="0" type="curve"/>
      <point x="195" y="0"/>
      <point x="70" y="0"/>
    </contour>
    <contour>
      <point x="125" y="0" type="curve"/>
      <point x="222" y="0"/>
      <point x="319" y="0"/>
      <point x="415" y="0" type="curve"/>
      <point x="415" y="97"/>
      <point x="415" y="0"/>
      <point x="415" y="97" type="curve"/>
      <point x="319" y="97"/>
      <point x="222" y="97"/>
      <point x="125" y="97" type="curve"/>
      <point x="125" y="0"/>
      <point x="125" y="97"/>
    </contour>
    <contour>
      <point x="198" y="843" type="curve"/>
      <point x="198" y="886"/>
      <point x="171" y="907"/>
      <point x="133" y="907" type="curve"/>
      <point x="95" y="907"/>
      <point x="70" y="884"/>
      <point x="70" y="843" type="curve"/>
      <point x="199" y="843"/>
      <point x="70" y="843"/>
      <point x="198" y="843" type="curve"/>
      <point x="198" y="800"/>
      <point x="172" y="780"/>
      <point x="134" y="780" type="curve"/>
      <point x="94" y="780"/>
      <point x="70" y="801"/>
      <point x="70" y="843" type="curve"/>
      <point x="199" y="843"/>
      <point x="70" y="843"/>
    </contour>
    <contour>
      <point x="376" y="843" type="curve"/>
      <point x="376" y="886"/>
      <point x="348" y="907"/>
      <point x="311" y="907" type="curve"/>
      <point x="273" y="907"/>
      <point x="248" y="884"/>
      <point x="248" y="843" type="curve"/>
      <point x="376" y="843"/>
      <point x="248" y="843"/>
      <point x="376" y="843" type="curve"/>
      <point x="376" y="800"/>
      <point x="349" y="780"/>
      <point x="311" y="780" type="curve"/>
      <point x="272" y="780"/>
      <point x="248" y="801"/>
      <point x="248" y="843" type="curve"/>
      <point x="376" y="843"/>
      <point x="248" y="843"/>
    </contour>
  </outline>
</glyph>
<glyph name="Igrave" format="1">
  <advance width="277"/>
  <unicode hex="00CC"/>
  <outline>
    <contour>
      <point x="205" y="0" type="curve"/>
      <point x="205" y="241"/>
      <point x="205" y="481"/>
      <point x="205" y="722" type="curve"/>
      <point x="80" y="722"/>
      <point x="205" y="722"/>
      <point x="80" y="722" type="curve"/>
      <point x="80" y="481"/>
      <point x="80" y="241"/>
      <point x="80" y="0" type="curve"/>
      <point x="205" y="0"/>
      <point x="80" y="0"/>
    </contour>
    <contour>
      <point x="203" y="787" type="line"/>
      <point x="132" y="953" type="line"/>
      <point x="-19" y="953" type="line"/>
      <point x="86" y="787" type="line"/>
    </contour>
  </outline>
</glyph>
<glyph name="Iacute" format="1">
  <advance width="269"/>
  <unicode hex="00CD"/>
  <outline>
    <contour>
      <point x="195" y="0" type="curve"/>
      <point x="195" y="241"/>
      <point x="195" y="481"/>
      <point x="195" y="722" type="curve"/>
      <point x="70" y="722"/>
      <point x="195" y="722"/>
      <point x="70" y="722" type="curve"/>
      <point x="70" y="481"/>
      <point x="70" y="241"/>
      <point x="70" y="0" type="curve"/>
      <point x="195" y="0"/>
      <point x="70" y="0"/>
    </contour>
    <contour>
      <point x="192" y="785" type="line"/>
      <point x="298" y="951" type="line"/>
      <point x="146" y="951" type="line"/>
      <point x="75" y="785" type="line"/>
    </contour>
  </outline>
</glyph>
<glyph name="Icircumflex" format="1">
  <advance width="307"/>
  <unicode hex="00CE"/>
  <outline>
    <contour>
      <point x="217" y="0" type="curve"/>
      <point x="217" y="241"/>
      <point x="217" y="481"/>
      <point x="217" y="722" type="curve"/>
      <point x="92" y="722"/>
      <point x="217" y="722"/>
      <point x="92" y="722" type="curve"/>
      <point x="92" y="481"/>
      <point x="92" y="241"/>
      <point x="92" y="0" type="curve"/>
      <point x="217" y="0"/>
      <point x="92" y="0"/>
    </contour>
    <contour>
      <point x="103" y="786" type="line"/>
      <point x="208" y="952" type="line"/>
      <point x="57" y="952" type="line"/>
      <point x="-14" y="786" type="line"/>
    </contour>
    <contour>
      <point x="329" y="786" type="line"/>
      <point x="258" y="952" type="line"/>
      <point x="107" y="952" type="line"/>
      <point x="213" y="786" type="line"/>
    </contour>
  </outline>
</glyph>
<glyph name="Idieresis" format="1">
  <advance width="263"/>
  <unicode hex="00CF"/>
  <outline>
    <contour>
      <point x="196" y="0" type="curve"/>
      <point x="196" y="241"/>
      <point x="196" y="481"/>
      <point x="196" y="722" type="curve"/>
      <point x="71" y="722"/>
      <point x="196" y="722"/>
      <point x="71" y="722" type="curve"/>
      <point x="71" y="481"/>
      <point x="71" y="241"/>
      <point x="71" y="0" type="curve"/>
      <point x="196" y="0"/>
      <point x="71" y="0"/>
    </contour>
    <contour>
      <point x="112" y="843" type="curve"/>
      <point x="112" y="886"/>
      <point x="85" y="907"/>
      <point x="47" y="907" type="curve"/>
      <point x="9" y="907"/>
      <point x="-16" y="884"/>
      <point x="-16" y="843" type="curve"/>
      <point x="113" y="843"/>
      <point x="-16" y="843"/>
      <point x="112" y="843" type="curve"/>
      <point x="112" y="800"/>
      <point x="86" y="780"/>
      <point x="48" y="780" type="curve"/>
      <point x="8" y="780"/>
      <point x="-16" y="801"/>
      <point x="-16" y="843" type="curve"/>
      <point x="113" y="843"/>
      <point x="-16" y="843"/>
    </contour>
    <contour>
      <point x="290" y="843" type="curve"/>
      <point x="290" y="886"/>
      <point x="262" y="907"/>
      <point x="225" y="907" type="curve"/>
      <point x="187" y="907"/>
      <point x="162" y="884"/>
      <point x="162" y="843" type="curve"/>
      <point x="290" y="843"/>
      <point x="162" y="843"/>
      <point x="290" y="843" type="curve"/>
      <point x="290" y="800"/>
      <point x="263" y="780"/>
      <point x="225" y="780" type="curve"/>
      <point x="186" y="780"/>
      <point x="162" y="801"/>
      <point x="162" y="843" type="curve"/>
      <point x="290" y="843"/>
      <point x="162" y="843"/>
    </contour>
  </outline>
</glyph>
<glyph name="Ntilde" format="1">
  <advance width="623"/>
  <unicode hex="00D1"/>
  <outline>
    <contour>
      <point x="552" y="0" type="curve"/>
      <point x="434" y="241"/>
      <point x="315" y="481"/>
      <point x="198" y="722" type="curve"/>
      <point x="72" y="722"/>
      <point x="198" y="722"/>
      <point x="72" y="722" type="curve"/>
      <point x="190" y="481"/>
      <point x="308" y="241"/>
      <point x="426" y="0" type="curve"/>
      <point x="552" y="0"/>
      <point x="426" y="0"/>
    </contour>
    <contour>
      <point x="425" y="722" type="curve"/>
      <point x="425" y="481"/>
      <point x="425" y="241"/>
      <point x="425" y="0" type="curve"/>
      <point x="550" y="0"/>
      <point x="425" y="0"/>
      <point x="550" y="0" type="curve"/>
      <point x="550" y="241"/>
      <point x="550" y="481"/>
      <point x="550" y="722" type="curve"/>
      <point x="425" y="722"/>
      <point x="550" y="722"/>
    </contour>
    <contour>
      <point x="198" y="0" type="curve"/>
      <point x="198" y="241"/>
      <point x="198" y="481"/>
      <point x="198" y="722" type="curve"/>
      <point x="73" y="722"/>
      <point x="198" y="722"/>
      <point x="73" y="722" type="curve"/>
      <point x="73" y="481"/>
      <point x="73" y="241"/>
      <point x="73" y="0" type="curve"/>
      <point x="198" y="0"/>
      <point x="73" y="0"/>
    </contour>
    <contour>
      <point x="399" y="971" type="curve"/>
      <point x="383" y="934"/>
      <point x="372" y="926"/>
      <point x="358" y="926" type="curve"/>
      <point x="334" y="926"/>
      <point x="324" y="933"/>
      <point x="308" y="948" type="curve"/>
      <point x="286" y="967"/>
      <point x="276" y="977"/>
      <point x="250" y="977" type="curve"/>
      <point x="186" y="977"/>
      <point x="157" y="906"/>
      <point x="140" y="846" type="curve"/>
      <point x="232" y="792"/>
      <point x="140" y="848"/>
      <point x="232" y="792" type="curve"/>
      <point x="250" y="833"/>
      <point x="263" y="842"/>
      <point x="283" y="842" type="curve"/>
      <point x="301" y="842"/>
      <point x="310" y="835"/>
      <point x="322" y="822" type="curve"/>
      <point x="347" y="799"/>
      <point x="361" y="786"/>
      <point x="392" y="786" type="curve"/>
      <point x="456" y="786"/>
      <point x="474" y="852"/>
      <point x="498" y="918" type="curve"/>
      <point x="399" y="971"/>
      <point x="498" y="917"/>
    </contour>
  </outline>
</glyph>
<glyph name="Oacute" format="1">
  <advance width="589"/>
  <unicode hex="00D3"/>
  <outline>
    <contour>
      <point x="166" y="360" type="curve" name="FullCurve"/>
      <point x="166" y="498"/>
      <point x="175" y="625"/>
      <point x="292" y="625" type="curve" name="FullCurve"/>
      <point x="404" y="625"/>
      <point x="424" y="500"/>
      <point x="424" y="363" type="curve" name="FullCurve"/>
      <point x="424" y="225"/>
      <point x="412" y="98"/>
      <point x="296" y="98" type="curve" name="FullCurve"/>
      <point x="182" y="98"/>
      <point x="166" y="222"/>
      <point x="166" y="360" type="curve" name="FullCurve"/>
      <point x="41" y="360"/>
      <point x="166" y="360"/>
      <point x="41" y="360" type="curve" name="FullCurve"/>
      <point x="41" y="158"/>
      <point x="113" y="-5"/>
      <point x="292" y="-5" type="curve" name="FullCurve"/>
      <point x="474" y="-5"/>
      <point x="549" y="159"/>
      <point x="549" y="363" type="curve" name="FullCurve"/>
      <point x="549" y="564"/>
      <point x="477" y="727"/>
      <point x="297" y="727" type="curve" name="FullCurve"/>
      <point x="116" y="727"/>
      <point x="41" y="563"/>
      <point x="41" y="360" type="curve" name="FullCurve"/>
      <point x="166" y="360"/>
      <point x="41" y="360"/>
    </contour>
    <contour>
      <point x="352" y="785" type="line"/>
      <point x="457" y="951" type="line"/>
      <point x="306" y="951" type="line"/>
      <point x="235" y="785" type="line"/>
    </contour>
  </outline>
</glyph>
<glyph name="Odieresis" format="1">
  <advance width="589"/>
  <unicode hex="00D6"/>
  <outline>
    <contour>
      <point x="166" y="360" type="curve" name="FullCurve"/>
      <point x="166" y="498"/>
      <point x="175" y="625"/>
      <point x="292" y="625" type="curve" name="FullCurve"/>
      <point x="404" y="625"/>
      <point x="424" y="500"/>
      <point x="424" y="363" type="curve" name="FullCurve"/>
      <point x="424" y="225"/>
      <point x="412" y="98"/>
      <point x="296" y="98" type="curve" name="FullCurve"/>
      <point x="182" y="98"/>
      <point x="166" y="222"/>
      <point x="166" y="360" type="curve" name="FullCurve"/>
      <point x="41" y="360"/>
      <point x="166" y="360"/>
      <point x="41" y="360" type="curve" name="FullCurve"/>
      <point x="41" y="158"/>
      <point x="113" y="-5"/>
      <point x="292" y="-5" type="curve" name="FullCurve"/>
      <point x="474" y="-5"/>
      <point x="549" y="159"/>
      <point x="549" y="363" type="curve" name="FullCurve"/>
      <point x="549" y="564"/>
      <point x="477" y="727"/>
      <point x="297" y="727" type="curve" name="FullCurve"/>
      <point x="116" y="727"/>
      <point x="41" y="563"/>
      <point x="41" y="360" type="curve" name="FullCurve"/>
      <point x="166" y="360"/>
      <point x="41" y="360"/>
    </contour>
    <contour>
      <point x="271" y="843" type="curve"/>
      <point x="271" y="886"/>
      <point x="243" y="907"/>
      <point x="206" y="907" type="curve"/>
      <point x="168" y="907"/>
      <point x="143" y="884"/>
      <point x="143" y="843" type="curve"/>
      <point x="271" y="843"/>
      <point x="142" y="843"/>
      <point x="271" y="843" type="curve"/>
      <point x="271" y="800"/>
      <point x="244" y="780"/>
      <point x="206" y="780" type="curve"/>
      <point x="167" y="780"/>
      <point x="143" y="801"/>
      <point x="143" y="843" type="curve"/>
      <point x="271" y="843"/>
      <point x="142" y="843"/>
    </contour>
    <contour>
      <point x="448" y="843" type="curve"/>
      <point x="448" y="886"/>
      <point x="421" y="907"/>
      <point x="384" y="907" type="curve"/>
      <point x="345" y="907"/>
      <point x="321" y="884"/>
      <point x="321" y="843" type="curve"/>
      <point x="449" y="843"/>
      <point x="320" y="843"/>
      <point x="448" y="843" type="curve"/>
      <point x="448" y="800"/>
      <point x="422" y="780"/>
      <point x="384" y="780" type="curve"/>
      <point x="345" y="780"/>
      <point x="321" y="801"/>
      <point x="321" y="843" type="curve"/>
      <point x="449" y="843"/>
      <point x="320" y="843"/>
    </contour>
  </outline>
</glyph>
<glyph name="multiply" format="1">
  <advance width="575"/>
  <unicode hex="00D7"/>
  <outline>
    <contour>
      <point x="113" y="55" type="line"/>
      <point x="534" y="495" type="line"/>
      <point x="462" y="567" type="line"/>
      <point x="41" y="126" type="line"/>
    </contour>
    <contour>
      <point x="533" y="123" type="line"/>
      <point x="113" y="563" type="line"/>
      <point x="41" y="492" type="line"/>
      <point x="462" y="52" type="line"/>
    </contour>
  </outline>
</glyph>
<glyph name="Ugrave" format="1">
  <advance width="576"/>
  <unicode hex="00D9"/>
  <outline>
    <contour>
      <point x="66" y="722" type="curve"/>
      <point x="66" y="586"/>
      <point x="65" y="407"/>
      <point x="66" y="271" type="curve"/>
      <point x="66" y="100"/>
      <point x="125" y="-5"/>
      <point x="285" y="-5" type="curve"/>
      <point x="448" y="-5"/>
      <point x="510" y="104"/>
      <point x="510" y="281" type="curve"/>
      <point x="510" y="413"/>
      <point x="510" y="589"/>
      <point x="510" y="722" type="curve"/>
      <point x="396" y="722"/>
      <point x="510" y="722"/>
      <point x="396" y="722" type="curve"/>
      <point x="396" y="583"/>
      <point x="396" y="406"/>
      <point x="396" y="267" type="curve"/>
      <point x="396" y="174"/>
      <point x="372" y="103"/>
      <point x="293" y="103" type="curve"/>
      <point x="198" y="103"/>
      <point x="180" y="181"/>
      <point x="180" y="291" type="curve"/>
      <point x="180" y="421"/>
      <point x="180" y="593"/>
      <point x="180" y="722" type="curve"/>
      <point x="66" y="722"/>
      <point x="180" y="722"/>
    </contour>
    <contour>
      <point x="349" y="787" type="line"/>
      <point x="278" y="953" type="line"/>
      <point x="126" y="953" type="line"/>
      <point x="232" y="787" type="line"/>
    </contour>
  </outline>
</glyph>
<glyph name="Ucircumflex" format="1">
  <advance width="576"/>
  <unicode hex="00DB"/>
  <outline>
    <contour>
      <point x="66" y="722" type="curve"/>
      <point x="66" y="586"/>
      <point x="65" y="407"/>
      <point x="66" y="271" type="curve"/>
      <point x="66" y="100"/>
      <point x="125" y="-5"/>
      <point x="285" y="-5" type="curve"/>
      <point x="448" y="-5"/>
      <point x="510" y="104"/>
      <point x="510" y="281" type="curve"/>
      <point x="510" y="413"/>
      <point x="510" y="589"/>
      <point x="510" y="722" type="curve"/>
      <point x="396" y="722"/>
      <point x="510" y="722"/>
      <point x="396" y="722" type="curve"/>
      <point x="396" y="583"/>
      <point x="396" y="406"/>
      <point x="396" y="267" type="curve"/>
      <point x="396" y="174"/>
      <point x="372" y="103"/>
      <point x="293" y="103" type="curve"/>
      <point x="198" y="103"/>
      <point x="180" y="181"/>
      <point x="180" y="291" type="curve"/>
      <point x="180" y="421"/>
      <point x="180" y="593"/>
      <point x="180" y="722" type="curve"/>
      <point x="66" y="722"/>
      <point x="180" y="722"/>
    </contour>
    <contour>
      <point x="237" y="786" type="line"/>
      <point x="343" y="952" type="line"/>
      <point x="191" y="952" type="line"/>
      <point x="120" y="786" type="line"/>
    </contour>
    <contour>
      <point x="463" y="786" type="line"/>
      <point x="393" y="952" type="line"/>
      <point x="241" y="952" type="line"/>
      <point x="347" y="786" type="line"/>
    </contour>
  </outline>
</glyph>
<glyph name="Udieresis" format="1">
  <advance width="576"/>
  <unicode hex="00DC"/>
  <outline>
    <contour>
      <point x="66" y="722" type="curve"/>
      <point x="66" y="586"/>
      <point x="65" y="407"/>
      <point x="66" y="271" type="curve"/>
      <point x="66" y="100"/>
      <point x="125" y="-5"/>
      <point x="285" y="-5" type="curve"/>
      <point x="448" y="-5"/>
      <point x="510" y="104"/>
      <point x="510" y="281" type="curve"/>
      <point x="510" y="413"/>
      <point x="510" y="589"/>
      <point x="510" y="722" type="curve"/>
      <point x="396" y="722"/>
      <point x="510" y="722"/>
      <point x="396" y="722" type="curve"/>
      <point x="396" y="583"/>
      <point x="396" y="406"/>
      <point x="396" y="267" type="curve"/>
      <point x="396" y="174"/>
      <point x="372" y="103"/>
      <point x="293" y="103" type="curve"/>
      <point x="198" y="103"/>
      <point x="180" y="181"/>
      <point x="180" y="291" type="curve"/>
      <point x="180" y="421"/>
      <point x="180" y="593"/>
      <point x="180" y="722" type="curve"/>
      <point x="66" y="722"/>
      <point x="180" y="722"/>
    </contour>
    <contour>
      <point x="267" y="843" type="curve"/>
      <point x="267" y="886"/>
      <point x="240" y="907"/>
      <point x="202" y="907" type="curve"/>
      <point x="164" y="907"/>
      <point x="139" y="884"/>
      <point x="139" y="843" type="curve"/>
      <point x="268" y="843"/>
      <point x="139" y="843"/>
      <point x="267" y="843" type="curve"/>
      <point x="267" y="800"/>
      <point x="241" y="780"/>
      <point x="203" y="780" type="curve"/>
      <point x="163" y="780"/>
      <point x="139" y="801"/>
      <point x="139" y="843" type="curve"/>
      <point x="268" y="843"/>
      <point x="139" y="843"/>
    </contour>
    <contour>
      <point x="445" y="843" type="curve"/>
      <point x="445" y="886"/>
      <point x="417" y="907"/>
      <point x="380" y="907" type="curve"/>
      <point x="342" y="907"/>
      <point x="317" y="884"/>
      <point x="317" y="843" type="curve"/>
      <point x="445" y="843"/>
      <point x="317" y="843"/>
      <point x="445" y="843" type="curve"/>
      <point x="445" y="800"/>
      <point x="418" y="780"/>
      <point x="380" y="780" type="curve"/>
      <point x="341" y="780"/>
      <point x="317" y="801"/>
      <point x="317" y="843" type="curve"/>
      <point x="445" y="843"/>
      <point x="317" y="843"/>
    </contour>
  </outline>
</glyph>
